<svg width="320" height="320" viewBox="0 0 320 320" fill="none" xmlns="http://www.w3.org/2000/svg">
<path d="M146.776 102.865C156.886 90.4594 178.311 90.4357 188.477 102.797" stroke="#0E0E0E" stroke-width="3" stroke-linecap="round" stroke-linejoin="round"/>
<path d="M169.547 222.865C187.511 222.865 202.074 209.639 202.074 193.324C202.074 177.009 187.511 163.784 169.547 163.784C151.582 163.784 137.019 177.009 137.019 193.324C137.019 209.639 151.582 222.865 169.547 222.865Z" fill="#D3D3D3"/>
<path d="M195.994 126.48C192.181 143.793 208.948 169.638 210.528 193.105C210.759 232.198 127.861 233.384 127.861 193.105C127.861 171.701 142.184 147.055 139.034 127.425" stroke="#0E0E0E" stroke-width="2" stroke-linecap="round" stroke-linejoin="round"/>
<path d="M127.861 196.249C115.713 191.07 109.49 183.606 103.828 170.273C100.139 160.643 86.4356 171.31 79.0282 182.815C77.1764 185.606 73.0282 183.161 77.6445 175.505C86.806 161.65 101.739 155.01 107.274 163.381C110.806 168.64 116.806 187.973 127.938 190.314" stroke="#0E0E0E" stroke-width="3" stroke-linecap="round" stroke-linejoin="round"/>
<path d="M149.956 219.698L137.413 225.807C136.673 226.165 135.821 226.216 135.044 225.948C134.267 225.679 133.627 225.115 133.265 224.376C132.907 223.636 132.857 222.784 133.125 222.007C133.393 221.23 133.958 220.59 134.696 220.228L142.655 216.353" stroke="#0E0E0E" stroke-width="3" stroke-linecap="round" stroke-linejoin="round"/>
<path d="M198.613 215.182L206.353 217.849C207.129 218.119 207.766 218.686 208.126 219.425C208.486 220.164 208.538 221.015 208.273 221.792C208 222.567 207.433 223.202 206.694 223.56C205.956 223.918 205.105 223.97 204.329 223.704L191.111 219.155" stroke="#0E0E0E" stroke-width="3" stroke-linecap="round" stroke-linejoin="round"/>
<path d="M170.201 129.111L167.816 131.496C167.733 131.579 167.62 131.626 167.502 131.626C167.385 131.626 167.271 131.579 167.188 131.496L164.803 129.111C164.72 129.028 164.673 128.915 164.673 128.797C164.673 128.679 164.72 128.566 164.803 128.483H170.201C170.285 128.566 170.332 128.679 170.332 128.797C170.332 128.915 170.285 129.028 170.201 129.111Z" fill="#0E0E0E"/>
<path d="M161.911 136.05H173.09" stroke="#0E0E0E" stroke-width="3" stroke-linecap="round" stroke-linejoin="round"/>
<path d="M166.871 136.05H165.244C164.993 136.05 164.788 136.254 164.788 136.507V138.607C164.788 138.859 164.993 139.064 165.244 139.064H166.871C167.123 139.064 167.327 138.859 167.327 138.607V136.507C167.327 136.254 167.123 136.05 166.871 136.05Z" fill="#0E0E0E"/>
<path d="M170.009 136.05H168.382C168.13 136.05 167.926 136.254 167.926 136.507V138.607C167.926 138.859 168.13 139.064 168.382 139.064H170.009C170.261 139.064 170.465 138.859 170.465 138.607V136.507C170.465 136.254 170.261 136.05 170.009 136.05Z" fill="#0E0E0E"/>
<path d="M149.253 99.7899C149.233 95.5958 148.01 91.4953 145.73 87.9751C143.45 84.4548 140.208 81.6625 136.388 79.9291C132.569 78.1958 128.333 77.5943 124.182 78.1961C120.031 78.7979 116.14 80.5777 112.97 83.3241C109.8 86.0705 107.484 89.6687 106.298 93.6915C105.111 97.7143 105.103 101.993 106.275 106.02C107.446 110.048 109.748 113.654 112.908 116.413C116.068 119.171 119.952 120.965 124.101 121.582C129.671 122.412 134.847 120.771 139.212 117.891" stroke="#0E0E0E" stroke-width="2" stroke-linecap="round" stroke-linejoin="round"/>
<path d="M185.481 99.7899C185.502 95.5958 186.724 91.4953 189.005 87.9751C191.285 84.4548 194.527 81.6625 198.346 79.9291C202.166 78.1958 206.402 77.5943 210.553 78.1961C214.704 78.7979 218.595 80.5777 221.765 83.3241C224.935 86.0705 227.25 89.6687 228.437 93.6915C229.624 97.7143 229.632 101.993 228.46 106.02C227.289 110.048 224.986 113.654 221.827 116.413C218.667 119.171 214.782 120.965 210.634 121.582C205.064 122.412 199.887 120.771 195.523 117.891" stroke="#0E0E0E" stroke-width="2" stroke-linecap="round" stroke-linejoin="round"/>
<path d="M205.941 118.139C213.746 118.139 220.074 111.812 220.074 104.006C220.074 96.2003 213.746 89.8726 205.941 89.8726C198.135 89.8726 191.807 96.2003 191.807 104.006C191.807 111.812 198.135 118.139 205.941 118.139Z" fill="#ABABAB"/>
<path d="M128.533 118.139C136.339 118.139 142.667 111.812 142.667 104.006C142.667 96.2003 136.339 89.8726 128.533 89.8726C120.728 89.8726 114.4 96.2003 114.4 104.006C114.4 111.812 120.728 118.139 128.533 118.139Z" fill="#ABABAB"/>
<path d="M146.776 102.865C141.247 108.255 138.184 116.13 139.037 127.428" stroke="#0E0E0E" stroke-width="3" stroke-linecap="round" stroke-linejoin="round"/>
<path d="M195.994 126.48C196.095 116.781 193.588 108.887 188.474 102.797" stroke="#0E0E0E" stroke-width="3" stroke-linecap="round" stroke-linejoin="round"/>
<path d="M182.021 129.748C195.194 127.75 208.535 127.079 221.843 127.745" stroke="#0E0E0E" stroke-width="3" stroke-linecap="round" stroke-linejoin="round"/>
<path d="M182.16 132.625C192.58 133.342 202.933 134.835 213.132 137.09" stroke="#0E0E0E" stroke-width="3" stroke-linecap="round" stroke-linejoin="round"/>
<path d="M182.418 135.89C190.341 136.954 198.181 139.052 205.944 141.754" stroke="#0E0E0E" stroke-width="3" stroke-linecap="round" stroke-linejoin="round"/>
<path d="M154.4 129.748C141.226 127.75 127.886 127.079 114.578 127.745" stroke="#0E0E0E" stroke-width="3" stroke-linecap="round" stroke-linejoin="round"/>
<path d="M154.261 132.625C143.84 133.344 133.488 134.837 123.289 137.093" stroke="#0E0E0E" stroke-width="3" stroke-linecap="round" stroke-linejoin="round"/>
<path d="M154.006 135.89C146.083 136.954 138.243 139.052 130.48 141.754" stroke="#0E0E0E" stroke-width="3" stroke-linecap="round" stroke-linejoin="round"/>
<path d="M163.117 145.944C158.862 147.295 143.102 154.599 137.538 158.608C123.422 169.431 120.015 200.839 100.501 221.449C75.4193 250.471 157.79 231.36 162.963 250.809C159.111 266.027 216.296 235.064 247.286 242.323C266.382 250.394 263.123 262.768 239.73 261.985C193.138 263.639 141.493 267.212 144.027 258.519C153.049 247.953 201.778 228.545 183.061 224.83C175.864 223.07 158.234 227.656 160.67 222.628" stroke="#0E0E0E" stroke-width="3" stroke-miterlimit="10"/>
<path d="M258.127 180.936C230.139 182.272 222.435 180.308 191.517 154.815C187.473 151.458 179.286 146.616 174.27 146.32" stroke="#0E0E0E" stroke-width="3" stroke-miterlimit="10"/>
<path d="M156.913 149.002C160.631 146.252 163.961 147.647 167.161 145.517" stroke="#0E0E0E" stroke-linecap="round" stroke-linejoin="round"/>
<path d="M159.046 147.395C164.154 146.907 166.157 143.893 167.473 144.433" stroke="#0E0E0E" stroke-width="0.5" stroke-linecap="round" stroke-linejoin="round"/>
<path d="M159.167 147.396C162.16 144.501 164.433 145.206 166.489 143.642" stroke="#0E0E0E" stroke-linecap="round" stroke-linejoin="round"/>
<path d="M180.848 149.265C177.218 146.32 171.2 147.511 169.165 145.781" stroke="#0E0E0E" stroke-linecap="round" stroke-linejoin="round"/>
<path d="M178.157 147.321C172.699 146.729 170.495 144.933 168.551 144.696" stroke="#0E0E0E" stroke-width="0.5" stroke-linecap="round" stroke-linejoin="round"/>
<path d="M178.095 147.511C174.382 144.696 171.736 145.487 169.621 144.062" stroke="#0E0E0E" stroke-linecap="round" stroke-linejoin="round"/>
<path d="M158.376 152.593L149.055 165.659C148.826 165.978 148.535 166.247 148.198 166.448C147.861 166.649 147.487 166.779 147.098 166.83C146.709 166.88 146.314 166.85 145.937 166.742C145.56 166.633 145.209 166.448 144.907 166.199L143.781 165.262C143.482 165.013 143.238 164.705 143.062 164.358C142.887 164.011 142.784 163.632 142.76 163.244C142.735 162.855 142.791 162.466 142.922 162.1C143.053 161.734 143.258 161.399 143.523 161.114L154.516 149.381C154.728 149.126 154.988 148.915 155.281 148.761C155.575 148.607 155.896 148.511 156.226 148.481C156.556 148.451 156.889 148.486 157.206 148.585C157.522 148.683 157.816 148.843 158.071 149.055C158.577 149.486 158.894 150.099 158.951 150.761C159.008 151.423 158.802 152.081 158.376 152.593Z" stroke="#0E0E0E" stroke-width="3" stroke-linecap="round" stroke-linejoin="round"/>
<path d="M179.144 152.593L188.462 165.662C188.691 165.981 188.983 166.249 189.319 166.451C189.656 166.652 190.03 166.782 190.419 166.833C190.808 166.883 191.204 166.853 191.58 166.745C191.957 166.636 192.308 166.451 192.61 166.201L193.736 165.265C194.035 165.016 194.279 164.708 194.455 164.361C194.631 164.014 194.733 163.635 194.758 163.246C194.782 162.858 194.727 162.469 194.595 162.103C194.464 161.737 194.259 161.401 193.994 161.117L183.002 149.384C182.789 149.129 182.529 148.918 182.236 148.764C181.943 148.609 181.621 148.515 181.291 148.484C180.961 148.454 180.628 148.489 180.312 148.588C179.995 148.686 179.701 148.846 179.446 149.058C178.941 149.489 178.626 150.102 178.569 150.763C178.513 151.425 178.719 152.082 179.144 152.593Z" stroke="#0E0E0E" stroke-width="3" stroke-linecap="round" stroke-linejoin="round"/>
<path d="M259.655 177.005L259.288 177.008C258.632 177.014 258.104 177.551 258.11 178.207L258.159 183.534C258.165 184.191 258.702 184.718 259.358 184.712L259.725 184.708C260.381 184.702 260.908 184.166 260.902 183.51L260.854 178.182C260.848 177.526 260.311 176.999 259.655 177.005Z" stroke="#0E0E0E" stroke-width="3" stroke-miterlimit="10"/>
<path d="M270.366 175.405L263.33 175.469C261.95 175.482 260.842 176.61 260.855 177.99L260.9 183.026C260.913 184.406 262.041 185.514 263.421 185.501L270.458 185.438C271.837 185.425 272.945 184.297 272.933 182.917L272.887 177.88C272.874 176.501 271.746 175.393 270.366 175.405Z" stroke="#0E0E0E" stroke-width="3" stroke-miterlimit="10"/>
<path d="M278.021 169.224C278.021 168.132 277.137 167.248 276.046 167.248C274.955 167.248 274.071 168.132 274.071 169.224V191.544C274.071 192.635 274.955 193.52 276.046 193.52C277.137 193.52 278.021 192.635 278.021 191.544V169.224Z" fill="#0E0E0E"/>
<path d="M274.975 179.162H273.973C273.381 179.162 272.901 179.642 272.901 180.234V180.385C272.901 180.978 273.381 181.458 273.973 181.458H274.975C275.567 181.458 276.047 180.978 276.047 180.385V180.234C276.047 179.642 275.567 179.162 274.975 179.162Z" stroke="#0E0E0E" stroke-width="3" stroke-miterlimit="10"/>
<path d="M68.643 71.8399L52.3467 64.8828" stroke="#0E0E0E" stroke-linecap="round" stroke-linejoin="round"/>
<path d="M68.0503 76.6191L61.4636 78.6665" stroke="#0E0E0E" stroke-linecap="round" stroke-linejoin="round"/>
<path d="M237.875 39.9528L239.378 35.8047" stroke="#0E0E0E" stroke-linecap="round" stroke-linejoin="round"/>
<path d="M243.579 43.5084L247.046 35.8047" stroke="#0E0E0E" stroke-linecap="round" stroke-linejoin="round"/>
<path d="M233.701 40.8414L231.422 37.8784" stroke="#0E0E0E" stroke-linecap="round" stroke-linejoin="round"/>
<path d="M70.8978 65.6474L76.0267 65.0104C76.1304 64.997 76.2358 65.0044 76.3366 65.032C76.4376 65.0595 76.5321 65.1066 76.6145 65.1709C76.6972 65.2349 76.7662 65.3149 76.8181 65.4059C76.8696 65.4966 76.9028 65.597 76.9155 65.7007L77.5526 70.8296C77.5659 70.9333 77.5585 71.0388 77.5309 71.1395C77.5034 71.2406 77.4563 71.3348 77.3923 71.4175C77.328 71.5001 77.2483 71.5692 77.1573 71.6207C77.0664 71.6726 76.9662 71.7058 76.8622 71.7185L70.2133 66.5363C70.1864 66.3277 70.2435 66.117 70.3718 65.9502C70.5001 65.7837 70.6892 65.6746 70.8978 65.6474Z" fill="#E2E2E2"/>
<path d="M73.1112 79.1883L72.4267 75.5557C72.3998 75.4075 72.4324 75.2549 72.5171 75.1308C72.6018 75.0066 72.7322 74.9207 72.8801 74.892L76.5275 74.2046C76.6753 74.1776 76.8282 74.2102 76.9523 74.2949C77.0765 74.38 77.1624 74.5103 77.1912 74.6579L73.7778 79.6416C73.6294 79.6694 73.4759 79.6374 73.3509 79.5524C73.2261 79.4674 73.1399 79.3364 73.1112 79.1883Z" fill="#E2E2E2"/>
<path d="M230.122 47.3509L238.957 46.2546C239.316 46.2111 239.678 46.3112 239.963 46.5331C240.248 46.7553 240.434 47.0813 240.48 47.4398L241.576 56.2753C241.62 56.6342 241.52 56.9959 241.298 57.2813C241.076 57.5666 240.75 57.7524 240.391 57.7983L228.933 48.8887C228.91 48.7097 228.922 48.5275 228.969 48.3533C229.016 48.1788 229.097 48.0152 229.207 47.8724C229.318 47.7296 229.455 47.6099 229.612 47.5204C229.769 47.4309 229.942 47.3731 230.122 47.3509Z" fill="#E2E2E2"/>
<path d="M212.32 51.2592L211.633 47.6118C211.606 47.4637 211.638 47.3111 211.723 47.1869C211.808 47.0628 211.938 46.9769 212.086 46.9481L215.733 46.2607C215.881 46.2337 216.034 46.2663 216.158 46.3511C216.283 46.4358 216.368 46.5665 216.397 46.714L212.984 51.7126C212.836 51.7395 212.683 51.7069 212.559 51.6222C212.435 51.5372 212.349 51.4068 212.32 51.2592Z" fill="#E2E2E2"/>
<path d="M256.255 145.484L255.496 157.662L259.979 156.314L261.283 170.169L261.902 154.195L257.479 155.715L256.255 145.484Z" fill="#D3D3D3"/>
<path d="M245.105 169.517L251.683 172.27L251.799 169.535L259.698 171.473L250.999 168.068L250.99 170.803L245.105 169.517Z" fill="#D3D3D3"/>
<path d="M158.089 122.418C159.4 122.418 160.462 120.322 160.462 117.736C160.462 115.151 159.4 113.055 158.089 113.055C156.778 113.055 155.716 115.151 155.716 117.736C155.716 120.322 156.778 122.418 158.089 122.418Z" fill="#0E0E0E"/>
<path d="M157.612 116.504C158 116.504 158.314 116.248 158.314 115.932C158.314 115.616 158 115.36 157.612 115.36C157.224 115.36 156.91 115.616 156.91 115.932C156.91 116.248 157.224 116.504 157.612 116.504Z" fill="white"/>
<path d="M176.459 122.418C177.77 122.418 178.833 120.322 178.833 117.736C178.833 115.151 177.77 113.055 176.459 113.055C175.148 113.055 174.086 115.151 174.086 117.736C174.086 120.322 175.148 122.418 176.459 122.418Z" fill="#0E0E0E"/>
<path d="M176.136 116.504C176.524 116.504 176.839 116.248 176.839 115.932C176.839 115.616 176.524 115.36 176.136 115.36C175.748 115.36 175.434 115.616 175.434 115.932C175.434 116.248 175.748 116.504 176.136 116.504Z" fill="white"/>
<path d="M277.576 47.7363V286.756" stroke="#0E0E0E" stroke-width="2" stroke-linecap="round" stroke-linejoin="round"/>
<path d="M70.717 241.715L45.6562 258.462L49.6059 275.943L88.9125 267.055L84.5659 247.819C83.12 241.431 78.2222 240.115 70.717 241.715Z" fill="#ABABAB"/>
<path d="M64.8208 251.351L46.4089 255.499L75.0726 236.264C82.6875 236.501 86.9414 239.793 87.8341 246.139L75.1912 248.996" stroke="#0E0E0E" stroke-linecap="round" stroke-linejoin="round"/>
<path d="M75.1882 249.007L87.8342 246.151L91.8905 263.866L88.3705 264.66" stroke="#0E0E0E" stroke-linecap="round" stroke-linejoin="round"/>
<path d="M47.9319 262.255L46.4089 255.511L64.8208 251.351" stroke="#0E0E0E" stroke-linecap="round" stroke-linejoin="round"/>
<path d="M80.7585 266.379L50.4119 273.239L49.4104 268.806" stroke="#0E0E0E" stroke-linecap="round" stroke-linejoin="round"/>
<path d="M77.0969 243.92C79.8104 243.307 81.8347 242.034 81.6181 241.076C81.4018 240.118 79.0267 239.839 76.3132 240.452C73.5997 241.065 71.5754 242.338 71.7917 243.296C72.008 244.254 74.3831 244.533 77.0969 243.92Z" stroke="#0E0E0E" stroke-linecap="round" stroke-linejoin="round"/>
<path d="M66.4652 242.053C67.7838 241.997 68.7201 242.222 68.8356 242.693C68.9986 243.416 67.1467 244.45 64.6875 245.005C63.6709 245.248 62.627 245.358 61.5823 245.333" stroke="#0E0E0E" stroke-linecap="round" stroke-linejoin="round"/>
<path d="M47.9319 262.255C48.8006 262.058 49.7117 262.215 50.4649 262.69C51.2181 263.166 51.7517 263.921 51.9482 264.789C52.1446 265.658 51.9879 266.569 51.5126 267.322C51.0371 268.076 50.2821 268.609 49.4134 268.806" stroke="#0E0E0E" stroke-linecap="round" stroke-linejoin="round"/>
<path d="M67.3248 265.659C69.7716 265.107 71.307 262.675 70.7544 260.228C70.2015 257.781 67.7698 256.246 65.3227 256.798C62.8759 257.351 61.3405 259.783 61.8931 262.23C62.446 264.677 64.8777 266.212 67.3248 265.659Z" stroke="#0E0E0E" stroke-linecap="round" stroke-linejoin="round"/>
<path d="M79.5777 261.182C80.5884 260.954 81.2222 259.95 80.994 258.939C80.7659 257.929 79.7617 257.295 78.7513 257.523C77.741 257.751 77.1069 258.755 77.335 259.766C77.5635 260.776 78.5673 261.41 79.5777 261.182Z" stroke="#0E0E0E" stroke-linecap="round" stroke-linejoin="round"/>
<path d="M82.8856 254.763C84.3751 254.426 85.3096 252.946 84.973 251.457C84.6367 249.968 83.1567 249.033 81.6675 249.37C80.178 249.706 79.2435 251.186 79.5801 252.676C79.9164 254.165 81.3964 255.099 82.8856 254.763Z" stroke="#0E0E0E" stroke-linecap="round" stroke-linejoin="round"/>
<path d="M56.085 261.627C57.2548 261.362 57.989 260.2 57.7247 259.03C57.4604 257.859 56.2978 257.126 55.1277 257.39C53.9576 257.654 53.2234 258.817 53.4877 259.987C53.7523 261.157 54.9149 261.891 56.085 261.627Z" stroke="#0E0E0E" stroke-linecap="round" stroke-linejoin="round"/>
<path d="M80.797 266.371C80.6725 264.563 81.9822 262.859 83.9051 262.424C84.7629 262.21 85.6678 262.295 86.4708 262.665C87.2737 263.034 87.9271 263.666 88.3229 264.456" stroke="#0E0E0E" stroke-linecap="round" stroke-linejoin="round"/>
<path d="M64.9185 251.781C64.5688 250.237 66.5481 248.477 69.3392 247.846C72.1303 247.215 74.6725 247.955 75.0222 249.499C75.3718 251.043 73.3925 252.803 70.6014 253.434C67.8103 254.065 65.2681 253.324 64.9185 251.781Z" stroke="#0E0E0E" stroke-linecap="round" stroke-linejoin="round"/>
<path d="M49.9822 231.138L45.6562 226.679" stroke="#0E0E0E" stroke-width="2" stroke-linecap="round" stroke-linejoin="round"/>
<path d="M57.4816 233.973L57.1853 226.264" stroke="#0E0E0E" stroke-width="2" stroke-linecap="round" stroke-linejoin="round"/>
<path d="M46.4089 241.523L40 240.272" stroke="#0E0E0E" stroke-width="2" stroke-linecap="round" stroke-linejoin="round"/>
</svg>
