<svg width="285" height="229" viewBox="0 0 285 229" fill="none" xmlns="http://www.w3.org/2000/svg">
<g clip-path="url(#clip0_705_9613)">
<path d="M99.725 76.833C101.767 74.1625 106.63 68.4458 109.59 66.9676H110.195L112.045 66.351C112.661 65.7344 114.021 64.5012 114.495 64.5012C115.111 64.5012 122.514 73.1335 123.747 74.9832C124.981 76.833 124.364 77.4333 124.364 78.6828C124.364 79.671 123.547 79.4995 123.139 79.2994L120.689 96.5681L122.539 102.734L149.052 91.6312L152.135 97.8012C144.944 101.501 129.677 109.394 126.238 111.366C122.8 113.339 119.864 113.816 118.839 113.816L118.219 118.749H91.7051C87.7565 118.749 85.5393 117.524 84.9227 116.899C84.533 106.335 87.0952 95.8712 92.3217 86.6822C94.2981 83.248 98.0794 78.6828 99.725 76.833Z" fill="white"/>
<path d="M117.769 83.6155C118.259 87.0414 122.387 103.052 122.387 103.052L158.856 87.5356L162.772 92.4356C162.772 92.4356 138.802 105.641 124.127 112.489C109.451 119.337 107.005 101.733 104.073 82.1741" stroke="black" stroke-width="0.637008" stroke-miterlimit="10"/>
<path d="M124.617 75.7999L124.208 79.3811C124.196 79.4625 124.164 79.5397 124.115 79.6057C124.065 79.6723 123.999 79.7245 123.923 79.7567C123.847 79.7941 123.761 79.8069 123.678 79.7935C123.595 79.7838 123.516 79.7529 123.449 79.7037L123.232 79.5403L123.335 78.1724C123.423 77.0133 123.194 75.8521 122.673 74.8128C122.153 73.7735 121.359 72.8953 120.378 72.2719L112.375 67.184C112.084 67.005 111.769 66.8676 111.44 66.7756L113.253 64.7748C113.386 64.6294 113.549 64.5139 113.73 64.4359C113.913 64.358 114.112 64.3217 114.31 64.3297C114.507 64.3346 114.701 64.3819 114.878 64.4685C115.056 64.5557 115.212 64.6812 115.335 64.836L124.617 75.7999Z" stroke="black" stroke-width="0.637008" stroke-miterlimit="10"/>
<path d="M111.456 66.7471C111.785 66.839 112.1 66.9765 112.391 67.1554L120.403 72.2515C121.384 72.8748 122.177 73.7531 122.698 74.7924C123.219 75.8316 123.447 76.9929 123.359 78.1519L123.257 79.5199" stroke="black" stroke-width="0.637008" stroke-miterlimit="10"/>
<path d="M123.261 79.5322L120.991 97.197" stroke="black" stroke-width="0.637008" stroke-miterlimit="10"/>
<path d="M85.0327 117.598C82.8889 92.6358 100.623 74.2442 108.173 67.5026C108.611 67.1044 109.142 66.8235 109.717 66.6859C110.291 66.5516 110.89 66.5671 111.456 66.7308" stroke="black" stroke-width="0.637008" stroke-miterlimit="10"/>
<path d="M133.061 52.059C133.159 48.4983 129.357 42.6673 121.497 44.8151C113.636 46.963 110.496 53.6556 111.962 57.1918C113.428 60.7281 116.699 62.5288 119.986 60.6219C119.986 60.6219 118.149 57.0938 120.754 55.3461C123.359 53.5984 123.722 57.3102 123.298 58.7108C122.873 60.1114 125.605 57.8942 126.805 55.7137C127.462 55.7212 128.113 55.5969 128.721 55.3478C129.328 55.0988 129.879 54.7302 130.342 54.264C131.137 53.4021 132.053 52.6594 133.061 52.059Z" fill="black"/>
<path d="M120.758 44.5375C121.115 44.3215 121.397 44.0014 121.566 43.6203C121.736 43.2393 121.784 42.8155 121.705 42.406C121.068 39.0903 117.438 34.1984 111.648 36.4361C104.87 39.0494 108.063 45.1867 111.158 45.1336C113.094 45.161 114.944 45.9315 116.328 47.2856L120.758 44.5375Z" fill="black"/>
<path d="M121.513 64.3133C121.513 64.3133 127.483 69.785 128.737 69.0622C129.991 68.3395 131.657 63.174 131.657 63.174C132.339 63.2688 133.035 63.2216 133.698 63.0352C134.335 62.7085 132.575 60.1074 132.694 58.0983C132.812 56.0893 133.392 53.4474 132.759 52.2183" stroke="black" stroke-width="0.637008" stroke-miterlimit="10"/>
<path d="M114.833 64.5419C116.147 63.318 117.329 61.9604 118.361 60.4912" stroke="black" stroke-width="0.637008" stroke-miterlimit="10"/>
<path d="M125.058 67.2615C125.058 67.2615 121.628 71.2673 121.656 72.819" stroke="black" stroke-width="0.637008" stroke-miterlimit="10"/>
<path d="M132.776 52.2183C132.437 53.7495 129.754 56.906 127.275 56.6365" stroke="black" stroke-width="0.637008" stroke-miterlimit="10"/>
<path d="M116.923 47.9838C116.135 47.2202 113.808 45.4399 111.79 45.8523C109.773 46.2647 109.3 45.3174 109.3 45.3174" stroke="black" stroke-width="0.637008" stroke-miterlimit="10"/>
<path d="M149.039 91.7087L152.351 98.0666" stroke="black" stroke-width="0.637008" stroke-miterlimit="10"/>
<path d="M159.346 88.0214C159.346 88.0214 160.412 85.4407 161.057 84.8813C161.465 84.5179 162.649 84.9303 163.433 85.2896C163.506 85.3191 163.568 85.3687 163.613 85.4325C163.658 85.4976 163.685 85.5738 163.691 85.653C163.698 85.7329 163.684 85.8135 163.648 85.8856C163.613 85.9577 163.558 86.0185 163.49 86.0613L162.265 86.8494C162.265 86.8494 162.233 88.1235 163.156 88.1725C163.793 88.1725 167.778 86.2165 169.934 85.1017C169.983 85.0855 170.036 85.0855 170.085 85.1017C170.135 85.1179 170.18 85.1493 170.212 85.1916C170.239 85.2353 170.252 85.2869 170.248 85.3386C170.245 85.3918 170.223 85.4421 170.187 85.4815C168.052 87.4783 165.695 90.3816 162.278 91.97" stroke="black" stroke-width="0.637008" stroke-miterlimit="10"/>
<path d="M162.27 86.821L174.316 81.1287C174.373 81.105 174.434 81.0912 174.495 81.0879C174.556 81.0882 174.615 81.1006 174.671 81.1245C174.726 81.1483 174.776 81.1831 174.818 81.2267C174.859 81.2711 174.89 81.3241 174.908 81.3819L175.1 81.9617C175.145 82.0801 175.145 82.2109 175.1 82.3293C175.052 82.4476 174.962 82.5437 174.847 82.5987L163.005 88.2706L162.27 86.821Z" fill="black"/>
<path d="M103.832 82.5212C103.832 82.5212 101.742 117.161 118.259 117.038L118.578 113.98C118.578 113.98 113.057 114.388 110.1 108.479C107.144 102.571 103.832 82.5212 103.832 82.5212Z" fill="black"/>
<path d="M117.985 83.5869L121.387 93.8811L120.979 97.0049L118.822 88.6258L117.985 83.5869Z" fill="black"/>
<path d="M116.217 63.1741L121.648 72.0432L114.927 64.4563L116.217 63.1741Z" fill="black"/>
<path d="M107.842 228.474C107.97 213.262 114.103 198.717 124.904 188.006C135.706 177.295 150.302 171.285 165.514 171.285C180.726 171.285 195.322 177.295 206.123 188.006C216.925 198.717 223.058 213.262 223.186 228.474H107.842Z" fill="#D0D1D0"/>
<path d="M121.587 117.728L158.501 224.713H151.69L95.6981 122.355L121.587 117.728Z" fill="black"/>
<path d="M285.004 228.261H-0.0159912" stroke="black" stroke-width="0.48184" stroke-miterlimit="10"/>
<path d="M153.258 228.164L151.906 224.721H158.746C161.482 224.721 163.001 225.816 165.104 227.114C165.188 227.157 165.254 227.227 165.293 227.313C165.331 227.399 165.338 227.496 165.313 227.587C165.288 227.678 165.232 227.757 165.155 227.812C165.079 227.866 164.985 227.892 164.891 227.886L153.258 228.164Z" stroke="black" stroke-width="0.408339" stroke-miterlimit="10"/>
<path d="M117.699 199.71L118.998 196.366L123.939 196.427C126.675 196.427 128.194 197.522 130.297 198.824C130.381 198.867 130.448 198.937 130.487 199.024C130.525 199.111 130.532 199.208 130.506 199.299C130.48 199.39 130.424 199.47 130.346 199.524C130.269 199.578 130.174 199.604 130.08 199.596L117.699 199.71Z" stroke="black" stroke-width="0.408339" stroke-miterlimit="10"/>
<path d="M128.798 136.981C120.195 139.207 107.846 140.158 97.8584 137.145C89.5936 134.646 86.3595 126.585 84.8282 117.136C88.2991 119.553 98.4668 117.818 114.188 117.479L149.138 117.887C150.256 117.901 151.354 118.186 152.338 118.718C153.322 119.25 154.162 120.012 154.787 120.941C155.411 121.869 155.8 122.935 155.922 124.046C156.043 125.158 155.892 126.283 155.483 127.324L125.303 196.472L118.982 196.366L137.198 133.686C135.36 134.874 132.404 136.038 128.782 136.981C120.178 139.207 107.83 140.158 97.8421 137.145" fill="black"/>
<path d="M130.354 138.782H88.1929C86.7902 138.782 85.6531 139.919 85.6531 141.322V142.233C85.6531 143.635 86.7902 144.773 88.1929 144.773H130.354C131.757 144.773 132.894 143.635 132.894 142.233V141.322C132.894 139.919 131.757 138.782 130.354 138.782Z" fill="white" stroke="black" stroke-width="0.526757" stroke-miterlimit="10"/>
<path d="M93.1991 144.862L80.3119 228.11" stroke="black" stroke-width="0.526757" stroke-miterlimit="10"/>
<path d="M126.728 144.862L139.615 228.11" stroke="black" stroke-width="0.526757" stroke-miterlimit="10"/>
<path d="M109.965 144.997V228.11" stroke="black" stroke-width="0.526757" stroke-miterlimit="10"/>
<path d="M85.2733 199.49L134.535 199.804" stroke="black" stroke-width="0.526757" stroke-miterlimit="10"/>
<path d="M118.573 113.984L118.214 117.671" stroke="black" stroke-width="0.637008" stroke-miterlimit="10"/>
<path d="M28.0817 201.005H55.5792L52.8433 228.11H30.1887L28.0817 201.005Z" stroke="black" stroke-width="0.408339" stroke-miterlimit="10"/>
<path d="M10.4614 228.751C11.0208 228.751 30.1106 222.218 30.1106 222.218L30.519 227.935L10.4614 228.751Z" fill="black"/>
<path d="M29.6375 167.631L41.1689 177.386C41.1689 177.386 40.9934 196.284 41.0097 197.554" stroke="black" stroke-width="0.408339" stroke-miterlimit="10"/>
<path d="M38.2573 174.924L41.3484 154.299L58.858 143.948" stroke="black" stroke-width="0.408339" stroke-miterlimit="10" stroke-linecap="round"/>
<path d="M48.556 150.04L34.015 122.253L19.0862 114.094" stroke="black" stroke-width="0.408339" stroke-miterlimit="10" stroke-linecap="round"/>
<path d="M35.3254 167.803C34.9171 168.297 33.8473 168.093 33.8473 168.093C33.8473 168.093 33.398 167.084 33.79 166.59C33.862 166.467 33.9595 166.361 34.076 166.28C34.1924 166.198 34.3251 166.142 34.465 166.116C34.6049 166.09 34.7487 166.094 34.8868 166.129C35.0248 166.163 35.1538 166.227 35.265 166.316C35.3762 166.405 35.4671 166.516 35.5314 166.643C35.5957 166.77 35.6319 166.909 35.6376 167.052C35.6434 167.194 35.6184 167.336 35.5646 167.467C35.5107 167.599 35.4291 167.718 35.3254 167.815V167.803Z" fill="black"/>
<path d="M33.7701 170.012C33.3618 169.526 33.7701 168.505 33.7701 168.505C33.7701 168.505 34.8481 168.277 35.2523 168.762C35.3585 168.857 35.4431 168.973 35.5002 169.104C35.5573 169.234 35.5855 169.375 35.5831 169.517C35.5807 169.659 35.5477 169.799 35.4862 169.928C35.4247 170.056 35.3363 170.169 35.2269 170.26C35.1176 170.351 34.9899 170.417 34.8526 170.454C34.7153 170.491 34.5716 170.498 34.4314 170.475C34.2911 170.451 34.1576 170.398 34.04 170.318C33.9223 170.238 33.8233 170.134 33.7497 170.012H33.7701Z" fill="black"/>
<path d="M32.0791 168.677C32.6549 168.938 33.5247 168.268 33.5247 168.268C33.5247 168.268 33.4593 167.166 32.8835 166.909C32.7644 166.833 32.6307 166.784 32.4911 166.765C32.3516 166.746 32.2095 166.756 32.0744 166.796C31.9394 166.837 31.8144 166.905 31.708 166.997C31.6015 167.09 31.5161 167.204 31.4573 167.332C31.3986 167.46 31.3679 167.599 31.3673 167.74C31.3668 167.881 31.3964 168.02 31.4541 168.149C31.5119 168.277 31.5964 168.392 31.7021 168.485C31.8078 168.578 31.9321 168.648 32.0669 168.689L32.0791 168.677Z" fill="black"/>
<path d="M27.8361 164.499C28.3057 164.908 28.0403 165.99 28.0403 165.99C28.0403 165.99 27.0072 166.398 26.5335 165.961C26.4118 165.884 26.3083 165.782 26.2302 165.661C26.1522 165.54 26.1014 165.403 26.0814 165.26C26.0614 165.118 26.0726 164.973 26.1144 164.835C26.1562 164.697 26.2275 164.57 26.3233 164.462C26.419 164.355 26.537 164.27 26.6691 164.212C26.8012 164.155 26.9443 164.127 27.0882 164.131C27.2321 164.134 27.3736 164.169 27.5027 164.233C27.6319 164.296 27.7456 164.387 27.8361 164.499Z" fill="black"/>
<path d="M29.9678 166.169C29.4615 166.545 28.4651 166.063 28.4651 166.063C28.4651 166.063 28.2977 164.973 28.804 164.597C28.9047 164.498 29.0257 164.421 29.1587 164.372C29.2917 164.323 29.4337 164.303 29.575 164.314C29.7163 164.325 29.8536 164.366 29.9777 164.434C30.1017 164.503 30.2096 164.597 30.2939 164.711C30.3782 164.825 30.4371 164.956 30.4665 165.095C30.4958 165.233 30.495 165.377 30.4641 165.515C30.4331 165.653 30.3727 165.783 30.2871 165.896C30.2015 166.009 30.0926 166.102 29.9678 166.169Z" fill="black"/>
<path d="M28.5267 167.803C28.8207 167.239 28.1878 166.333 28.1878 166.333C28.1878 166.333 27.0853 166.333 26.7913 166.896C26.7047 167.011 26.6442 167.144 26.6139 167.285C26.5837 167.425 26.5844 167.571 26.6161 167.712C26.6479 167.852 26.7098 167.984 26.7976 168.098C26.8854 168.212 26.997 168.306 27.1247 168.373C27.2523 168.439 27.393 168.477 27.5368 168.484C27.6806 168.491 27.8242 168.467 27.9576 168.412C28.091 168.358 28.211 168.275 28.3093 168.17C28.4076 168.065 28.4818 167.94 28.5267 167.803Z" fill="black"/>
<path d="M31.8221 174.471C32.1855 173.952 33.2797 174.095 33.2797 174.095C33.2797 174.095 33.7861 175.075 33.4268 175.594C33.3644 175.723 33.2745 175.838 33.1635 175.929C33.0525 176.021 32.9229 176.087 32.7838 176.123C32.6446 176.16 32.4993 176.165 32.3577 176.14C32.2161 176.115 32.0817 176.059 31.9639 175.976C31.8461 175.894 31.7476 175.787 31.6752 175.662C31.6029 175.538 31.5584 175.4 31.5449 175.256C31.5314 175.113 31.5492 174.969 31.597 174.833C31.6449 174.697 31.7217 174.574 31.8221 174.471Z" fill="black"/>
<path d="M33.2471 172.156C33.6799 172.617 33.3165 173.662 33.3165 173.662C33.3165 173.662 32.2507 173.956 31.8179 173.495C31.704 173.407 31.6104 173.296 31.5438 173.168C31.4773 173.041 31.4391 172.9 31.4322 172.757C31.4252 172.613 31.4496 172.47 31.5036 172.336C31.5575 172.203 31.6399 172.083 31.7448 171.985C31.8498 171.886 31.9748 171.812 32.1113 171.767C32.2478 171.722 32.3925 171.707 32.5354 171.723C32.6783 171.739 32.816 171.786 32.9388 171.861C33.0617 171.936 33.1669 172.036 33.2471 172.156Z" fill="black"/>
<path d="M35.0108 173.389C34.4228 173.164 33.5939 173.895 33.5939 173.895C33.5939 173.895 33.7205 174.994 34.3126 175.218C34.4369 175.291 34.5756 175.335 34.7189 175.349C34.8622 175.362 35.0068 175.345 35.1426 175.297C35.2784 175.249 35.4021 175.172 35.5052 175.072C35.6083 174.971 35.6882 174.849 35.7395 174.715C35.7909 174.58 35.8124 174.436 35.8025 174.293C35.7925 174.149 35.7515 174.009 35.6821 173.883C35.6128 173.757 35.5168 173.647 35.4009 173.562C35.285 173.477 35.1519 173.418 35.0108 173.389Z" fill="black"/>
<path d="M43.8268 169.693C43.198 169.62 42.8019 168.591 42.8019 168.591C42.8019 168.591 43.4267 167.676 44.0514 167.75C44.1956 167.742 44.3396 167.766 44.4735 167.82C44.6075 167.873 44.7281 167.956 44.8269 168.061C44.9258 168.166 45.0005 168.292 45.0458 168.429C45.0912 168.566 45.1061 168.711 45.0895 168.854C45.0729 168.998 45.0254 169.136 44.9499 169.259C44.8745 169.382 44.7732 169.487 44.653 169.567C44.5327 169.647 44.3965 169.7 44.2538 169.721C44.1111 169.743 43.9654 169.734 43.8268 169.693Z" fill="black"/>
<path d="M41.116 169.538C41.316 168.938 42.4063 168.766 42.4063 168.766C42.4063 168.766 43.1699 169.583 42.9698 170.159C42.945 170.299 42.8902 170.431 42.8094 170.548C42.7286 170.665 42.6236 170.763 42.5015 170.836C42.3794 170.908 42.243 170.953 42.1018 170.968C41.9606 170.984 41.8178 170.968 41.6831 170.923C41.5484 170.878 41.4251 170.804 41.3214 170.707C41.2178 170.61 41.1362 170.492 41.0824 170.36C41.0285 170.229 41.0037 170.088 41.0095 169.946C41.0153 169.804 41.0516 169.665 41.116 169.538Z" fill="black"/>
<path d="M41.3607 167.395C41.4423 168.023 42.4795 168.403 42.4795 168.403C42.4795 168.403 43.3819 167.77 43.2962 167.141C43.2981 167 43.2696 166.859 43.2124 166.73C43.1553 166.6 43.071 166.484 42.9651 166.39C42.8593 166.295 42.7345 166.225 42.599 166.183C42.4636 166.142 42.3207 166.13 42.1802 166.148C42.0397 166.166 41.9047 166.215 41.7846 166.29C41.6644 166.365 41.5618 166.465 41.4837 166.583C41.4056 166.701 41.3538 166.835 41.3319 166.975C41.3099 167.115 41.3183 167.258 41.3566 167.395H41.3607Z" fill="black"/>
<path d="M44.7049 158.411C44.0802 158.338 43.6841 157.309 43.6841 157.309C43.6841 157.309 44.3047 156.394 44.9335 156.467C45.0776 156.46 45.2215 156.485 45.3551 156.539C45.4888 156.593 45.6091 156.676 45.7075 156.781C45.806 156.886 45.8803 157.012 45.9253 157.149C45.9702 157.286 45.9848 157.431 45.9679 157.574C45.9511 157.718 45.9032 157.855 45.8277 157.978C45.7521 158.101 45.6507 158.206 45.5305 158.286C45.4102 158.365 45.2741 158.418 45.1315 158.439C44.9889 158.461 44.8434 158.451 44.7049 158.411Z" fill="black"/>
<path d="M42.0019 158.264C42.202 157.668 43.2922 157.492 43.2922 157.492C43.2922 157.492 44.0599 158.309 43.8558 158.889C43.8301 159.028 43.7747 159.16 43.6935 159.276C43.6122 159.392 43.507 159.489 43.3849 159.561C43.2628 159.633 43.1267 159.678 42.9859 159.692C42.845 159.707 42.7026 159.691 42.5683 159.646C42.4341 159.601 42.3113 159.527 42.208 159.43C42.1046 159.333 42.0233 159.215 41.9696 159.084C41.9159 158.953 41.891 158.812 41.8965 158.671C41.9021 158.529 41.938 158.39 42.0019 158.264Z" fill="black"/>
<path d="M42.2387 156.128C42.3203 156.753 43.3575 157.133 43.3575 157.133C43.3575 157.133 44.264 156.5 44.1742 155.871C44.1756 155.73 44.1465 155.589 44.089 155.46C44.0315 155.331 43.9468 155.215 43.8408 155.121C43.7348 155.028 43.6098 154.958 43.4745 154.916C43.3391 154.875 43.1965 154.863 43.0562 154.882C42.9158 154.9 42.7811 154.949 42.6612 155.024C42.5412 155.099 42.4389 155.199 42.361 155.318C42.2831 155.436 42.2315 155.569 42.2097 155.709C42.1879 155.849 42.1964 155.992 42.2346 156.128H42.2387Z" fill="black"/>
<path d="M45.3096 178.011C44.7216 178.244 43.8885 177.521 43.8885 177.521C43.8885 177.521 44.007 176.423 44.595 176.19C44.7181 176.12 44.8549 176.078 44.9959 176.065C45.137 176.053 45.279 176.071 45.4125 176.118C45.546 176.165 45.6678 176.241 45.7696 176.339C45.8714 176.437 45.9509 176.557 46.0026 176.688C46.0543 176.82 46.0771 176.962 46.0694 177.103C46.0617 177.245 46.0238 177.383 45.9581 177.508C45.8923 177.634 45.8004 177.743 45.6885 177.83C45.5766 177.917 45.4474 177.979 45.3096 178.011Z" fill="black"/>
<path d="M42.8469 179.134C42.7408 178.509 43.6186 177.844 43.6186 177.844C43.6186 177.844 44.6681 178.183 44.7743 178.807C44.8184 178.942 44.8328 179.085 44.8166 179.227C44.8005 179.368 44.754 179.504 44.6806 179.625C44.6071 179.747 44.5083 179.851 44.3909 179.931C44.2734 180.011 44.14 180.065 44 180.088C43.8599 180.112 43.7164 180.105 43.5792 180.069C43.4419 180.032 43.3143 179.966 43.2048 179.875C43.0954 179.785 43.0068 179.672 42.945 179.544C42.8832 179.416 42.8498 179.276 42.8469 179.134Z" fill="black"/>
<path d="M42.0544 177.133C42.4219 177.648 43.5163 177.492 43.5163 177.492C43.5163 177.492 44.0145 176.508 43.647 175.994C43.5834 175.865 43.4925 175.751 43.3805 175.66C43.2686 175.57 43.1382 175.505 42.9986 175.47C42.859 175.435 42.7134 175.431 42.5719 175.457C42.4305 175.484 42.2965 175.541 42.1794 175.625C42.0624 175.709 41.9649 175.817 41.8938 175.942C41.8228 176.068 41.7798 176.207 41.7679 176.35C41.756 176.494 41.7755 176.638 41.8249 176.773C41.8744 176.908 41.9527 177.031 42.0544 177.133Z" fill="black"/>
<path d="M37.5103 186.737C38.135 186.835 38.4943 187.881 38.4943 187.881C38.4943 187.881 37.841 188.767 37.2163 188.673C37.0722 188.675 36.9295 188.645 36.798 188.587C36.6664 188.528 36.5493 188.441 36.4546 188.333C36.36 188.224 36.2901 188.096 36.2499 187.958C36.2096 187.82 36.1999 187.674 36.2216 187.532C36.2432 187.389 36.2956 187.253 36.3751 187.133C36.4546 187.013 36.5593 186.912 36.6819 186.836C36.8046 186.76 36.9421 186.712 37.0852 186.695C37.2282 186.678 37.3733 186.693 37.5103 186.737Z" fill="black"/>
<path d="M40.2129 186.995C39.9884 187.587 38.8939 187.722 38.8939 187.722C38.8939 187.722 38.1589 186.905 38.3794 186.309C38.407 186.167 38.4652 186.034 38.5498 185.917C38.6343 185.8 38.7432 185.703 38.869 185.633C38.9948 185.563 39.1343 185.521 39.278 185.51C39.4217 185.499 39.5661 185.519 39.701 185.57C39.836 185.62 39.9583 185.7 40.0595 185.802C40.1607 185.905 40.2384 186.028 40.2871 186.164C40.3358 186.299 40.3545 186.444 40.3416 186.587C40.3288 186.731 40.2849 186.87 40.2129 186.995Z" fill="black"/>
<path d="M39.8864 189.122C39.8292 188.493 38.8083 188.073 38.8083 188.073C38.8083 188.073 37.8814 188.673 37.9386 189.298C37.9313 189.439 37.9545 189.581 38.0067 189.712C38.0588 189.844 38.1387 189.963 38.2409 190.061C38.3432 190.16 38.4653 190.235 38.599 190.281C38.7328 190.328 38.875 190.346 39.0161 190.333C39.1573 190.32 39.294 190.276 39.4169 190.206C39.5398 190.135 39.6462 190.039 39.7287 189.924C39.8113 189.809 39.868 189.677 39.8952 189.538C39.9224 189.399 39.9194 189.256 39.8864 189.118V189.122Z" fill="black"/>
<path d="M37.2036 157.888C37.6854 158.297 37.4486 159.375 37.4486 159.375C37.4486 159.375 36.4277 159.783 35.9418 159.375C35.8185 159.301 35.7127 159.201 35.6318 159.082C35.5508 158.964 35.4966 158.829 35.4728 158.687C35.4491 158.545 35.4565 158.4 35.4944 158.261C35.5323 158.123 35.5999 157.994 35.6925 157.884C35.785 157.774 35.9003 157.686 36.0304 157.625C36.1606 157.564 36.3024 157.532 36.4461 157.531C36.5898 157.53 36.732 157.561 36.8627 157.62C36.9935 157.68 37.1099 157.767 37.2036 157.876V157.888Z" fill="black"/>
<path d="M39.3802 159.514C38.8821 159.922 37.8775 159.448 37.8775 159.448C37.8775 159.448 37.6774 158.362 38.1756 157.974C38.2733 157.871 38.3922 157.79 38.5241 157.737C38.6559 157.684 38.7976 157.66 38.9395 157.667C39.0814 157.674 39.2203 157.711 39.3465 157.776C39.4728 157.841 39.5835 157.933 39.671 158.045C39.7586 158.157 39.821 158.286 39.854 158.425C39.887 158.563 39.8897 158.706 39.8621 158.846C39.8345 158.985 39.7771 159.117 39.694 159.232C39.6108 159.348 39.5038 159.443 39.3802 159.514Z" fill="black"/>
<path d="M37.996 161.163C38.2737 160.595 37.6204 159.705 37.6204 159.705C37.6204 159.705 36.5137 159.738 36.236 160.306C36.1526 160.423 36.0957 160.557 36.0694 160.699C36.043 160.84 36.0478 160.986 36.0834 161.126C36.119 161.265 36.1845 161.395 36.2755 161.507C36.3665 161.619 36.4808 161.709 36.6103 161.772C36.7398 161.836 36.8815 161.87 37.0255 161.872C37.1695 161.875 37.3124 161.847 37.4443 161.789C37.5762 161.731 37.6939 161.645 37.7892 161.537C37.8844 161.429 37.955 161.301 37.996 161.163Z" fill="black"/>
<path d="M16.4275 110.133C16.9134 110.541 16.6724 111.619 16.6724 111.619C16.6724 111.619 15.6516 112.028 15.1697 111.619C15.0495 111.545 14.9466 111.445 14.8683 111.327C14.7899 111.209 14.7378 111.076 14.7154 110.936C14.6931 110.796 14.7012 110.653 14.739 110.517C14.7767 110.38 14.8433 110.253 14.9344 110.145C15.0254 110.036 15.1387 109.949 15.2665 109.888C15.3944 109.827 15.5338 109.794 15.6754 109.792C15.817 109.79 15.9574 109.818 16.0871 109.875C16.2169 109.931 16.333 110.015 16.4275 110.121V110.133Z" fill="black"/>
<path d="M18.6079 111.758C18.1097 112.166 17.1011 111.693 17.1011 111.693C17.1011 111.693 16.9051 110.607 17.4033 110.215C17.5008 110.109 17.6203 110.025 17.7533 109.97C17.8863 109.915 18.0297 109.889 18.1736 109.895C18.3175 109.901 18.4584 109.938 18.5865 110.004C18.7146 110.07 18.8268 110.163 18.9154 110.276C19.004 110.39 19.0669 110.521 19.0995 110.662C19.1322 110.802 19.134 110.947 19.1047 111.088C19.0755 111.229 19.0159 111.362 18.9301 111.478C18.8443 111.594 18.7343 111.689 18.6079 111.758Z" fill="black"/>
<path d="M17.2198 113.408C17.4975 112.836 16.8441 111.95 16.8441 111.95C16.8441 111.95 15.7416 111.979 15.4639 112.546C15.3839 112.663 15.3298 112.796 15.3056 112.936C15.2814 113.076 15.2876 113.219 15.3237 113.356C15.3597 113.493 15.4248 113.621 15.5146 113.73C15.6044 113.84 15.7167 113.929 15.844 113.992C15.9712 114.054 16.1105 114.089 16.2522 114.092C16.3939 114.096 16.5348 114.07 16.6653 114.014C16.7958 113.959 16.9129 113.876 17.0086 113.772C17.1042 113.667 17.1763 113.543 17.2198 113.408Z" fill="black"/>
<path d="M19.5434 118.859C19.8782 118.324 20.9808 118.406 20.9808 118.406C20.9808 118.406 21.5402 119.358 21.2054 119.892C21.1506 120.026 21.0674 120.146 20.9616 120.244C20.8558 120.342 20.7298 120.416 20.5926 120.46C20.4553 120.505 20.31 120.519 20.1668 120.501C20.0236 120.483 19.8858 120.435 19.7633 120.359C19.6408 120.283 19.5363 120.181 19.4573 120.06C19.3782 119.939 19.3264 119.803 19.3054 119.66C19.2845 119.517 19.2949 119.372 19.336 119.233C19.3771 119.095 19.4479 118.967 19.5434 118.859Z" fill="black"/>
<path d="M20.8334 116.475C21.2908 116.911 20.9846 117.969 20.9846 117.969C20.9846 117.969 19.9352 118.324 19.4778 117.883C19.3622 117.801 19.2657 117.694 19.1949 117.571C19.1241 117.448 19.0807 117.311 19.0676 117.17C19.0545 117.029 19.0719 116.886 19.1188 116.752C19.1658 116.618 19.241 116.496 19.3395 116.394C19.4379 116.291 19.5573 116.211 19.6894 116.159C19.8215 116.107 19.9632 116.084 20.105 116.092C20.2468 116.1 20.3852 116.138 20.5109 116.204C20.6366 116.27 20.7466 116.362 20.8334 116.475Z" fill="black"/>
<path d="M22.6628 117.61C22.0626 117.414 21.2745 118.189 21.2745 118.189C21.2745 118.189 21.4623 119.28 22.0626 119.472C22.1899 119.534 22.329 119.568 22.4705 119.572C22.6121 119.575 22.7529 119.548 22.8832 119.493C23.0135 119.437 23.1303 119.355 23.2258 119.25C23.3213 119.145 23.3932 119.022 23.4367 118.887C23.4801 118.752 23.4941 118.61 23.4776 118.469C23.4612 118.328 23.4147 118.193 23.3414 118.072C23.268 117.95 23.1694 117.847 23.0523 117.767C22.9353 117.687 22.8024 117.634 22.6628 117.61Z" fill="black"/>
<path d="M29.7883 115.813C29.4984 116.373 28.3917 116.377 28.3917 116.377C28.3917 116.377 27.7589 115.474 28.0488 114.911C28.094 114.774 28.1681 114.65 28.2662 114.545C28.3643 114.44 28.4841 114.358 28.617 114.304C28.75 114.25 28.893 114.225 29.0364 114.232C29.1798 114.238 29.3201 114.276 29.4476 114.342C29.575 114.408 29.6866 114.501 29.7746 114.615C29.8626 114.728 29.9249 114.859 29.9573 114.999C29.9897 115.139 29.9914 115.284 29.9622 115.425C29.933 115.565 29.8737 115.698 29.7883 115.813Z" fill="black"/>
<path d="M28.6821 118.296C28.1921 117.887 28.4167 116.814 28.4167 116.814C28.4167 116.814 29.4335 116.381 29.9194 116.781C30.0448 116.851 30.1535 116.948 30.2376 117.065C30.3217 117.181 30.3794 117.315 30.4065 117.456C30.4336 117.597 30.4296 117.743 30.3947 117.882C30.3598 118.022 30.2949 118.152 30.2044 118.264C30.114 118.376 30.0003 118.467 29.8712 118.53C29.742 118.593 29.6006 118.628 29.4568 118.631C29.313 118.634 29.1703 118.605 29.0386 118.547C28.9069 118.49 28.7894 118.404 28.6944 118.296H28.6821Z" fill="black"/>
<path d="M26.7704 117.308C27.3829 117.45 28.1098 116.617 28.1098 116.617C28.1098 116.617 27.8362 115.548 27.2196 115.392C27.0868 115.338 26.9437 115.312 26.8001 115.318C26.6566 115.324 26.516 115.361 26.3881 115.427C26.2603 115.492 26.1482 115.585 26.0596 115.698C25.9711 115.811 25.9081 115.942 25.8752 116.082C25.8422 116.222 25.8401 116.367 25.8688 116.508C25.8976 116.649 25.9565 116.782 26.0417 116.898C26.1268 117.013 26.2361 117.109 26.3619 117.179C26.4877 117.248 26.6271 117.289 26.7704 117.299V117.308Z" fill="black"/>
<path d="M37.8693 121.191C37.3752 121.599 36.3667 121.142 36.3667 121.142C36.3667 121.142 36.1543 120.056 36.6484 119.664C36.7454 119.561 36.8633 119.48 36.9941 119.427C37.1249 119.374 37.2656 119.35 37.4067 119.355C37.5477 119.361 37.6859 119.397 37.8119 119.461C37.9379 119.524 38.0489 119.614 38.1372 119.724C38.2255 119.834 38.2892 119.962 38.324 120.099C38.3588 120.236 38.364 120.379 38.339 120.518C38.314 120.657 38.2595 120.788 38.1792 120.905C38.0989 121.021 37.9946 121.118 37.8734 121.191H37.8693Z" fill="black"/>
<path d="M35.8521 123.008C35.5663 122.445 36.2115 121.546 36.2115 121.546C36.2115 121.546 37.314 121.546 37.5998 122.13C37.681 122.246 37.7363 122.379 37.7618 122.518C37.7873 122.658 37.7825 122.801 37.7477 122.938C37.713 123.076 37.6491 123.204 37.5603 123.315C37.4716 123.425 37.36 123.515 37.2333 123.579C37.1066 123.643 36.9678 123.678 36.8261 123.684C36.6844 123.689 36.5432 123.663 36.4122 123.609C36.2811 123.555 36.1634 123.473 36.0667 123.37C35.9701 123.266 35.8969 123.143 35.8521 123.008Z" fill="black"/>
<path d="M34.5048 121.33C35.007 121.714 36.0075 121.244 36.0075 121.244C36.0075 121.244 36.1913 120.154 35.689 119.774C35.5898 119.672 35.4699 119.593 35.3374 119.542C35.2049 119.491 35.063 119.469 34.9213 119.478C34.7796 119.487 34.6415 119.526 34.5163 119.593C34.3911 119.66 34.2817 119.753 34.1957 119.866C34.1098 119.979 34.0492 120.109 34.018 120.248C33.9868 120.386 33.9859 120.53 34.0152 120.669C34.0445 120.808 34.1035 120.938 34.188 121.053C34.2725 121.167 34.3805 121.261 34.5048 121.33Z" fill="black"/>
<path d="M44.2315 133.543C43.7374 133.952 42.7248 133.494 42.7248 133.494C42.7248 133.494 42.5165 132.408 43.0065 132.016C43.1026 131.909 43.2209 131.824 43.3532 131.767C43.4855 131.71 43.6286 131.682 43.7726 131.686C43.9166 131.69 44.058 131.725 44.187 131.789C44.316 131.853 44.4295 131.945 44.5196 132.057C44.6097 132.17 44.6744 132.3 44.7089 132.44C44.7435 132.58 44.7471 132.726 44.7197 132.867C44.6923 133.008 44.6344 133.142 44.5501 133.259C44.4658 133.376 44.3571 133.473 44.2315 133.543Z" fill="black"/>
<path d="M42.214 135.36C41.9282 134.797 42.5692 133.898 42.5692 133.898C42.5692 133.898 43.6759 133.898 43.9617 134.482C44.0429 134.599 44.0982 134.731 44.1237 134.87C44.1493 135.01 44.1444 135.153 44.1097 135.291C44.0749 135.428 44.011 135.556 43.9223 135.667C43.8335 135.778 43.722 135.868 43.5953 135.931C43.4686 135.995 43.3296 136.031 43.1879 136.036C43.0462 136.041 42.9051 136.016 42.7741 135.962C42.6431 135.907 42.5252 135.826 42.4286 135.722C42.3319 135.618 42.2588 135.495 42.214 135.36Z" fill="black"/>
<path d="M40.8662 133.682C41.3685 134.066 42.3689 133.596 42.3689 133.596C42.3689 133.596 42.5527 132.506 42.0505 132.126C41.9513 132.025 41.8313 131.946 41.6989 131.895C41.5664 131.844 41.4245 131.822 41.2828 131.83C41.1411 131.839 41.0029 131.878 40.8777 131.945C40.7525 132.012 40.6432 132.105 40.5572 132.218C40.4712 132.331 40.4106 132.461 40.3794 132.6C40.3483 132.738 40.3473 132.882 40.3767 133.021C40.406 133.16 40.4649 133.291 40.5494 133.405C40.6339 133.519 40.7419 133.613 40.8662 133.682Z" fill="black"/>
<path d="M28.6448 124.143C29.0531 123.657 30.1311 123.894 30.1311 123.894C30.1311 123.894 30.5394 124.911 30.1311 125.397C30.0584 125.521 29.9594 125.629 29.841 125.711C29.7226 125.793 29.5876 125.849 29.4455 125.874C29.3034 125.899 29.1576 125.893 29.0182 125.855C28.8788 125.818 28.7493 125.751 28.6385 125.659C28.5277 125.566 28.4384 125.451 28.3768 125.32C28.3152 125.19 28.2828 125.048 28.2819 124.903C28.2809 124.759 28.3115 124.616 28.3713 124.485C28.4312 124.354 28.5189 124.237 28.6284 124.143H28.6448Z" fill="black"/>
<path d="M30.2619 121.959C30.6702 122.457 30.2007 123.465 30.2007 123.465C30.2007 123.465 29.1144 123.665 28.7265 123.171C28.6228 123.074 28.5412 122.955 28.4874 122.824C28.4335 122.692 28.4087 122.55 28.4144 122.408C28.4201 122.266 28.4563 122.127 28.5206 122C28.5848 121.873 28.6757 121.761 28.7869 121.672C28.8982 121.584 29.0271 121.52 29.1652 121.485C29.3032 121.451 29.4471 121.447 29.587 121.472C29.7269 121.498 29.8595 121.554 29.976 121.636C30.0924 121.718 30.1899 121.824 30.2619 121.946V121.959Z" fill="black"/>
<path d="M31.9158 123.339C31.3441 123.061 30.458 123.722 30.458 123.722C30.458 123.722 30.4948 124.825 31.0623 125.099C31.1797 125.178 31.3128 125.231 31.4525 125.255C31.5923 125.278 31.7355 125.272 31.8724 125.235C32.0093 125.198 32.1367 125.132 32.246 125.042C32.3552 124.952 32.4438 124.839 32.5057 124.712C32.5675 124.584 32.6012 124.445 32.6045 124.303C32.6077 124.161 32.5804 124.021 32.5244 123.89C32.4685 123.76 32.3852 123.643 32.2802 123.548C32.1752 123.453 32.0509 123.382 31.9158 123.339Z" fill="black"/>
<path d="M39.5517 142.963C39.96 142.482 41.038 142.714 41.038 142.714C41.038 142.714 41.4463 143.735 41.038 144.221C40.9644 144.344 40.8649 144.45 40.7465 144.531C40.628 144.613 40.4933 144.667 40.3518 144.691C40.2102 144.715 40.0652 144.708 39.9266 144.67C39.788 144.633 39.6592 144.566 39.5491 144.474C39.439 144.381 39.3502 144.266 39.2889 144.137C39.2275 144.007 39.1951 143.865 39.1938 143.722C39.1925 143.578 39.2223 143.436 39.2813 143.305C39.3403 143.174 39.4269 143.058 39.5353 142.963H39.5517Z" fill="black"/>
<path d="M41.185 140.779C41.5933 141.277 41.1238 142.286 41.1238 142.286C41.1238 142.286 40.0375 142.49 39.6496 141.992C39.5459 141.894 39.4643 141.776 39.4105 141.644C39.3566 141.512 39.3317 141.371 39.3375 141.228C39.3432 141.086 39.3794 140.947 39.4436 140.82C39.5079 140.693 39.5988 140.581 39.71 140.493C39.8212 140.404 39.9502 140.34 40.0883 140.306C40.2263 140.271 40.3702 140.267 40.5101 140.293C40.6499 140.319 40.7826 140.375 40.8991 140.456C41.0155 140.538 41.113 140.644 41.185 140.767V140.779Z" fill="black"/>
<path d="M42.8186 142.159C42.251 141.885 41.3608 142.543 41.3608 142.543C41.3608 142.543 41.3976 143.645 41.9693 143.919C42.0867 143.999 42.2201 144.053 42.3604 144.077C42.5006 144.101 42.6443 144.095 42.7818 144.058C42.9192 144.021 43.0471 143.955 43.1567 143.865C43.2663 143.774 43.3551 143.661 43.4169 143.533C43.4787 143.404 43.5122 143.265 43.515 143.122C43.5178 142.98 43.4897 142.839 43.4329 142.709C43.3761 142.578 43.2918 142.461 43.1858 142.367C43.0798 142.272 42.9546 142.201 42.8186 142.159Z" fill="black"/>
<path d="M33.9533 130.011C34.5699 129.872 35.2886 130.709 35.2886 130.709C35.2886 130.709 35.0069 131.779 34.3903 131.934C34.2569 131.99 34.113 132.015 33.9688 132.009C33.8245 132.003 33.6832 131.966 33.5548 131.9C33.4265 131.834 33.3141 131.74 33.2256 131.626C33.137 131.512 33.0744 131.38 33.0421 131.24C33.0099 131.099 33.0088 130.953 33.0388 130.811C33.0689 130.67 33.1294 130.537 33.2162 130.422C33.3029 130.306 33.4139 130.211 33.5412 130.143C33.6685 130.075 33.8091 130.035 33.9533 130.027V130.011Z" fill="black"/>
<path d="M36.5625 129.251C36.5625 129.88 35.603 130.411 35.603 130.411C35.603 130.411 34.6147 129.917 34.6066 129.284C34.584 129.144 34.5919 129.001 34.6295 128.865C34.6671 128.728 34.7337 128.601 34.8247 128.493C34.9156 128.384 35.0289 128.296 35.1568 128.235C35.2846 128.174 35.424 128.141 35.5657 128.139C35.7073 128.137 35.8479 128.165 35.9777 128.221C36.1075 128.278 36.2236 128.362 36.3182 128.468C36.4127 128.573 36.4835 128.698 36.5256 128.833C36.5678 128.968 36.5803 129.111 36.5625 129.251Z" fill="black"/>
<path d="M37.0446 131.346C36.7587 130.787 35.6521 130.771 35.6521 130.771C35.6521 130.771 35.0151 131.673 35.3009 132.236C35.3445 132.374 35.4175 132.5 35.5148 132.606C35.6121 132.712 35.7313 132.796 35.8642 132.852C35.9971 132.907 36.1405 132.933 36.2845 132.928C36.4285 132.922 36.5695 132.885 36.6978 132.82C36.8261 132.754 36.9386 132.662 37.0275 132.548C37.1164 132.435 37.1796 132.304 37.2125 132.163C37.2455 132.023 37.2476 131.877 37.2186 131.736C37.1896 131.595 37.1302 131.462 37.0446 131.346Z" fill="black"/>
<path d="M62.178 143.47C61.59 143.707 60.7488 142.992 60.7488 142.992C60.7488 142.992 60.8591 141.894 61.4471 141.657C61.5696 141.585 61.7061 141.54 61.8475 141.526C61.9888 141.511 62.1316 141.528 62.2661 141.574C62.4006 141.619 62.5236 141.694 62.6268 141.791C62.73 141.889 62.8108 142.008 62.8639 142.139C62.9171 142.271 62.9412 142.413 62.9346 142.555C62.928 142.697 62.8909 142.836 62.8258 142.962C62.7607 143.088 62.6691 143.199 62.5573 143.286C62.4455 143.374 62.3161 143.437 62.178 143.47Z" fill="black"/>
<path d="M59.7236 144.633C59.6134 144.013 60.4832 143.335 60.4832 143.335C60.4832 143.335 61.5368 143.67 61.647 144.291C61.6929 144.425 61.7091 144.568 61.6946 144.71C61.68 144.852 61.635 144.989 61.5627 145.111C61.4903 145.234 61.3923 145.339 61.2754 145.421C61.1584 145.502 61.0253 145.557 60.8851 145.582C60.7449 145.607 60.6009 145.601 60.4631 145.566C60.3252 145.53 60.1968 145.465 60.0865 145.375C59.9762 145.284 59.8867 145.172 59.824 145.044C59.7614 144.916 59.7272 144.776 59.7236 144.633Z" fill="black"/>
<path d="M58.9154 142.641C59.287 143.151 60.3814 142.988 60.3814 142.988C60.3814 142.988 60.8673 142 60.4957 141.489C60.4297 141.364 60.3375 141.254 60.2252 141.167C60.1129 141.08 59.9832 141.019 59.8449 140.986C59.7067 140.954 59.5631 140.952 59.424 140.98C59.285 141.009 59.1536 141.067 59.0389 141.15C58.9242 141.234 58.8288 141.341 58.7593 141.465C58.6898 141.589 58.6478 141.726 58.6361 141.867C58.6244 142.009 58.6432 142.151 58.6914 142.285C58.7396 142.418 58.816 142.54 58.9154 142.641Z" fill="black"/>
<path d="M56.7018 150.681C56.0934 150.51 55.8606 149.432 55.8606 149.432C55.8606 149.432 56.6201 148.615 57.2286 148.795C57.3715 148.811 57.5093 148.857 57.6323 148.932C57.7554 149.006 57.8608 149.106 57.9413 149.226C58.0217 149.345 58.0754 149.48 58.0984 149.622C58.1214 149.764 58.1133 149.909 58.0747 150.048C58.036 150.186 57.9676 150.315 57.8744 150.424C57.7811 150.534 57.6652 150.622 57.5346 150.682C57.404 150.742 57.2619 150.773 57.1181 150.773C56.9743 150.773 56.8323 150.742 56.7018 150.681Z" fill="black"/>
<path d="M54.064 150.105C54.3539 149.546 55.4564 149.542 55.4564 149.542C55.4564 149.542 56.0893 150.448 55.7994 151.008C55.7527 151.141 55.6777 151.264 55.5796 151.366C55.4815 151.468 55.3626 151.548 55.2309 151.6C55.0992 151.653 54.9577 151.676 54.8162 151.669C54.6746 151.662 54.5363 151.624 54.4106 151.559C54.2849 151.493 54.1747 151.402 54.0875 151.29C54.0003 151.178 53.9382 151.049 53.9053 150.911C53.8724 150.773 53.8695 150.63 53.8969 150.491C53.9243 150.352 53.9813 150.22 54.064 150.105Z" fill="black"/>
<path d="M54.6604 148.031C54.6604 148.664 55.6078 149.203 55.6078 149.203C55.6078 149.203 56.6001 148.717 56.6164 148.084C56.6443 147.942 56.6411 147.796 56.6068 147.656C56.5725 147.516 56.508 147.385 56.4179 147.272C56.3278 147.16 56.2142 147.068 56.085 147.004C55.9558 146.939 55.8141 146.904 55.6698 146.9C55.5255 146.896 55.3821 146.924 55.2496 146.981C55.1171 147.038 54.9987 147.124 54.9026 147.231C54.8065 147.339 54.7351 147.466 54.6932 147.604C54.6514 147.742 54.6402 147.888 54.6604 148.031Z" fill="black"/>
<path d="M52.402 143.711C52.3612 144.34 51.3567 144.793 51.3567 144.793C51.3567 144.793 50.4093 144.225 50.4461 143.592C50.432 143.45 50.4491 143.305 50.4961 143.17C50.5432 143.034 50.6192 142.91 50.7187 142.807C50.8183 142.703 50.9392 142.623 51.0729 142.571C51.2067 142.518 51.3502 142.496 51.4935 142.504C51.6369 142.513 51.7766 142.553 51.9031 142.621C52.0296 142.689 52.1398 142.783 52.2262 142.898C52.3126 143.013 52.3731 143.145 52.4034 143.285C52.4338 143.425 52.4333 143.571 52.402 143.711Z" fill="black"/>
<path d="M52.3978 146.406C51.7894 146.238 51.5525 145.181 51.5525 145.181C51.5525 145.181 52.308 144.364 52.9164 144.54C53.06 144.554 53.1988 144.6 53.323 144.673C53.4472 144.747 53.5539 144.847 53.6356 144.966C53.7172 145.085 53.7719 145.22 53.7959 145.362C53.8198 145.505 53.8123 145.651 53.774 145.79C53.7358 145.929 53.6676 146.058 53.5742 146.168C53.4809 146.279 53.3647 146.367 53.2337 146.428C53.1027 146.488 52.96 146.519 52.8156 146.519C52.6712 146.519 52.5286 146.487 52.3978 146.426V146.406Z" fill="black"/>
<path d="M50.2502 146.279C50.8708 146.165 51.1935 145.107 51.1935 145.107C51.1935 145.107 50.5075 144.242 49.8868 144.356C49.7427 144.359 49.6009 144.393 49.4714 144.457C49.3419 144.52 49.2278 144.611 49.137 144.723C49.0462 144.835 48.9808 144.965 48.9455 145.105C48.9102 145.245 48.9058 145.391 48.9325 145.532C48.9593 145.674 49.0166 145.808 49.1005 145.925C49.1844 146.042 49.2928 146.14 49.4182 146.211C49.5436 146.282 49.683 146.325 49.8267 146.337C49.9704 146.349 50.1149 146.329 50.2502 146.279Z" fill="black"/>
<path d="M25.8807 197.554H57.7066C57.8164 197.554 57.9249 197.579 58.024 197.626C58.1232 197.673 58.2104 197.742 58.2796 197.827C58.3489 197.913 58.3983 198.012 58.4242 198.119C58.4501 198.226 58.4518 198.337 58.4294 198.444L58.0006 200.425C57.9644 200.589 57.8736 200.735 57.743 200.841C57.6124 200.946 57.4498 201.004 57.2819 201.005H26.628C26.4782 201.004 26.3322 200.958 26.209 200.873C26.0859 200.787 25.9913 200.667 25.9378 200.527L25.1907 198.551C25.1492 198.439 25.1353 198.319 25.1502 198.201C25.165 198.083 25.2081 197.97 25.2759 197.872C25.3436 197.775 25.434 197.695 25.5393 197.639C25.6446 197.584 25.7617 197.555 25.8807 197.554Z" stroke="black" stroke-width="0.408339" stroke-miterlimit="10"/>
<path d="M28.4043 204.116C28.7595 204.116 55.5833 201.005 55.5833 201.005H28.0817L28.4043 204.116Z" fill="black"/>
<path d="M261.827 228.11V33.4594C261.828 29.0957 260.968 24.7746 259.299 20.7429C257.629 16.7112 255.182 13.0478 252.097 9.96204C249.011 6.87624 245.348 4.42839 241.317 2.75835C237.285 1.0883 232.964 0.22876 228.6 0.22876H192.442" stroke="black" stroke-width="0.408339" stroke-miterlimit="10"/>
<path d="M157.125 9.93497H233.178L207.179 1.93154C198.536 -0.730219 189.28 -0.641756 180.69 2.18471L157.125 9.93497Z" fill="black"/>
<path d="M40.1068 162.347C99.1281 177.293 186.521 235.469 281.37 138.929" stroke="black" stroke-width="0.408339" stroke-miterlimit="10"/>
<path d="M200.327 77.5435C210.137 77.5435 218.09 69.5909 218.09 59.7808C218.09 49.9707 210.137 42.0181 200.327 42.0181C190.517 42.0181 182.564 49.9707 182.564 59.7808C182.564 69.5909 190.517 77.5435 200.327 77.5435Z" stroke="black" stroke-width="0.408339" stroke-miterlimit="10"/>
<path d="M200.327 47.7715V59.7807H211.462" stroke="black" stroke-width="0.408339" stroke-miterlimit="10"/>
</g>
<defs>
<clipPath id="clip0_705_9613">
<rect width="285" height="228.755" fill="white"/>
</clipPath>
</defs>
</svg>
