<svg width="234" height="290" viewBox="0 0 234 290" fill="none" xmlns="http://www.w3.org/2000/svg">
<path d="M184.39 16.963L179.767 50.3788C179.715 50.7555 179.974 51.1046 180.35 51.1638L215.503 56.703C215.927 56.7699 216.311 56.441 216.309 56.0113L216.147 8.20797C216.146 7.74378 215.7 7.41046 215.254 7.54031L184.886 16.3886C184.622 16.4655 184.428 16.6905 184.39 16.963Z" stroke="black" stroke-width="1.7447"/>
<path d="M219.801 9.89803L215.962 6.75757L215.614 57.5284L223.639 55.9581L219.801 9.89803Z" fill="black"/>
<path d="M219.802 10.7703H224.475C224.818 10.7703 225.111 11.0203 225.164 11.3597L231.89 54.1269C231.956 54.5451 231.637 54.925 231.214 54.9331L223.231 55.0857" stroke="black" stroke-width="1.7447" stroke-linecap="round"/>
<path d="M199.562 11.8171C200.284 8.53504 203.011 2.1352 208.142 2.79149C210.891 3.14307 212.473 6.31967 212.473 7.87864" stroke="black" stroke-width="1.7447" stroke-linecap="round"/>
<path d="M192.585 13.9108C193.388 9.97383 196.558 1.41273 202.477 1.01083C206.633 0.728601 208.046 6.02533 207.464 9.54338" stroke="black" stroke-width="1.7447" stroke-linecap="round"/>
<path d="M67.3149 207.922L73.5959 208.807V223.534C73.5959 223.759 73.3871 223.925 73.1685 223.874L67.5854 222.586C67.4271 222.55 67.3149 222.409 67.3149 222.246V207.922Z" fill="black"/>
<path d="M83.2387 204.432L61.5562 206.526L86.9852 210.713L109.409 208.619L83.2387 204.432Z" fill="black"/>
<path d="M55.4507 206.236L87.4181 211.078M55.4507 206.236V251.696C55.4507 251.773 55.5006 251.84 55.5739 251.863L87.4181 261.658M55.4507 206.236L82.1446 204.607M87.4181 211.078L118.788 208.459C118.882 208.451 118.966 208.52 118.976 208.615L123.652 252.957C123.662 253.044 123.604 253.124 123.519 253.145L87.4181 261.658M87.4181 211.078V261.658" stroke="black" stroke-width="1.7447" stroke-linecap="round"/>
<path d="M121.74 278.585C118.111 283.331 130.812 289.053 137.791 287.483C130.114 283.296 130.871 279.981 131.161 278.585C129.533 276.608 125.369 273.84 121.74 278.585Z" fill="black"/>
<path d="M133.616 270.442C132.034 274.001 129.817 281.73 133.616 284.17C138.365 287.221 139.948 288.746 145.489 287.983C151.029 287.221 152.612 286.458 149.446 284.17C146.28 281.882 143.212 278.138 144.003 268.986" stroke="black" stroke-width="1.7447" stroke-linecap="round"/>
<path d="M128.974 262.538C121.574 248.399 121.226 226.241 118.965 208.056C98.4236 209.277 85.6752 208.164 79.2893 201.884C70.5022 193.244 72.8266 183.777 72.8266 175.364C80.8352 180.979 78.2069 173.725 110.583 173.725C140.788 175.4 149.521 219.437 150.113 241.245C150.727 250.707 149.813 259.242 145.528 262.538C136.92 269.16 130.887 266.195 128.974 262.538Z" fill="black"/>
<path d="M109.167 121.036C117.777 104.863 111.157 97.9752 107.106 94.865C107.585 107.112 99.5123 113.691 95.2303 115.373V119.291C95.9876 118.298 105.361 118.874 109.167 121.036Z" fill="black"/>
<path d="M54.5747 115.074C60.3148 120.512 65.2366 120.435 67.4783 120.687C75.7847 120.687 79.4469 119.847 82.5458 118.728L80.5738 112.852C76.4288 109.867 73.9292 105.058 72.9675 102.779C71.8872 103.69 70.3682 103.86 69.587 102.779C68.9597 102.182 67.6581 99.9635 67.8967 96.6228C68.1352 93.2824 70.1497 93.6569 71.3364 94.5229L77.2649 95.1598C77.0154 89.6367 80.4302 87.7937 82.1688 87.5626C80.8025 84.5031 83.2462 83.1645 84.5323 82.6388C86.3771 84.8928 88.7946 85.8008 89.817 86.2231C100.221 88.9367 106.572 85.2217 109.503 80.5849C112.686 75.9041 112.17 64.9125 103.169 62.2368C100.225 61.1075 93.2469 60.1817 88.8818 65.5119C76.0321 60.8041 69.9504 74.278 68.282 79.1707L66.3539 83.6317C49.6083 87.183 48.1345 102.973 51.0759 109.888C52.4094 113.024 52.5849 113.19 54.4864 114.991L54.5747 115.074Z" fill="black"/>
<path d="M76.8604 95.4443C77.5623 99.4072 81.0036 102.008 84.4431 101.409C87.8826 100.81 90.224 97.2016 89.5218 93.2387C88.8199 89.2758 85.3786 86.6748 81.9391 87.2739C78.4996 87.8733 76.1582 91.4815 76.8604 95.4443Z" stroke="black" stroke-width="1.7447"/>
<path d="M95.3336 95.4444C95.9217 99.4072 98.805 102.008 101.687 101.409C104.569 100.81 106.53 97.2016 105.942 93.2387C105.354 89.2758 102.471 86.6748 99.5888 87.2739C96.7071 87.8733 94.7455 91.4815 95.3336 95.4444Z" stroke="black" stroke-width="1.7447"/>
<path d="M94.5317 94.167L89.6466 94.8649" stroke="black" stroke-width="1.7447" stroke-linecap="round"/>
<path d="M94.5317 109.869C93.4532 111.542 90.7568 112.77 88.5998 109.869" stroke="black" stroke-width="1.7447" stroke-linecap="round"/>
<path d="M92.437 100.099C93.9271 103.335 94.4027 104.953 92.9757 106.031" stroke="black" stroke-width="1.7447" stroke-linecap="round"/>
<path d="M102.783 99.9204C101.73 100.105 100.726 99.4017 100.541 98.3487C100.356 97.2957 101.06 96.2921 102.113 96.1071C103.166 95.9222 104.169 96.6258 104.354 97.6788C104.539 98.7318 103.836 99.7354 102.783 99.9204Z" fill="black"/>
<path d="M86.6204 100.401C85.5674 100.586 84.5639 99.8824 84.3789 98.8294C84.1939 97.7764 84.8976 96.7728 85.9506 96.5879C87.0036 96.4029 88.0071 97.1066 88.1921 98.1595C88.3771 99.2125 87.6734 100.216 86.6204 100.401Z" fill="black"/>
<path d="M70.7097 98.3035C70.8963 98.5557 71.3267 99.1375 71.5558 99.4472" stroke="black" stroke-width="1.7447" stroke-linecap="round"/>
<path d="M103.965 85.0945C108.488 94.6609 108.98 102.453 99.5468 112.211C90.114 121.969 80.002 112.817 76.1252 107.021L73.5967 103.265" stroke="black" stroke-width="1.7447" stroke-linecap="round"/>
<path d="M76.3501 94.3557L72.1748 94.4967" stroke="black" stroke-width="1.7447" stroke-linecap="round"/>
<path d="M121.754 143.368C124.955 147.065 128.76 160.764 118.959 170.236" stroke="black" stroke-width="1.7447" stroke-linecap="round"/>
<path d="M116.341 132.027C116.341 122.257 103.559 118.473 95.3804 119.906C93.005 121.679 86.943 124.163 81.6982 119.906C77.6125 120.373 68.757 122.541 66.0206 127.471C59.0845 138.957 55.4739 169.212 77.4225 177.336" stroke="black" stroke-width="1.7447" stroke-linecap="round"/>
<path d="M77.784 143.368C80.5839 147.741 81.5398 154.325 81.2981 158.483C81.29 158.622 81.4508 158.709 81.5626 158.626C87.9002 153.901 102.363 154.787 105.738 157.237C108.48 159.228 106.482 161.937 104.863 163.665C100.401 168.427 93.5658 173.043 89.1246 175.121" stroke="black" stroke-width="1.7447" stroke-linecap="round"/>
<path d="M123.042 136.164C125.387 137.583 123.58 144.165 122.603 146.802L121.753 146.504L121.991 145.471L121.911 144.439C121.472 143.348 118.935 142.529 117.47 144.439C116.038 146.305 114.219 147.905 113.227 148.302C109.359 150.375 110.052 146.984 110.883 145.029C111.371 144.12 112.758 141.02 113.227 138.074C113.695 135.128 115.717 134.8 116.889 134.664C117.964 134.573 120.698 134.746 123.042 136.164Z" fill="black"/>
<path d="M116.166 132.581C117.04 132.452 118.095 132.714 118.714 133.796C118.847 134.03 118.935 134.31 118.958 134.644" stroke="black" stroke-width="1.7447" stroke-linecap="round"/>
<path d="M111.885 144.414C111.021 143.823 110.626 142.937 109.886 141.428C109.145 139.391 108.716 138.209 108.256 136.505C108.157 135.958 107.804 134.472 109.145 134.317C110.33 134.18 110.478 135.137 110.626 135.821C111.071 138.209 113.038 137.782 113.038 136.141C113.038 134.5 113.038 133.186 112.536 131.218C112.271 130.181 111.596 128.014 114.025 128.014C115.77 128.014 115.909 129.613 116.166 132.348" stroke="black" stroke-width="1.7447" stroke-linecap="round"/>
<path d="M121.562 161C117.484 167.791 114.243 165.979 109 169.375" stroke="black" stroke-width="1.7447" stroke-linecap="round"/>
<path d="M103.953 154.185C104.437 151.591 106.852 149.986 107.939 145.292C108.313 143.68 108.785 142.205 110.234 142.328" stroke="black" stroke-width="1.7447" stroke-linecap="round"/>
<path d="M157.69 251.031C159.083 255.757 163.204 264.894 168.551 263.634C173.898 262.374 181.918 257.858 185.26 255.757C188.601 253.132 191.108 248.511 174.399 251.031C173.285 251.031 171.057 250.086 171.057 246.305" stroke="black" stroke-width="1.7447" stroke-linecap="round"/>
<path d="M59.2307 193.649C51.8563 195.648 43.8674 207.254 40.7947 212.807C45.4037 212.251 55.8508 209.308 60.7671 201.979C65.6833 194.649 61.7913 193.372 59.2307 193.649Z" fill="black"/>
<path d="M55.8953 174.128C48.4988 174.886 43.179 193.436 40.7947 201.99C46.0931 197.59 56.5311 188.792 59.0743 185.859C63.843 180.36 63.0482 173.395 55.8953 174.128Z" fill="black"/>
<path d="M33.1091 168.197C29.0791 174.757 37.8115 184.613 41.8418 191.172L41.8418 174.757C41.8417 168.926 36.0191 163.46 33.1091 168.197Z" fill="black"/>
<path d="M41.8416 205.479C36.3607 197.809 24.6514 184.514 21.6618 192.696C17.9247 202.922 41.0942 205.479 41.8416 205.479Z" fill="black"/>
<path d="M41.8415 215.947L40.7947 188.032" stroke="black" stroke-width="1.7447" stroke-linecap="round"/>
<path d="M33.4062 239.029C35.2935 234.51 38.1026 222.915 38.6896 217.343H46.615C46.9672 224.21 50.5773 234.059 52.3387 239.029C57.6219 250.775 53.0726 258.305 49.697 260.263H36.9285C28.563 257.552 30.7643 245.354 33.4062 239.029Z" stroke="black" stroke-width="1.7447"/>
<path d="M80.2251 148.951C80.7724 146.673 81.7028 141.322 81.046 138.134" stroke="black" stroke-width="1.7447" stroke-linecap="round"/>
<path d="M117.91 148.951C119.249 148.124 122.93 146.469 121.926 143.368" stroke="black" stroke-width="1.7447" stroke-linecap="round"/>
<path d="M118.958 152.091C119.772 151.781 121.401 150.695 122.098 149.998" stroke="black" stroke-width="1.7447" stroke-linecap="round"/>
<path d="M114.421 171.806C115.933 168.375 116.864 165.525 117.736 158.198" stroke="black" stroke-width="1.7447" stroke-linecap="round"/>
<path d="M158.59 185.939C148.002 165.772 118.495 169.767 110.234 174.11C131.189 176.261 136.521 190.834 137.366 197.631C140.52 224.596 148.818 240.401 152.573 244.933C155.67 247.199 169.057 247.038 169.751 241.534C172.285 221.424 164.688 197.552 158.59 185.939Z" fill="black"/>
<path d="M179.703 275.292C180.212 271.98 169.744 273.251 163.734 274.428C163.214 274.529 162.74 274.863 162.656 275.386C162.48 276.488 163.03 277.533 163.564 278.197C163.814 278.507 164.196 278.662 164.593 278.683C169.781 278.952 179.191 278.623 179.703 275.292Z" fill="black"/>
<path d="M4.02269 39.8552C1.83138 41.412 -1.11939 45.737 5.6171 47.9507C10.755 49.6391 15.1122 48.7853 16.6175 48.7501" stroke="black" stroke-width="1.7447" stroke-linecap="round"/>
<path d="M24.0018 50.2333C16.3757 50.9844 7.26303 42.2559 3.03709 37.0645C2.75485 36.7178 2.88097 36.205 3.27511 35.994C8.5484 33.1712 12.5752 27.6033 14.2877 24.52C14.4996 24.1385 15.0058 24.0275 15.3511 24.2944C27.7131 33.8456 29.6698 41.8106 29.2493 44.8129C29.2443 44.8486 29.2367 44.8806 29.2255 44.9149C28.7518 46.3634 27.1005 49.3584 24.1144 50.2119C24.0776 50.2224 24.0398 50.2295 24.0018 50.2333Z" stroke="black" stroke-width="1.7447" stroke-linecap="round"/>
<ellipse cx="8.52383" cy="30.01" rx="9.24692" ry="1.7447" transform="rotate(-45.978 8.52383 30.01)" fill="black"/>
<path d="M212.847 117.197C209.998 126.967 204.752 147.415 206.566 151.044" stroke="black" stroke-width="1.7447" stroke-linecap="round"/>
<path d="M207.71 119.869L212.312 116.993C212.605 116.809 212.989 116.869 213.213 117.132L216.442 120.922C216.668 121.187 217.054 121.245 217.348 121.058L228.351 114.057C230.095 112.661 230.066 111.394 229.397 110.567C228.24 109.135 224.93 108.61 222.734 108.633C222.44 108.636 222.188 108.836 222.103 109.119L221.295 111.811C221.233 112.017 221.078 112.184 220.876 112.259C215.033 114.431 211.311 113.042 209.856 111.16C209.739 111.008 209.707 110.81 209.751 110.624L210.198 108.724C210.295 108.314 210.01 107.912 209.589 107.887C206.595 107.712 201.831 108.109 201.831 110.916C201.831 113.78 204.968 117.778 206.853 119.766C207.077 120.001 207.435 120.041 207.71 119.869Z" fill="black"/>
<path d="M193.806 141.972C195.202 127.037 199.68 114.696 201.831 110.567C202.529 108.997 204.204 107.915 206.019 107.776C208.287 107.601 225.623 107.627 229.921 109.869C233.934 111.963 233.236 111.963 232.189 123.652C231.352 133.004 228.002 145.461 226.432 150.521C225.385 153.312 219.069 155.685 212.649 153.312C204.623 150.346 207.065 151.917 199.738 150.521C193.876 149.404 193.561 144.589 193.806 141.972Z" stroke="black" stroke-width="1.7447"/>
<path d="M232.887 116.674C231.724 115.452 229.083 114.231 227.827 119.116C226.257 125.223 222.74 138.861 222.418 140.576C221.894 143.368 221.721 150.695 224.512 146.334C226.745 142.844 229.339 128.189 230.095 121.21" stroke="black" stroke-width="1.7447" stroke-linecap="round"/>
<ellipse cx="214.068" cy="121.559" rx="0.872647" ry="1.39576" transform="rotate(13.2587 214.068 121.559)" fill="black"/>
<ellipse cx="212.097" cy="128.701" rx="0.872647" ry="1.39576" transform="rotate(13.2587 212.097 128.701)" fill="black"/>
<ellipse cx="210.353" cy="137.075" rx="0.872647" ry="1.39576" transform="rotate(13.2587 210.353 137.075)" fill="black"/>
<ellipse cx="208.956" cy="145.799" rx="0.872647" ry="1.39576" transform="rotate(13.2587 208.956 145.799)" fill="black"/>
<path d="M124.367 132.9L126.461 123.653" stroke="black" stroke-width="1.7447" stroke-linecap="round"/>
<path d="M127.158 136.04L140.766 128.538" stroke="black" stroke-width="1.7447" stroke-linecap="round"/>
<path d="M128.38 140.227H137.278" stroke="black" stroke-width="1.7447" stroke-linecap="round"/>
<path d="M125.588 81.4306C130.066 80.2675 140.208 79.8604 144.954 87.5371C150.886 97.1329 151.235 99.9245 158.737 98.1798" stroke="black" stroke-width="1.7447" stroke-linecap="round"/>
<path d="M164.05 76.6128C169.342 77.2525 181.392 76.4384 187.255 68.0638C193.117 59.6892 197.839 59.1077 199.467 59.8637" stroke="black" stroke-width="1.7447" stroke-linecap="round"/>
<path d="M74.642 50.5495C75.1073 47.0601 74.2233 39.2439 66.9653 35.894" stroke="black" stroke-width="1.7447" stroke-linecap="round"/>
<path d="M7.47144 101.32C8.22747 97.1329 12.6358 89.0375 24.2206 90.1541C35.8054 91.2707 42.3073 86.6647 44.1102 84.2222" stroke="black" stroke-width="1.7447" stroke-linecap="round"/>
<path d="M51.9283 51.2473C50.0628 51.9101 46.9356 54.1687 49.351 57.9009C51.7486 61.6055 53.9091 58.4829 54.709 56.4171C54.7211 56.3863 54.7284 56.3552 54.7314 56.3221C54.8423 55.0874 54.5675 52.8614 52.5911 53.4652C50.5882 54.077 51.3147 55.6575 51.9283 56.3713" stroke="black" stroke-width="1.7447" stroke-linecap="round"/>
<path d="M136.372 41.8259C134.506 42.4887 131.379 44.7474 133.795 48.4795C136.192 52.1841 138.353 49.0615 139.153 46.9957C139.165 46.9649 139.172 46.9338 139.175 46.9007C139.286 45.666 139.011 43.4401 137.035 44.0438C135.032 44.6556 135.758 46.2361 136.372 46.9499" stroke="black" stroke-width="1.7447" stroke-linecap="round"/>
</svg>
