<svg width="327" height="327" viewBox="0 0 327 327" fill="none" xmlns="http://www.w3.org/2000/svg">
<path d="M213.422 94.0616C210.134 90.7911 205.773 88.8214 201.146 88.5167C196.519 88.2117 191.938 89.5926 188.249 92.4037C184.561 95.2148 182.015 99.266 181.081 103.809C180.15 108.351 180.892 113.078 183.174 117.115C185.504 115.626 190.908 111.308 190.628 113.387C190.318 115.469 185.411 119.662 185.411 119.662C185.437 119.868 185.447 120.076 185.442 120.284C187.136 122.224 189.204 123.803 191.523 124.926C193.841 126.05 196.361 126.695 198.934 126.824C201.506 126.952 204.079 126.561 206.498 125.674C208.916 124.787 211.131 123.423 213.01 121.661C214.89 119.9 216.396 117.778 217.437 115.422C218.479 113.066 219.036 110.524 219.074 107.949C219.113 105.373 218.633 102.816 217.661 100.43C216.69 98.0443 215.248 95.8782 213.422 94.0616Z" fill="#6C68F0"/>
<path d="M169.656 189.39C167.324 187.255 164.736 185.419 161.952 183.923C146.174 175.314 129.905 167.638 113.229 160.933C112.758 159.192 112.385 158.018 112.385 158.018L94.7105 152.892C94.7105 152.892 73.9297 169.324 78.9933 184.047C81.7891 192.222 92.8466 203.15 130.152 211.723C126.338 231.125 121.455 250.302 115.526 269.167C116.973 266.032 125.244 264.177 135.03 265.274C145.559 266.454 153.76 270.275 153.387 273.848L153.51 274.003C155.84 252.697 156.636 231.251 155.894 209.831L187.848 257.064C186.05 254.52 190.853 247.21 198.737 240.551C206.749 233.779 214.89 230.268 216.94 232.66L217.064 232.723L169.656 189.39Z" fill="#6C68F0"/>
<path d="M289.895 177.711C289.192 176.559 288.161 175.642 286.937 175.074C285.712 174.507 284.347 174.316 283.013 174.525C281.68 174.734 280.438 175.334 279.445 176.248C278.453 177.164 277.753 178.352 277.436 179.664C277.119 180.975 277.199 182.352 277.663 183.619C278.129 184.886 278.96 185.988 280.05 186.782C281.141 187.577 282.442 188.032 283.791 188.086C285.14 188.141 286.474 187.794 287.627 187.091C288.392 186.625 289.059 186.012 289.587 185.29C290.117 184.565 290.496 183.743 290.707 182.872C290.918 182 290.956 181.096 290.815 180.211C290.676 179.325 290.362 178.477 289.895 177.711Z" fill="#E9E9E9"/>
<path d="M231.966 215.668C232.669 216.821 233.699 217.738 234.923 218.305C236.148 218.873 237.513 219.064 238.847 218.855C240.18 218.645 241.423 218.045 242.415 217.131C243.407 216.216 244.107 215.027 244.424 213.716C244.742 212.404 244.661 211.028 244.197 209.761C243.731 208.494 242.901 207.392 241.81 206.597C240.719 205.802 239.418 205.348 238.069 205.294C236.72 205.238 235.386 205.585 234.233 206.288C233.468 206.754 232.801 207.367 232.273 208.091C231.743 208.814 231.364 209.636 231.153 210.508C230.942 211.379 230.905 212.284 231.045 213.168C231.184 214.054 231.498 214.903 231.966 215.668Z" fill="#E9E9E9"/>
<path d="M274.8 68.0618C275.338 68.5766 276.015 68.9205 276.747 69.05C277.481 69.1793 278.235 69.0884 278.917 68.7887C279.597 68.489 280.174 67.9939 280.575 67.3661C280.973 66.7384 281.178 66.0062 281.161 65.2621C281.145 64.5182 280.908 63.796 280.48 63.1868C280.053 62.5776 279.455 62.1091 278.76 61.8403C278.066 61.5713 277.308 61.5144 276.582 61.6766C275.856 61.8388 275.194 62.2129 274.68 62.7513C273.995 63.4731 273.624 64.4363 273.645 65.431C273.668 66.4259 274.084 67.3715 274.8 68.0618Z" fill="#E9E9E9"/>
<path d="M45.314 71.6653C45.0053 72.1476 44.8413 72.7081 44.8413 73.2807C44.8413 73.8532 45.0053 74.4139 45.314 74.896C45.6094 75.2428 45.9835 75.5139 46.405 75.6869C46.8265 75.8597 47.2832 75.9295 47.7371 75.8901L45.314 71.6653Z" fill="#E9E9E9"/>
<path d="M59.882 64.5219C59.6158 64.1174 59.2314 63.8049 58.781 63.627C58.3307 63.449 57.8364 63.4145 57.3657 63.5278C58.2045 64.8636 59.0122 66.2304 59.882 67.5646C60.1371 67.0981 60.2706 66.5749 60.2706 66.0432C60.2706 65.5115 60.1371 64.9883 59.882 64.5219Z" fill="#E9E9E9"/>
<path d="M217.119 232.69C215.752 231.074 211.651 232.1 206.681 234.989L213.484 242.101C216.901 237.909 218.423 234.274 217.119 232.69Z" fill="#E9E9E9"/>
<path d="M192.827 246.481C188.665 251.234 186.645 255.49 188.107 257.23C189.597 258.999 194.35 257.602 199.91 254.061L192.827 246.481Z" fill="#E9E9E9"/>
<path d="M123.589 83.251C122.56 82.2289 121.207 81.596 119.763 81.46C118.318 81.3239 116.872 81.6935 115.669 82.5054C113.377 81.9905 110.982 82.1856 108.802 83.0646C108.106 81.9003 107.12 80.9364 105.94 80.2669C104.76 79.5974 103.427 79.245 102.071 79.2444C100.714 79.2437 99.3806 79.5948 98.2002 80.2632C97.0197 80.9314 96.0326 81.8944 95.3351 83.058C94.6378 84.2215 94.2539 85.546 94.2211 86.9021C94.1882 88.2583 94.5073 89.5997 95.1474 90.7958C95.7875 91.9918 96.7269 93.0014 97.8735 93.7262C99.0201 94.451 100.335 94.8663 101.69 94.9314C101.968 97.5624 103.141 100.019 105.012 101.888C105.012 101.888 110.915 109.033 107.218 112.635C108.458 111.666 109.467 110.433 110.171 109.026C110.875 107.618 111.256 106.071 111.288 104.498C111.316 104.189 111.262 103.878 111.132 103.597C107.344 99.2805 111.194 95.7702 112.872 98.7818C113.68 100.242 114.208 100.242 114.58 99.4653C116.009 95.6148 122.533 90.3648 124.116 97.2302V97.1991C124.367 98.5086 124.481 99.8406 124.457 101.174C124.457 100.399 124.489 97.9758 124.489 95.677C124.743 94.1819 124.701 92.6514 124.364 91.1725C125.179 89.969 125.548 88.5184 125.406 87.072C125.265 85.6253 124.622 84.2736 123.589 83.251Z" fill="#E9E9E9"/>
<path d="M153.504 273.941C153.785 271.518 150.087 269.002 144.433 267.238L143.252 278.481C149.124 278.011 153.226 276.333 153.504 273.941Z" fill="#E9E9E9"/>
<path d="M115.359 269.685C115.079 272.201 119.119 274.873 125.236 276.613L126.544 265.058C120.205 265.46 115.67 267.169 115.359 269.685Z" fill="#E9E9E9"/>
<path d="M231.779 255.863C223.318 258.695 214.453 260.132 205.531 260.114L209.569 264.461C221.353 268.632 234.026 269.628 246.316 267.35C241.849 263.063 236.982 259.216 231.779 255.863Z" fill="#E9E9E9"/>
<path d="M144.557 301.834C137.211 296.416 130.482 290.208 124.491 283.321L123.77 289.559C125.634 294.746 129.455 305.493 143.836 318.825C145.427 314.29 145.21 307.892 144.557 301.834Z" fill="#E9E9E9"/>
<path d="M121.634 134.006C121.281 136.411 120.759 138.788 120.073 141.12C121.325 142.048 122.646 142.879 124.025 143.605C123.279 140.405 122.44 136.616 121.634 134.006Z" fill="#E9E9E9"/>
<path d="M113.775 110.214C114.366 111.767 114.92 113.381 115.453 115.246C115.389 114.1 115.671 112.961 116.261 111.976C115.317 111.57 114.471 110.969 113.775 110.214Z" fill="#E9E9E9"/>
<path d="M130.207 211.754L126.417 230.237L133.686 212.532L130.207 211.754Z" fill="#E9E9E9"/>
<path d="M87.8398 123.606L90.5082 133.319L92.9607 127.667C92.9607 127.667 88.126 123.827 87.8398 123.606Z" fill="#E9E9E9"/>
<path d="M158.162 55.5442L142.724 51.5368L148.534 29.2043L157.603 26.0046L163.971 33.2411L158.162 55.5442Z" fill="#E9E9E9"/>
<path d="M231.034 43.7722C231.25 44.5834 231.219 45.4401 230.947 46.2341C230.676 47.028 230.174 47.7237 229.507 48.2328C228.84 48.742 228.037 49.0418 227.2 49.0947C226.363 49.1473 225.527 48.9504 224.801 48.5289C224.077 48.1074 223.492 47.4803 223.122 46.7267C222.754 45.973 222.617 45.1268 222.728 44.2951C222.839 43.4634 223.196 42.6835 223.75 42.054C224.306 41.4245 225.035 40.9739 225.846 40.7589C226.933 40.473 228.089 40.6294 229.062 41.1942C230.035 41.7591 230.743 42.6859 231.034 43.7722Z" stroke="black" stroke-width="1.22625" stroke-linecap="round" stroke-linejoin="round"/>
<path d="M244.359 51.3815C244.575 52.1926 244.545 53.0494 244.272 53.8435C244.001 54.6376 243.501 55.3335 242.833 55.8428C242.166 56.3522 241.364 56.6524 240.526 56.7054C239.688 56.7584 238.854 56.5617 238.128 56.1403C237.402 55.719 236.818 55.0918 236.449 54.3382C236.079 53.5847 235.942 52.7384 236.053 51.9067C236.164 51.0748 236.521 50.2949 237.075 49.6652C237.631 49.0358 238.36 48.5848 239.171 48.3698C240.258 48.0839 241.414 48.2402 242.387 48.8046C243.358 49.369 244.068 50.2955 244.359 51.3815Z" stroke="black" stroke-width="1.22625" stroke-linecap="round" stroke-linejoin="round"/>
<path d="M226.685 60.4214L240.476 36.7205" stroke="black" stroke-width="1.22625" stroke-linecap="round" stroke-linejoin="round"/>
<path d="M289.895 177.711C289.192 176.559 288.162 175.642 286.937 175.074C285.713 174.507 284.348 174.316 283.013 174.525C281.681 174.734 280.438 175.334 279.446 176.248C278.453 177.164 277.754 178.352 277.436 179.664C277.119 180.975 277.199 182.352 277.664 183.619C278.13 184.886 278.96 185.988 280.051 186.782C281.141 187.577 282.443 188.032 283.792 188.086C285.14 188.141 286.475 187.794 287.627 187.091C288.393 186.625 289.06 186.012 289.588 185.29C290.117 184.565 290.497 183.743 290.708 182.872C290.919 182 290.956 181.096 290.816 180.211C290.677 179.325 290.363 178.477 289.895 177.711Z" stroke="black" stroke-width="1.22625" stroke-linecap="round" stroke-linejoin="round"/>
<path d="M231.965 215.668C232.668 216.821 233.698 217.738 234.923 218.305C236.148 218.873 237.513 219.064 238.847 218.855C240.179 218.645 241.422 218.045 242.414 217.131C243.407 216.216 244.107 215.027 244.424 213.716C244.741 212.404 244.661 211.028 244.197 209.761C243.731 208.494 242.9 207.392 241.81 206.597C240.719 205.802 239.418 205.348 238.069 205.294C236.72 205.238 235.386 205.585 234.233 206.288C233.468 206.754 232.801 207.367 232.273 208.091C231.743 208.814 231.364 209.636 231.153 210.508C230.942 211.379 230.904 212.284 231.045 213.168C231.184 214.054 231.498 214.903 231.965 215.668Z" stroke="black" stroke-width="1.22625" stroke-linecap="round" stroke-linejoin="round"/>
<path d="M278.372 185.259L243.831 208.96" stroke="black" stroke-width="1.22625" stroke-linecap="round" stroke-linejoin="round"/>
<path d="M283.062 174.543L263.586 77.7541L277.408 65.3608" stroke="black" stroke-width="1.22625" stroke-linecap="round" stroke-linejoin="round"/>
<path d="M279.366 156.092L210.905 193.46L174.221 160.503L268.184 100.646L279.366 156.092Z" stroke="black" stroke-width="1.22625" stroke-linecap="round" stroke-linejoin="round"/>
<path d="M274.799 68.0618C275.337 68.5766 276.014 68.9205 276.746 69.05C277.48 69.1793 278.234 69.0884 278.916 68.7887C279.596 68.489 280.173 67.9939 280.574 67.3661C280.972 66.7384 281.177 66.0062 281.161 65.2621C281.144 64.5182 280.907 63.796 280.479 63.1868C280.052 62.5776 279.454 62.1091 278.759 61.8403C278.065 61.5713 277.307 61.5144 276.581 61.6766C275.855 61.8388 275.193 62.2129 274.679 62.7513C273.994 63.4731 273.623 64.4363 273.644 65.431C273.667 66.4259 274.083 67.3715 274.799 68.0618Z" stroke="black" stroke-width="1.22625" stroke-linecap="round" stroke-linejoin="round"/>
<path d="M175.619 135.214C176.273 134.999 187.554 131.251 193.733 125.867" stroke="black" stroke-width="1.22625" stroke-linecap="round" stroke-linejoin="round"/>
<path d="M190.435 126.863C190.381 125.951 190.247 125.046 190.038 124.157" stroke="black" stroke-width="1.22625" stroke-linecap="round" stroke-linejoin="round"/>
<path d="M185.435 120.277C185.715 120.619 186.016 120.931 186.336 121.271C189.783 124.704 194.403 126.701 199.266 126.859C204.128 127.016 208.868 125.323 212.531 122.12C216.191 118.917 218.502 114.444 218.992 109.604C219.484 104.765 218.121 99.9189 215.176 96.0459C212.233 92.1729 207.93 89.5615 203.134 88.7391C198.34 87.9167 193.411 88.9448 189.346 91.6154C185.28 94.286 182.378 98.4003 181.229 103.127C180.079 107.854 180.766 112.841 183.151 117.081" stroke="black" stroke-width="1.22625" stroke-linecap="round" stroke-linejoin="round"/>
<path d="M90.54 133.54L92.932 127.702L87.8406 123.609" stroke="black" stroke-width="1.22625" stroke-linecap="round" stroke-linejoin="round"/>
<path d="M115.457 115.387L113.681 110.155C114.51 110.814 115.396 111.399 116.327 111.904" stroke="black" stroke-width="1.22625" stroke-linecap="round" stroke-linejoin="round"/>
<path d="M119.118 121.085C113.806 120.992 108.276 117.109 103.556 112.761" stroke="black" stroke-width="1.22625" stroke-linecap="round" stroke-linejoin="round"/>
<path d="M103.525 112.761L102.469 120.619L112.097 119.811L118.465 126.801L119.118 121.085" stroke="black" stroke-width="1.22625" stroke-linecap="round" stroke-linejoin="round"/>
<path d="M57.3656 63.528C57.8363 63.419 58.3291 63.4556 58.7786 63.6332C59.228 63.8107 59.6127 64.1207 59.8819 64.5221C61.2242 66.3811 59.012 70.2054 55.0063 73.0634C51.0005 75.9213 46.6514 76.7274 45.3451 74.8619C45.0369 74.3794 44.873 73.8189 44.873 73.2465C44.873 72.6739 45.0369 72.1134 45.3451 71.6311" stroke="black" stroke-width="1.22625" stroke-linecap="round" stroke-linejoin="round"/>
<path d="M179.72 127.236C181.366 126.118 185.808 122.949 185.405 119.625C185.405 119.625 190.31 115.431 190.622 113.351C190.934 111.272 185.405 115.649 183.101 117.112C179.232 119.598 175.207 121.83 171.048 123.791" stroke="black" stroke-width="1.22625" stroke-linecap="round" stroke-linejoin="round"/>
<path d="M121.634 134.006L124.025 143.605" stroke="black" stroke-width="1.22625" stroke-linecap="round" stroke-linejoin="round"/>
<path d="M124.46 101.174C124.46 100.397 124.491 97.9758 124.491 95.677C124.745 94.1818 124.703 92.6513 124.367 91.1726C125.175 89.9678 125.54 88.5192 125.398 87.0751C125.256 85.6311 124.616 84.2812 123.588 83.2571C122.56 82.2328 121.208 81.5979 119.764 81.461C118.319 81.3243 116.872 81.694 115.67 82.5071C113.377 81.9908 110.982 82.1858 108.803 83.0663C108.107 81.902 107.121 80.9382 105.941 80.2686C104.761 79.5991 103.428 79.2467 102.071 79.2461C100.715 79.2454 99.3814 79.5965 98.2009 80.2647C97.0204 80.9331 96.0334 81.8961 95.3359 83.0596C94.6385 84.2232 94.2547 85.5476 94.2218 86.9038C94.1889 88.2599 94.5081 89.6014 95.1482 90.7974C95.7883 91.9934 96.7276 93.0032 97.8742 93.7279C99.0208 94.4527 100.336 94.8679 101.691 94.9331C101.968 97.5643 103.141 100.02 105.013 101.89C105.013 101.89 111.18 109.355 106.959 112.872" stroke="black" stroke-width="1.22625" stroke-linecap="round" stroke-linejoin="round"/>
<path d="M199.91 254.061C194.351 257.602 189.571 258.994 188.074 257.23C185.131 253.755 195.011 243.823 199.009 240.448C202.769 237.274 214.199 229.229 217.118 232.69C218.426 234.242 216.9 237.94 213.483 242.134" stroke="black" stroke-width="1.22625" stroke-linecap="round" stroke-linejoin="round"/>
<path d="M231.779 255.863C223.317 258.696 214.452 260.132 205.53 260.114" stroke="black" stroke-width="1.22625" stroke-linecap="round" stroke-linejoin="round"/>
<path d="M206.681 235.02L214.602 243.283C217.826 246.983 221.66 250.103 225.939 252.508C233.413 256.463 240.283 261.463 246.347 267.355C234.057 269.633 221.384 268.637 209.601 264.466L192.827 246.481" stroke="black" stroke-width="1.22625" stroke-linecap="round" stroke-linejoin="round"/>
<path d="M143.252 278.475C149.123 278.01 153.24 276.331 153.503 273.941C154.025 269.178 141.769 266.232 136.449 265.519C130.048 264.662 115.921 264.617 115.357 269.685C115.078 272.201 119.118 274.873 125.234 276.613" stroke="black" stroke-width="1.22625" stroke-linecap="round" stroke-linejoin="round"/>
<path d="M124.49 283.321C130.459 290.231 137.19 296.44 144.557 301.834" stroke="black" stroke-width="1.22625" stroke-linecap="round" stroke-linejoin="round"/>
<path d="M126.565 265.148L123.769 289.534C125.633 294.72 129.454 305.469 143.835 318.8C146.139 312.118 144.584 301.167 143.494 294.169C142.729 289.339 142.604 284.431 143.121 279.569C143.262 278.274 143.041 280.434 144.421 267.278" stroke="black" stroke-width="1.22625" stroke-linecap="round" stroke-linejoin="round"/>
<path d="M125.671 232.566L133.623 212.439L130.115 211.657" stroke="black" stroke-width="1.22625" stroke-linecap="round" stroke-linejoin="round"/>
<path d="M115.537 269.025C121.522 250.206 126.39 231.05 130.115 211.657C92.8059 203.097 81.7582 192.122 78.9852 183.985C73.9167 169.27 94.7025 152.83 94.7025 152.83" stroke="black" stroke-width="1.22625" stroke-linecap="round" stroke-linejoin="round"/>
<path d="M110.543 168.609C124.633 176.309 137.948 185.349 150.303 195.603C151.936 196.916 153.27 198.563 154.218 200.431C155.166 202.3 155.705 204.35 155.8 206.443C156.746 228.967 155.989 251.532 153.534 273.941" stroke="black" stroke-width="1.22625" stroke-linecap="round" stroke-linejoin="round"/>
<path d="M112.377 157.956C113.741 162.24 114.657 166.652 115.111 171.126" stroke="black" stroke-width="1.22625" stroke-linecap="round" stroke-linejoin="round"/>
<path d="M187.744 256.706L155.925 209.674" stroke="black" stroke-width="1.22625" stroke-linecap="round" stroke-linejoin="round"/>
<path d="M113.184 160.845C129.877 167.578 146.17 175.262 161.982 183.861C164.772 185.348 167.361 187.186 169.686 189.328L216.774 232.358" stroke="black" stroke-width="1.22625" stroke-linecap="round" stroke-linejoin="round"/>
<path d="M59.8503 67.5648C59.8503 67.5648 52.2099 57.315 53.5147 49.7973C54.8505 42.0948 53.3087 41.9493 49.9422 48.898C47.7137 53.4989 46.96 64.2425 46.96 64.2425" stroke="black" stroke-width="1.22625" stroke-linecap="round" stroke-linejoin="round"/>
<path d="M47.7416 75.8902C47.7416 75.8902 40.8975 64.1542 37.1501 56.1067C34.346 50.085 37.9578 52.4721 38.9829 54.4913" stroke="black" stroke-width="1.22625" stroke-linecap="round" stroke-linejoin="round"/>
<path d="M44.4128 49.7661C43.9465 47.5177 43.6968 45.2297 43.6672 42.9335C43.6672 36.037 45.3529 36.3771 46.8359 42.219C47.5276 44.9645 48.3677 47.6706 49.3521 50.3253" stroke="black" stroke-width="1.22625" stroke-linecap="round" stroke-linejoin="round"/>
<path d="M45.6867 48.5874C42.9475 51.5953 41.3244 55.4528 41.0891 59.5141" stroke="black" stroke-width="1.22625" stroke-linecap="round" stroke-linejoin="round"/>
<path d="M43.9166 46.537C43.2953 45.108 42.6756 43.4305 42.0837 41.632C40.0057 35.2947 38.6993 36.6927 39.3827 42.4707C39.875 46.4984 40.855 50.4515 42.3012 54.2427" stroke="black" stroke-width="1.22625" stroke-linecap="round" stroke-linejoin="round"/>
<path d="M40.0334 46.6614C37.8915 39.7339 36.299 40.9781 37.177 47.3154C37.8493 51.5505 39.1689 55.6572 41.0896 59.4912" stroke="black" stroke-width="1.22625" stroke-linecap="round" stroke-linejoin="round"/>
<path d="M81.2531 223.559L76.9351 240.301" stroke="black" stroke-width="1.22625" stroke-linecap="round" stroke-linejoin="round"/>
<path d="M87.466 234.119L70.7236 229.77" stroke="black" stroke-width="1.22625" stroke-linecap="round" stroke-linejoin="round"/>
<path d="M158.162 55.5442L142.724 51.5368L148.533 29.2043L157.602 26.0046L163.971 33.2411L158.162 55.5442Z" stroke="black" stroke-width="1.22625" stroke-linecap="round" stroke-linejoin="round"/>
<path d="M157.881 32.2798C157.79 32.63 157.596 32.9451 157.325 33.1853C157.054 33.4255 156.718 33.5798 156.359 33.629C156 33.6782 155.635 33.6199 155.309 33.4616C154.984 33.3032 154.712 33.0519 154.53 32.7393C154.347 32.4266 154.261 32.067 154.282 31.7055C154.304 31.344 154.432 30.9972 154.651 30.7086C154.87 30.42 155.169 30.2027 155.511 30.0843C155.854 29.966 156.223 29.9516 156.573 30.0431C157.038 30.1749 157.434 30.4815 157.677 30.8984C157.921 31.3152 157.994 31.8103 157.881 32.2798Z" stroke="black" stroke-width="1.22625" stroke-linecap="round" stroke-linejoin="round"/>
<path d="M156.407 30.0023C166.474 24.1294 154.192 14.0431 164.317 8.17505" stroke="black" stroke-width="1.22625" stroke-linecap="round" stroke-linejoin="round"/>
<path d="M203.792 100.77L195.965 114.53" stroke="black" stroke-width="1.22625" stroke-linecap="round" stroke-linejoin="round"/>
<path d="M206.773 111.581L193.013 103.721" stroke="black" stroke-width="1.22625" stroke-linecap="round" stroke-linejoin="round"/>
<path d="M45.1746 74.6279C53.1583 90.5381 69.111 108.273 87.8481 123.609C90.6537 133.221 92.9458 142.975 94.7151 152.83L112.389 157.956C115.359 152.536 117.931 146.908 120.085 141.115C124.827 144.333 129.994 146.873 135.438 148.662C138.119 149.623 141.04 149.689 143.762 148.849C154.738 145.513 165.452 141.37 175.818 136.455C175.254 131.482 173.342 126.756 170.29 122.788C161 127.057 151.228 130.186 141.187 132.108C132.801 129.107 124.834 125.047 117.479 120.025C114.863 118.304 115.131 114.587 116.335 111.898C119.451 113.423 124.238 113.722 124.467 101.388C124.711 88.9619 116.604 94.7515 114.708 99.1676C114.273 100.183 113.827 100.476 112.882 98.7785C111.209 95.7635 107.323 99.269 111.142 103.594C111.298 104.096 111.34 104.626 111.266 105.147C109.984 111.898 106.575 115.774 101.141 111.196C85.358 97.9348 72.9042 86.0042 59.8896 64.5105" stroke="black" stroke-width="1.22625" stroke-linecap="round" stroke-linejoin="round"/>
<path d="M120.072 141.12C121.312 137.939 121.834 134.523 121.601 131.117" stroke="black" stroke-width="1.22625" stroke-linecap="round" stroke-linejoin="round"/>
</svg>
