<svg width="177" height="212" viewBox="0 0 177 212" fill="none" xmlns="http://www.w3.org/2000/svg">
<path d="M175.754 5.99156C174.577 4.70443 172.943 3.93046 171.202 3.83615L105.165 0C100.59 0.212443 94.8219 3.09813 94.8219 7.6568V73.0273L77.1979 60.4478C77.1392 60.4048 77.0724 60.3738 77.0017 60.3566C76.9309 60.3395 76.8574 60.3364 76.7854 60.3478C76.7134 60.3591 76.6444 60.3845 76.5823 60.4225C76.5202 60.4606 76.4662 60.5105 76.4234 60.5695L71.8459 66.8111C70.7948 65.9204 69.7436 65.0408 68.7578 64.15C70.6509 62.9329 70.2924 62.4483 68.7235 61.2489L69.0145 60.1844C71.951 60.7587 75.297 59.0459 76.6879 54.5923C77.6328 54.111 79.2139 53.6463 78.996 52.3373C78.9572 52.0585 79.0369 52.22 76.7343 49.4052C76.6367 47.8272 76.2108 46.287 75.484 44.883C75.9762 44.9993 76.4774 45.0733 76.9822 45.1043C79.4286 45.5989 82.9439 41.4795 79.2383 40.5921C79.4026 40.3505 79.497 40.0683 79.5114 39.7765C79.5257 39.4847 79.4592 39.1946 79.3194 38.9381C79.1795 38.6816 78.9716 38.4686 78.7186 38.3225C78.4655 38.1765 78.1771 38.1031 77.8851 38.1103C77.4219 38.1696 76.9673 38.2833 76.5307 38.4489C75.6633 38.5451 74.5524 37.6544 73.8232 36.9706C76.1468 34.3206 78.2369 32.1398 77.1338 29.2795C76.0273 27.1916 72.2786 26.9172 66.5692 28.495C61.6918 22.415 55.0043 24.9609 49.3801 28.7396C45.2861 31.4925 45.1146 34.6725 46.3118 39.5564C36.2252 48.2976 41.1236 52.9315 51.0066 49.9761C52.7537 52.6947 54.0406 54.402 53.2959 55.2551C52.4694 56.2067 50.7587 54.4938 50.0794 55.7619C38.7624 56.4744 29.9637 65.7566 21.5755 72.6588C18.588 75.1174 18.2837 77.8659 19.7332 81.4C21.3842 85.4354 23.8108 89.1078 26.8755 92.2091C26.6985 92.9958 26.5248 93.8036 26.3566 94.6434C26.2876 95.3319 26.2629 96.0241 26.2824 96.7158C13.8711 109.321 17.6907 130.16 22.9807 145.987C23.5317 147.067 23.7475 148.287 23.6005 149.491C23.4534 150.694 22.9502 151.826 22.1553 152.742C15.0282 163.463 8.75363 174.728 3.38949 186.431C3.33626 186.548 3.32581 186.681 3.35996 186.805C3.39411 186.93 3.47071 187.039 3.57649 187.113C2.7163 187.993 1.90091 188.916 1.13339 189.879C-3.76497 195.284 8.57775 200.581 12.2391 200.862C14.2661 201.016 15.8207 199.202 13.7881 197.818C12.5268 196.442 7.64831 193.323 9.3899 190.794C10.0206 190.911 10.4588 190.462 11.0408 190.103L38.1206 163.823C41.2078 160.888 43.7743 157.449 45.711 153.655C50.7667 169.093 54.1099 185.041 55.6803 201.21C55.6378 201.814 55.8044 202.414 56.1522 202.91C56.5 203.405 57.0077 203.766 57.5901 203.931C57.0657 206.573 56.2745 211.272 60.1649 211.337C63.6459 211.337 69.1273 207.22 70.3157 206.172C71.1214 205.547 71.7883 204.761 72.2741 203.865C72.979 202.689 72.3848 200.927 70.8745 201.108C68.241 201.199 65.9374 203.166 63.4423 203.543C63.4777 203.392 63.5197 203.232 63.5607 203.077C64.3862 201.555 64.8809 199.875 65.0123 198.148C70.7118 166.408 69.3508 131.173 63.0816 102.062C63.0068 100.835 63.0142 99.6033 63.1037 98.3766C64.946 97.2701 64.8995 95.8749 65.1374 94.3634C72.2609 107.973 82.5655 107.297 94.0274 101.495L94.3682 101.833V161.959C94.3512 163.452 94.8873 164.899 95.8734 166.021C96.8595 167.143 98.2258 167.86 99.7092 168.035C169.471 176.195 166.295 175.725 167.855 175.585C171.034 175.302 176.917 171.344 176.91 167.94V10.7405C177.054 9.91199 177.025 9.06275 176.826 8.24573C176.627 7.4287 176.262 6.66138 175.754 5.99156ZM13.6377 199.203C13.2338 201.408 1.68774 196.672 1.06811 192.864C1.05759 192.448 1.13139 192.035 1.28504 191.648C1.4387 191.262 1.66903 190.911 1.96214 190.616C2.75979 189.616 3.60925 188.659 4.50703 187.748C4.50703 187.748 8.3133 190.342 8.36088 190.373C6.33271 193.813 11.4656 196.875 13.6377 199.203ZM76.9977 61.6682L107.339 83.4658C106.785 83.8951 106.281 84.3866 105.838 84.9307C105.763 84.8711 105.673 84.8337 105.578 84.8227C105.483 84.8118 105.387 84.8277 105.3 84.8688C103.787 85.4892 102.215 85.9562 100.609 86.2629L99.1426 83.2168C99.1083 83.1464 99.0594 83.084 98.9991 83.0339C98.9388 82.9838 98.8686 82.9471 98.7931 82.9261C98.7175 82.9052 98.6384 82.9006 98.561 82.9125C98.4835 82.9245 98.4095 82.9528 98.3438 82.9955L95.9383 84.5446L96.4794 81.7585C96.4943 81.6817 96.4927 81.6026 96.4748 81.5264C96.4569 81.4502 96.423 81.3787 96.3755 81.3166C96.3279 81.2545 96.2677 81.2032 96.1988 81.1661C96.1299 81.1289 96.054 81.1068 95.9759 81.1012C91.7713 80.9507 92.0645 79.8266 92.4606 84.3775L90.5962 82.2984C90.5396 82.2353 90.4691 82.186 90.3903 82.1544C90.3116 82.1229 90.2266 82.1098 90.142 82.1164C90.0574 82.1229 89.9754 82.1488 89.9024 82.1921C89.8294 82.2353 89.7673 82.2948 89.721 82.3659L88.0336 84.9584C87.9934 85.0207 87.9661 85.0905 87.9534 85.1636C87.9407 85.2367 87.9428 85.3116 87.9596 85.3839C87.9765 85.4562 88.0077 85.5243 88.0514 85.5843C88.0951 85.6442 88.1504 85.6948 88.214 85.7329L90.5752 87.1348C90.1072 87.2919 87.5944 87.5298 87.5568 87.9315C87.3167 88.2845 87.8887 89.1066 87.9794 89.4396C86.7082 89.7723 85.3942 89.9125 84.0813 89.8557C83.1784 88.1089 82.3091 86.3883 81.4734 84.6939C81.584 84.6939 81.7312 84.7061 81.7301 84.5833C81.7725 84.5386 81.8044 84.4851 81.8236 84.4265C81.8427 84.3679 81.8486 84.3058 81.8407 84.2447C81.7301 83.2301 81.6194 81.8758 81.6194 80.974C82.0698 81.4254 82.7469 81.9886 83.8744 83.0044C83.9191 83.0468 83.9727 83.0787 84.0312 83.0979C84.0898 83.117 84.1519 83.1229 84.213 83.115C84.9033 82.2107 85.5434 81.2691 86.1305 80.2946C86.1305 80.1109 86.1847 79.7414 85.9092 79.7314L83.5414 78.4899L86.4735 77.5882C86.5306 77.5834 86.5842 77.5586 86.6247 77.518C86.6652 77.4775 86.69 77.424 86.6948 77.3669C86.9161 77.1456 86.9161 77.0283 86.9161 76.9154L85.5629 73.9833C85.5629 73.7056 85.1801 73.762 84.9986 73.762L82.2911 75.5666L82.8553 72.5216C82.9173 72.3546 82.6595 72.0337 82.5168 72.0702C77.853 71.6752 78.9417 70.7955 79.246 75.5666C76.6027 72.6444 77.1437 73.0129 76.4267 73.1977L76.2453 73.44C75.2893 71.5856 74.9629 69.4456 73.2921 68.0426C73.0907 67.8733 72.8971 67.7107 72.699 67.537L76.9977 61.6682ZM139.684 105.226L114.788 87.4114C113.943 86.3105 157.745 92.3264 157.748 92.0177C157.895 92.0177 158.036 91.9594 158.139 91.8557C158.243 91.7519 158.301 91.6112 158.301 91.4645V77.929C158.302 77.7899 158.25 77.6558 158.156 77.5533C158.062 77.4508 157.933 77.3874 157.795 77.3757L107.603 73.0892C107.526 73.0828 107.449 73.0923 107.377 73.1172C107.304 73.1421 107.238 73.1819 107.181 73.2339C107.125 73.2859 107.08 73.3491 107.049 73.4195C107.018 73.4898 107.003 73.5658 107.003 73.6425V81.8592L102.466 78.522V12.0871L164.637 16.409V153.456L102.297 147.582V107.702C127.121 126.165 125.541 125.065 125.825 125.065C126.252 125.065 125.013 126.254 139.811 105.998C139.895 105.878 139.929 105.73 139.905 105.586C139.882 105.441 139.802 105.312 139.684 105.226ZM111.885 83.0962C111.724 82.7762 111.47 82.5126 111.156 82.3402C110.842 82.1677 110.483 82.0945 110.127 82.1302C107.879 82.6691 108.626 83.0276 108.108 82.6547V74.2444L157.188 78.4368V90.8415L114.288 85.8524C113.483 84.9772 112.226 84.3023 111.885 83.0962ZM113.483 87.3074H113.085C112.233 87.5033 112.014 88.1273 111.595 88.6872C110.988 89.6936 110.019 90.4298 108.886 90.7453L107.958 90.6899C107.515 89.1763 107.014 87.5774 106.363 85.9609C107.334 84.624 108.729 83.6564 110.321 83.2168C110.433 83.2188 110.542 83.2487 110.638 83.3038C110.735 83.3589 110.816 83.4374 110.875 83.5322C111.288 84.5603 111.998 85.4428 112.913 86.0682C113.223 86.2054 113.984 87.1138 113.483 87.3063V87.3074ZM73.9327 44.3973C74.2129 44.8208 74.4611 45.2646 74.6752 45.725C73.4189 46.0626 72.3405 46.8704 71.6634 47.9811C71.5879 48.107 71.5656 48.2577 71.6013 48.4001C71.637 48.5424 71.7278 48.6648 71.8537 48.7402C71.9796 48.8156 72.1303 48.8379 72.2726 48.8022C72.415 48.7665 72.5373 48.6758 72.6127 48.5499C72.8857 48.101 73.2451 47.7108 73.67 47.4018C74.0948 47.0928 74.5768 46.8711 75.0879 46.7496C75.3787 47.808 75.6059 48.8829 75.7684 49.9684L77.8364 52.4922C78.0057 52.5819 77.8364 52.7534 77.7125 52.8153C77.1793 53.1512 76.6159 53.4365 76.0295 53.6673C75.5869 53.8377 75.8359 54.1099 75.047 55.6888C74.5153 55.8543 73.9413 55.8192 73.4338 55.59C72.9263 55.3608 72.5204 54.9535 72.2929 54.4452C72.2272 54.3131 72.1117 54.2126 71.9719 54.1657C71.832 54.1188 71.6792 54.1294 71.5472 54.1951C71.4151 54.2608 71.3146 54.3763 71.2677 54.5162C71.2208 54.656 71.2314 54.8088 71.2971 54.9409C71.5701 55.5154 71.997 56.0031 72.5304 56.3496C73.0639 56.6961 73.683 56.8879 74.3189 56.9037C73.7761 57.7075 73.0174 58.3416 72.13 58.7331C71.2427 59.1246 70.2628 59.2576 69.3033 59.1167C69.7547 58.0246 68.5221 57.7734 68.3251 58.496L67.7819 60.4876C66.9949 59.8902 66.1732 59.3401 65.3211 58.8401C68.5358 54.7247 70.7184 49.8995 71.6866 44.7679C71.7972 44.2036 72.138 43.5265 72.0252 43.0761C72.6278 43.5627 73.2653 44.0043 73.9327 44.3973ZM47.4261 32.1364C51.3098 27.7493 59.5408 23.1452 64.4193 27.9008C68.1813 31.5666 68.2167 31.6374 68.3296 32.1309C68.5276 33.0006 67.7077 34.054 67.1744 34.8683C65.7613 36.9138 63.9266 38.6331 61.7936 39.9105C58.1865 42.3448 50.9269 43.0441 48.1552 42.2219C47.6529 40.3719 45.7973 34.429 47.4261 32.1364ZM42.0486 48.5477C41.1878 47.0849 42.9659 44.0819 46.5973 40.7891C47.0034 42.1091 46.9801 42.8482 47.571 43.1956C52.6362 44.2138 57.8986 43.3765 62.3978 40.8366C64.7847 39.3839 66.8188 37.4186 68.3528 35.083C70.0557 32.7273 69.7204 31.3674 67.5694 29.4909C71.4874 28.0679 75.6367 28.4497 76.1689 29.8128C77.2754 34.0772 69.249 40.1329 61.9507 44.2855C51.8796 49.7847 43.383 50.9498 42.0486 48.5477ZM44.1354 154.353C44.4242 151.442 42.6074 150.714 38.5256 138.157C38.0741 136.802 34.4648 126.877 37.1724 127.441C38.187 127.663 38.5256 129.922 38.7513 130.712C40.2705 136.284 43.4892 145.034 45.4576 151.197C45.1258 152.292 44.6827 153.349 44.1354 154.353ZM45.0361 105.238C39.0236 104.308 33.3593 101.82 28.6071 98.0214C28.1153 97.6703 27.7415 97.1784 27.535 96.6104C27.3286 96.0425 27.2993 95.4253 27.4509 94.8403C28.0926 91.9956 28.6547 89.4573 29.3695 87.1315C36.3801 93.4229 46.0031 97.6253 57.0314 99.1102C58.6758 99.4403 60.3768 99.3524 61.9784 98.8546C61.8855 99.7464 62.0979 101.914 61.5535 102.617C58.1976 106.964 50.9203 106.264 45.0361 105.241V105.238ZM71.2894 202.246C72.0174 203.195 70.194 204.828 69.6297 205.302C67.3968 207.183 60.3353 211.997 58.7132 209.571C57.9387 208.491 58.2463 206.719 58.5151 205.155C58.42 203.597 59.7323 204.579 60.6108 204.427C61.1617 204.437 61.7095 204.342 62.224 204.144C62.224 204.291 62.2823 204.432 62.3861 204.536C62.4898 204.639 62.6305 204.698 62.7773 204.698C65.8566 204.698 68.781 201.966 71.2894 202.249V202.246ZM73.6727 102.609C67.4997 98.7362 62.6567 88.3995 61.0589 80.1884C61.0262 80.0492 60.941 79.9281 60.8209 79.8504C60.7009 79.7727 60.5555 79.7445 60.4151 79.7717C60.2748 79.7989 60.1504 79.8793 60.068 79.9962C59.9857 80.1131 59.9518 80.2573 59.9735 80.3986C60.8781 84.7362 62.3513 88.9354 64.3551 92.8874C63.6447 94.7219 64.4392 96.5852 62.2362 97.6043C60.6338 98.2089 58.8942 98.3534 57.2139 98.0214C44.0137 95.7952 31.9542 90.6656 25.6706 81.1245C25.6437 80.8546 25.6744 80.5822 25.7606 80.3251C25.8468 80.0679 25.9866 79.8321 26.1707 79.6329C28.44 74.8913 31.179 70.389 34.3464 66.1937C34.4345 66.0763 34.4723 65.9288 34.4515 65.7835C34.4308 65.6383 34.3532 65.5072 34.2358 65.4192C34.1184 65.3311 33.9708 65.2933 33.8256 65.3141C33.6803 65.3348 33.5493 65.4124 33.4612 65.5298C30.2636 69.7648 27.4966 74.3084 25.2014 79.093C24.9543 79.3902 24.7707 79.7349 24.6618 80.1058C24.553 80.4766 24.5212 80.8659 24.5685 81.2495C25.0111 83.4381 27.068 84.7117 28.4633 86.316C28.0063 87.7633 27.5848 89.298 27.1886 90.9311C24.4504 88.0519 22.2739 84.6866 20.7711 81.0083C19.4986 77.9002 19.6259 75.6895 22.3202 73.492C30.5269 66.7823 38.9792 57.7579 49.9112 56.8728C50.0389 57.216 50.2354 57.5294 50.4887 57.7939C50.7419 58.0584 51.0466 58.2683 51.3839 58.4108C50.3693 59.7651 51.7092 61.032 52.85 61.5697C53.5447 61.8822 54.3008 62.0345 55.0623 62.0153C55.8237 61.9962 56.5712 61.8061 57.2493 61.4591C57.2106 62.8201 59.3926 63.3766 60.6329 62.9252C62.2402 62.2536 63.6189 61.1316 64.603 59.6943C65.2027 60.1369 69.4338 62.4671 68.4568 62.9971C67.9445 63.3844 67.0306 63.931 67.5882 64.5705C69.3785 66.2712 71.4432 67.7793 73.2135 69.5198C76.4367 76.2206 79.2084 83.1604 83.1652 90.4996C84.3048 92.4559 101.896 87.1005 105.213 86.0505C105.83 87.5774 106.364 89.1365 106.813 90.7209C103.232 94.0256 99.3457 96.9839 95.2069 99.5561C92.0435 101.481 81.0142 107.17 73.6727 102.612V102.609ZM102.463 95.7963L104.217 96.8342C101.358 97.3874 101.363 97.3188 101.2 97.6342C100.85 97.8411 102.37 100.606 102.537 101.159C102.569 101.231 102.615 101.294 102.673 101.346C102.731 101.398 102.799 101.438 102.874 101.461C102.948 101.485 103.026 101.493 103.104 101.484C103.181 101.476 103.256 101.451 103.323 101.412L105.933 99.8759C105.894 100.229 104.843 102.837 105.17 103.036C105.212 103.103 105.269 103.161 105.336 103.204C105.403 103.247 105.479 103.276 105.558 103.287C105.558 103.287 108.767 103.744 108.796 103.744C108.872 103.744 108.948 103.729 109.018 103.698C109.088 103.668 109.151 103.623 109.203 103.567C109.255 103.511 109.295 103.445 109.32 103.373C109.345 103.301 109.355 103.224 109.349 103.148C109.269 102.098 109.191 100.974 109.145 100.16L111.137 101.918C111.196 101.971 111.266 102.01 111.342 102.034C111.418 102.057 111.498 102.063 111.577 102.053C111.656 102.042 111.731 102.015 111.799 101.973C111.866 101.931 111.923 101.874 111.967 101.808C112.077 101.508 113.972 99.0504 113.73 98.7738C113.739 98.3866 111.729 97.5689 111.486 97.3697L114.031 96.6217C114.109 96.5988 114.18 96.5593 114.24 96.506C114.3 96.4527 114.348 96.3868 114.38 96.3131C114.413 96.2393 114.428 96.1594 114.427 96.079C114.425 95.9985 114.405 95.9194 114.37 95.8472L112.904 92.915C112.869 92.8452 112.821 92.7835 112.761 92.7338C112.701 92.6841 112.631 92.6477 112.556 92.6268C112.481 92.6059 112.403 92.6011 112.326 92.6126C112.249 92.6241 112.175 92.6518 112.109 92.6938L109.704 94.2428L110.245 91.4567C111.442 90.6702 112.45 89.6289 113.198 88.4073H113.875C114.233 87.7877 138.296 105.898 138.595 105.802L125.71 123.727L95.0819 100.902C97.6578 99.3745 100.124 97.6697 102.463 95.7996V95.7963ZM171.8 169.739C171.813 172.562 168.829 174.718 166.047 174.49L99.8408 166.933C98.6267 166.789 97.509 166.2 96.7031 165.281C95.8973 164.361 95.4605 163.176 95.4769 161.954V102.646L101.196 106.87V148.075C101.183 148.207 101.222 148.338 101.305 148.442C101.388 148.545 101.508 148.612 101.639 148.628C102.152 148.707 165.053 154.983 165.337 154.466C165.337 153.682 165.911 17.1592 165.817 16.0229C165.766 15.4065 165.521 15.359 165.458 15.3335C165.052 15.5117 101.933 10.5668 101.653 11.0813C101.131 11.2849 101.432 77.3658 101.253 77.7221L95.9272 73.814V7.64684C95.9546 6.38314 96.4743 5.18005 97.3756 4.29384C98.2769 3.40763 99.4886 2.90833 100.753 2.90228C100.901 2.6666 166.774 6.87784 166.958 6.73179C169.959 6.9398 171.801 9.47142 171.801 12.4932L171.8 169.739Z" fill="#212121"/>
<path d="M130.172 153.901C122.648 154.873 124.024 167.778 131.868 167.08C139.627 165.776 137.698 152.927 130.172 153.901ZM134.827 163.976C134.49 164.518 134.037 164.979 133.501 165.324C132.964 165.669 132.358 165.89 131.725 165.972C131.092 166.053 130.449 165.992 129.843 165.794C129.236 165.596 128.681 165.265 128.219 164.826C124.911 162.12 126.028 155.466 130.313 154.998C134.579 154.367 137.342 160.521 134.827 163.979V163.976Z" fill="#212121"/>
<path d="M127.381 108.597C127.415 108.206 125.373 107.38 125.135 107.179L127.68 106.432C127.757 106.409 127.829 106.37 127.889 106.317C127.95 106.264 127.998 106.198 128.031 106.124C128.064 106.05 128.08 105.97 128.078 105.89C128.076 105.809 128.057 105.73 128.022 105.657C127.785 105.325 126.574 102.227 126.207 102.318C125.937 102.064 123.614 103.846 123.351 103.939L123.884 101.156C123.898 101.079 123.897 101 123.879 100.924C123.861 100.848 123.827 100.777 123.779 100.715C123.732 100.653 123.671 100.602 123.603 100.565C123.534 100.528 123.458 100.505 123.38 100.5C119.099 100.314 119.491 99.2927 119.871 103.866L117.88 101.794C117.825 101.737 117.758 101.693 117.684 101.664C117.61 101.634 117.53 101.622 117.451 101.626C117.372 101.631 117.294 101.652 117.224 101.689C117.153 101.726 117.092 101.778 117.043 101.841C116.871 102.173 114.787 104.469 115.021 104.764C114.921 105.123 117.439 106.343 117.642 106.535C117.167 106.693 114.654 106.928 114.622 107.333C114.28 107.561 115.77 110.25 115.96 110.86C115.992 110.931 116.039 110.994 116.097 111.045C116.155 111.097 116.224 111.136 116.298 111.16C116.372 111.183 116.45 111.191 116.527 111.183C116.605 111.175 116.679 111.151 116.747 111.112L119.402 109.55L118.64 112.292C118.619 112.367 118.614 112.447 118.626 112.525C118.638 112.602 118.667 112.677 118.71 112.742C118.753 112.808 118.809 112.864 118.876 112.907C118.942 112.949 119.017 112.976 119.095 112.988C123.469 113.541 122.974 114.315 122.724 109.947C123.178 110.344 123.808 110.882 124.681 111.621C124.739 111.67 124.807 111.707 124.88 111.728C124.953 111.75 125.029 111.757 125.105 111.748C125.18 111.738 125.253 111.714 125.319 111.675C125.384 111.637 125.441 111.585 125.486 111.524C125.654 111.181 127.624 108.891 127.381 108.597Z" fill="#212121"/>
<path d="M73.7239 50.9807C75.0837 51.0914 75.8317 48.4535 74.3877 48.1836C73.4472 47.8118 71.917 50.8291 73.7239 50.9807Z" fill="#212121"/>
<path d="M48.2672 33.2506C53.0549 32.8909 57.5828 30.9323 61.1233 27.6894C61.2307 27.5894 61.294 27.4507 61.2992 27.304C61.3044 27.1573 61.2511 27.0146 61.151 26.9072C61.0509 26.7997 60.9123 26.7365 60.7656 26.7313C60.6189 26.7261 60.4761 26.7794 60.3687 26.8795C57.0242 29.969 52.7271 31.827 48.1853 32.1474C48.0414 32.1614 47.9088 32.2311 47.8156 32.3417C47.7225 32.4522 47.6764 32.5949 47.6871 32.739C47.6978 32.8832 47.7645 33.0174 47.8729 33.113C47.9813 33.2086 48.1228 33.258 48.2672 33.2506Z" fill="#212121"/>
<path d="M139.263 46.2782C139.288 42.8603 139.308 37.9055 139.233 36.7249C138.546 27.2889 123.881 27.0532 123.353 35.6118L123.012 45.5767C121.932 45.7873 120.955 46.3568 120.238 47.1927C119.522 48.0286 119.109 49.0819 119.067 50.1818L118.846 66.9803C118.844 67.1205 118.895 67.2561 118.989 67.3598C119.084 67.4635 119.214 67.5276 119.353 67.5391L143.041 69.4566C143.117 69.4627 143.194 69.453 143.266 69.4279C143.338 69.4029 143.405 69.3631 143.461 69.3111C143.517 69.2591 143.562 69.196 143.592 69.1258C143.623 69.0557 143.639 68.9799 143.638 68.9034V51.1998C143.653 49.9818 143.213 48.8022 142.404 47.8918C141.595 46.9815 140.475 46.406 139.263 46.2782ZM125.724 57.011C126.2 53.6174 137.003 54.2149 137.089 57.9094C136.515 61.251 125.803 60.6989 125.728 57.0077L125.724 57.011ZM129.771 33.8193H130.925C131.981 33.7958 133.006 34.1839 133.782 34.9015C134.558 35.6192 135.024 36.6102 135.083 37.6654V46.0292L127.049 45.5999V37.5747C126.98 37.1488 126.996 36.7137 127.096 36.2941C127.196 35.8745 127.378 35.4788 127.631 35.1296C127.884 34.7804 128.204 34.4846 128.572 34.2592C128.939 34.0338 129.348 33.8831 129.774 33.816L129.771 33.8193ZM138.157 46.2007L136.189 46.0901V37.6366C136.119 36.2897 135.528 35.0228 134.541 34.1036C133.554 33.1843 132.248 32.6844 130.899 32.7095C130.228 32.6201 129.545 32.6866 128.903 32.9039C128.262 33.1212 127.679 33.4834 127.2 33.9624C126.721 34.4414 126.359 35.0243 126.141 35.6659C125.924 36.3075 125.857 36.9906 125.947 37.6621V45.5457L124.271 45.455C124.06 45.445 124.016 46.6223 124.459 35.6549C124.468 35.4469 124.761 30.5452 130.674 30.5452C137.659 30.5452 138.114 36.539 138.129 36.7935C138.203 37.9221 138.184 42.795 138.157 46.1974V46.2007Z" fill="#212121"/>
<path d="M134.462 8.66141C134.462 9.01444 134.322 9.35301 134.072 9.60263C133.823 9.85226 133.484 9.9925 133.131 9.9925C132.778 9.9925 132.44 9.85226 132.19 9.60263C131.94 9.35301 131.8 9.01444 131.8 8.66141C131.8 8.30838 131.94 7.96982 132.19 7.72019C132.44 7.47056 132.778 7.33032 133.131 7.33032C133.484 7.33032 133.823 7.47056 134.072 7.72019C134.322 7.96982 134.462 8.30838 134.462 8.66141Z" fill="#212121"/>
</svg>
