<svg width="390" height="844" viewBox="0 0 390 844" fill="none" xmlns="http://www.w3.org/2000/svg">
<path d="M236.183 131.614C240.051 133.846 242.433 137.973 242.433 142.439L242.433 193.428C242.433 197.894 240.051 202.02 236.183 204.253L192.025 229.748C188.158 231.98 183.393 231.98 179.525 229.748L135.368 204.253C131.5 202.02 129.118 197.894 129.118 193.428L129.118 142.439C129.118 137.973 131.5 133.846 135.368 131.614L179.525 106.119C183.393 103.886 188.158 103.886 192.025 106.119L236.183 131.614Z" stroke="url(#paint0_angular_2808_12976)" stroke-opacity="0.26"/>
<path d="M272.252 147.511C275.41 150.669 276.643 155.271 275.487 159.585L255.15 235.485C253.994 239.799 250.624 243.168 246.311 244.324L170.411 264.661C166.097 265.817 161.494 264.584 158.337 261.426L102.774 205.863C99.6159 202.705 98.3827 198.103 99.5385 193.789L119.876 117.889C121.032 113.575 124.401 110.206 128.715 109.05L204.615 88.7128C208.929 87.5569 213.531 88.7902 216.689 91.948L272.252 147.511Z" stroke="url(#paint1_angular_2808_12976)" stroke-opacity="0.26"/>
<path d="M304.292 123.875C307.897 126.51 309.822 130.869 309.342 135.309L297.196 247.648C296.716 252.087 293.904 255.934 289.819 257.738L186.458 303.389C182.372 305.193 177.635 304.681 174.03 302.045L82.8151 235.357C79.21 232.721 77.2849 228.362 77.7649 223.923L89.911 111.584C90.3911 107.144 93.2033 103.297 97.2885 101.493L200.65 55.8428C204.735 54.0385 209.472 54.5507 213.077 57.1864L304.292 123.875Z" stroke="url(#paint2_angular_2808_12976)" stroke-opacity="0.26"/>
<path d="M342.398 122.265C345.988 124.921 347.888 129.291 347.383 133.728L330.802 279.276C330.296 283.713 327.462 287.543 323.367 289.324L189.028 347.738C184.933 349.519 180.199 348.98 176.609 346.323L58.8513 259.19C55.2613 256.534 53.3612 252.164 53.8667 247.727L70.4476 102.18C70.9531 97.7424 73.7873 93.912 77.8827 92.1312L212.221 33.7169C216.316 31.9361 221.051 32.4754 224.641 35.1318L342.398 122.265Z" stroke="url(#paint3_angular_2808_12976)" stroke-opacity="0.26"/>
<path d="M396.792 109.919C400.478 112.44 402.539 116.736 402.199 121.189L386.637 324.855C386.296 329.307 383.606 333.24 379.58 335.172L195.419 423.528C191.393 425.459 186.641 425.096 182.955 422.575L14.3568 307.265C10.6707 304.744 8.60952 300.448 8.94977 295.995L24.5123 92.329C24.8525 87.8761 27.5425 83.9431 31.5689 82.0113L215.73 -6.34404C219.756 -8.2758 224.507 -7.91276 228.194 -5.39167L396.792 109.919Z" stroke="url(#paint4_angular_2808_12976)" stroke-opacity="0.26"/>
<path d="M469.106 76.7696C472.698 79.423 474.601 83.7912 474.099 88.2288L441.229 378.855C440.727 383.293 437.896 387.126 433.802 388.91L165.677 505.756C161.583 507.541 156.848 507.005 153.256 504.352L-81.9986 330.572C-85.5907 327.918 -87.4943 323.55 -86.9925 319.113L-54.1221 28.4861C-53.6202 24.0486 -50.7891 20.2159 -46.6951 18.4318L221.43 -98.415C225.524 -100.199 230.259 -99.6636 233.851 -97.0102L469.106 76.7696Z" stroke="url(#paint5_angular_2808_12976)" stroke-opacity="0.26"/>
<path d="M483.691 114.115C486.963 117.154 488.366 121.708 487.37 126.061L410.11 463.83C409.114 468.184 405.872 471.675 401.604 472.99L70.4569 574.965C66.1889 576.279 61.5438 575.217 58.2716 572.178L-195.615 336.384C-198.887 333.345 -200.29 328.791 -199.294 324.438L-122.034 -13.3315C-121.038 -17.6849 -117.796 -21.1763 -113.528 -22.4907L217.619 -124.466C221.887 -125.781 226.532 -124.718 229.804 -121.679L483.691 114.115Z" stroke="url(#paint6_angular_2808_12976)" stroke-opacity="0.26"/>
<path d="M566.529 138.133C569.862 141.106 571.355 145.631 570.447 150.003L481.466 578.484C480.558 582.857 477.386 586.413 473.145 587.813L57.5787 724.993C53.338 726.393 48.6725 725.424 45.3398 722.452L-281.245 431.151C-284.578 428.178 -286.072 423.653 -285.164 419.281L-196.182 -9.20051C-195.274 -13.5731 -192.102 -17.129 -187.861 -18.5289L227.705 -155.709C231.946 -157.109 236.611 -156.14 239.944 -153.168L566.529 138.133Z" stroke="url(#paint7_angular_2808_12976)" stroke-opacity="0.26"/>
<path d="M566.529 138.133C569.862 141.106 571.355 145.631 570.447 150.003L481.466 578.484C480.558 582.857 477.386 586.413 473.145 587.813L57.5787 724.993C53.338 726.393 48.6725 725.424 45.3398 722.452L-281.245 431.151C-284.578 428.178 -286.072 423.653 -285.164 419.281L-196.182 -9.20051C-195.274 -13.5731 -192.102 -17.129 -187.861 -18.5289L227.705 -155.709C231.946 -157.109 236.611 -156.14 239.944 -153.168L566.529 138.133Z" stroke="url(#paint8_angular_2808_12976)" stroke-opacity="0.26"/>
<defs>
<radialGradient id="paint0_angular_2808_12976" cx="0" cy="0" r="1" gradientUnits="userSpaceOnUse" gradientTransform="translate(185.775 167.933) rotate(150) scale(66)">
<stop stop-color="#A3C73D"/>
<stop offset="0.229167" stop-color="#FDBA16"/>
<stop offset="0.484375" stop-color="#3082BA"/>
<stop offset="0.770833" stop-color="#FFDF06"/>
<stop offset="1" stop-color="#EC1D26"/>
</radialGradient>
<radialGradient id="paint1_angular_2808_12976" cx="0" cy="0" r="1" gradientUnits="userSpaceOnUse" gradientTransform="translate(187.513 176.687) rotate(165) scale(93.5887)">
<stop stop-color="#A3C73D"/>
<stop offset="0.229167" stop-color="#FDBA16"/>
<stop offset="0.484375" stop-color="#3082BA"/>
<stop offset="0.770833" stop-color="#FFDF06"/>
<stop offset="1" stop-color="#EC1D26"/>
</radialGradient>
<radialGradient id="paint2_angular_2808_12976" cx="0" cy="0" r="1" gradientUnits="userSpaceOnUse" gradientTransform="translate(193.554 179.616) rotate(156.171) scale(128.004)">
<stop stop-color="#A3C73D"/>
<stop offset="0.229167" stop-color="#FDBA16"/>
<stop offset="0.484375" stop-color="#3082BA"/>
<stop offset="0.770833" stop-color="#FFDF06"/>
<stop offset="1" stop-color="#EC1D26"/>
</radialGradient>
<radialGradient id="paint3_angular_2808_12976" cx="0" cy="0" r="1" gradientUnits="userSpaceOnUse" gradientTransform="translate(200.625 190.728) rotate(156.499) scale(161.5)">
<stop stop-color="#A3C73D"/>
<stop offset="0.229167" stop-color="#FDBA16"/>
<stop offset="0.484375" stop-color="#3082BA"/>
<stop offset="0.770833" stop-color="#FFDF06"/>
<stop offset="1" stop-color="#EC1D26"/>
</radialGradient>
<radialGradient id="paint4_angular_2808_12976" cx="0" cy="0" r="1" gradientUnits="userSpaceOnUse" gradientTransform="translate(205.574 208.592) rotate(154.37) scale(219.271)">
<stop stop-color="#A3C73D"/>
<stop offset="0.229167" stop-color="#FDBA16"/>
<stop offset="0.484375" stop-color="#3082BA"/>
<stop offset="0.770833" stop-color="#FFDF06"/>
<stop offset="1" stop-color="#EC1D26"/>
</radialGradient>
<radialGradient id="paint5_angular_2808_12976" cx="0" cy="0" r="1" gradientUnits="userSpaceOnUse" gradientTransform="translate(193.554 203.671) rotate(156.453) scale(307.491)">
<stop stop-color="#A3C73D"/>
<stop offset="0.229167" stop-color="#FDBA16"/>
<stop offset="0.484375" stop-color="#3082BA"/>
<stop offset="0.770833" stop-color="#FFDF06"/>
<stop offset="1" stop-color="#EC1D26"/>
</radialGradient>
<radialGradient id="paint6_angular_2808_12976" cx="0" cy="0" r="1" gradientUnits="userSpaceOnUse" gradientTransform="translate(144.038 225.249) rotate(162.884) scale(361.504)">
<stop stop-color="#A3C73D"/>
<stop offset="0.229167" stop-color="#FDBA16"/>
<stop offset="0.484375" stop-color="#3082BA"/>
<stop offset="0.770833" stop-color="#FFDF06"/>
<stop offset="1" stop-color="#EC1D26"/>
</radialGradient>
<radialGradient id="paint7_angular_2808_12976" cx="0" cy="0" r="1" gradientUnits="userSpaceOnUse" gradientTransform="translate(142.642 284.642) rotate(161.732) scale(452.634)">
<stop stop-color="#A3C73D"/>
<stop offset="0.229167" stop-color="#FDBA16"/>
<stop offset="0.484375" stop-color="#3082BA"/>
<stop offset="0.770833" stop-color="#FFDF06"/>
<stop offset="1" stop-color="#EC1D26"/>
</radialGradient>
<radialGradient id="paint8_angular_2808_12976" cx="0" cy="0" r="1" gradientUnits="userSpaceOnUse" gradientTransform="translate(142.642 284.642) rotate(161.732) scale(452.634)">
<stop stop-color="#A3C73D"/>
<stop offset="0.229167" stop-color="#FDBA16"/>
<stop offset="0.484375" stop-color="#3082BA"/>
<stop offset="0.770833" stop-color="#FFDF06"/>
<stop offset="1" stop-color="#EC1D26"/>
</radialGradient>
</defs>
</svg>
