<svg width="390" height="844" viewBox="0 0 390 844" fill="none" xmlns="http://www.w3.org/2000/svg">
<path d="M224.098 120.326C228.411 121.482 231.781 124.851 232.936 129.165L246.133 178.416C247.289 182.73 246.056 187.333 242.898 190.491L206.843 226.545C203.686 229.703 199.083 230.936 194.769 229.78L145.518 216.583C141.204 215.428 137.835 212.058 136.679 207.745L123.482 158.493C122.326 154.179 123.56 149.577 126.717 146.419L162.772 110.364C165.93 107.207 170.532 105.973 174.846 107.129L224.098 120.326Z" stroke="url(#paint0_angular_2808_12694)" stroke-opacity="0.26"/>
<path d="M263.052 126.346C266.919 128.579 269.302 132.706 269.302 137.172L269.302 215.749C269.302 220.215 266.919 224.342 263.052 226.575L195.002 265.864C191.134 268.096 186.369 268.096 182.502 265.864L114.451 226.575C110.584 224.342 108.201 220.215 108.201 215.749L108.201 137.172C108.201 132.706 110.584 128.579 114.451 126.346L182.502 87.0576C186.369 84.8247 191.134 84.8247 195.002 87.0576L263.052 126.346Z" stroke="url(#paint1_angular_2808_12694)" stroke-opacity="0.26"/>
<path d="M287.883 95.2227C292.047 96.8356 295.035 100.548 295.72 104.96L313.063 216.615C313.749 221.028 312.028 225.471 308.549 228.271L220.525 299.118C217.046 301.918 212.338 302.649 208.173 301.037L102.806 260.229C98.6418 258.616 95.6542 254.904 94.9687 250.491L77.6256 138.837C76.9402 134.424 78.661 129.981 82.14 127.181L170.164 56.3338C173.643 53.5337 178.351 52.8023 182.516 54.4152L287.883 95.2227Z" stroke="url(#paint2_angular_2808_12694)" stroke-opacity="0.26"/>
<path d="M324.274 83.8054C328.429 85.4421 331.395 89.1711 332.055 93.5879L353.71 238.467C354.37 242.884 352.624 247.318 349.129 250.098L234.487 341.291C230.992 344.071 226.279 344.775 222.124 343.139L85.8274 289.452C81.6723 287.816 78.706 284.087 78.0459 279.67L56.3913 134.79C55.7311 130.374 57.4774 125.94 60.9724 123.16L175.614 31.9669C179.109 29.1868 183.822 28.4824 187.977 30.1191L324.274 83.8054Z" stroke="url(#paint3_angular_2808_12694)" stroke-opacity="0.26"/>
<path d="M373.619 57.8017C377.832 59.2828 380.935 62.8991 381.759 67.2883L419.439 268.042C420.263 272.431 418.682 276.927 415.293 279.835L260.275 412.844C256.886 415.752 252.203 416.631 247.99 415.15L55.2917 347.405C51.0787 345.924 47.9759 342.307 47.152 337.918L9.47169 137.164C8.64787 132.775 10.2282 128.28 13.6174 125.372L168.635 -7.6372C172.024 -10.5452 176.708 -11.4243 180.921 -9.94311L373.619 57.8017Z" stroke="url(#paint4_angular_2808_12694)" stroke-opacity="0.26"/>
<path d="M434.889 7.06613C439.045 8.69944 442.015 12.4261 442.678 16.8423L486.148 306.073C486.812 310.49 485.069 314.925 481.576 317.707L252.829 499.969C249.337 502.752 244.625 503.46 240.468 501.826L-31.7481 394.857C-35.9045 393.223 -38.8738 389.497 -39.5376 385.08L-83.007 95.8492C-83.6707 91.433 -81.928 86.9981 -78.4353 84.2152L150.311 -98.046C153.804 -100.829 158.516 -101.537 162.673 -99.9038L434.889 7.06613Z" stroke="url(#paint5_angular_2808_12694)" stroke-opacity="0.26"/>
<path d="M458.643 39.3637C462.59 41.4523 465.124 45.4881 465.288 49.9509L478.082 396.207C478.247 400.67 476.019 404.882 472.236 407.256L178.766 591.464C174.984 593.838 170.222 594.014 166.275 591.925L-139.989 429.877C-143.936 427.788 -146.47 423.752 -146.634 419.29L-159.428 73.0333C-159.593 68.5706 -157.365 64.3588 -153.582 61.9846L139.888 -122.223C143.67 -124.597 148.432 -124.773 152.379 -122.685L458.643 39.3637Z" stroke="url(#paint6_angular_2808_12694)" stroke-opacity="0.26"/>
<path d="M544.874 41.1237C548.863 43.1325 551.477 47.1165 551.731 51.5751L576.681 488.486C576.936 492.945 574.792 497.201 571.058 499.65L205.157 739.713C201.423 742.163 196.666 742.434 192.677 740.426L-198.174 543.577C-202.162 541.568 -204.776 537.584 -205.031 533.126L-229.98 96.2144C-230.235 91.7558 -228.092 87.5001 -224.358 85.0504L141.544 -155.012C145.278 -157.462 150.035 -157.734 154.023 -155.725L544.874 41.1237Z" stroke="url(#paint7_angular_2808_12694)" stroke-opacity="0.26"/>
<path d="M544.874 41.1237C548.863 43.1325 551.477 47.1165 551.731 51.5751L576.681 488.486C576.936 492.945 574.792 497.201 571.058 499.65L205.157 739.713C201.423 742.163 196.666 742.434 192.677 740.426L-198.174 543.577C-202.162 541.568 -204.776 537.584 -205.031 533.126L-229.98 96.2144C-230.235 91.7558 -228.092 87.5001 -224.358 85.0504L141.544 -155.012C145.278 -157.462 150.035 -157.734 154.023 -155.725L544.874 41.1237Z" stroke="url(#paint8_angular_2808_12694)" stroke-opacity="0.26"/>
<defs>
<radialGradient id="paint0_angular_2808_12694" cx="0" cy="0" r="1" gradientUnits="userSpaceOnUse" gradientTransform="translate(184.808 168.455) rotate(135) scale(66)">
<stop stop-color="#A3C73D"/>
<stop offset="0.229167" stop-color="#FDBA16"/>
<stop offset="0.484375" stop-color="#3082BA"/>
<stop offset="0.770833" stop-color="#FFDF06"/>
<stop offset="1" stop-color="#EC1D26"/>
</radialGradient>
<radialGradient id="paint1_angular_2808_12694" cx="0" cy="0" r="1" gradientUnits="userSpaceOnUse" gradientTransform="translate(188.752 176.461) rotate(150) scale(93.5887)">
<stop stop-color="#A3C73D"/>
<stop offset="0.229167" stop-color="#FDBA16"/>
<stop offset="0.484375" stop-color="#3082BA"/>
<stop offset="0.770833" stop-color="#FFDF06"/>
<stop offset="1" stop-color="#EC1D26"/>
</radialGradient>
<radialGradient id="paint2_angular_2808_12694" cx="0" cy="0" r="1" gradientUnits="userSpaceOnUse" gradientTransform="translate(195.345 177.726) rotate(141.171) scale(128.004)">
<stop stop-color="#A3C73D"/>
<stop offset="0.229167" stop-color="#FDBA16"/>
<stop offset="0.484375" stop-color="#3082BA"/>
<stop offset="0.770833" stop-color="#FFDF06"/>
<stop offset="1" stop-color="#EC1D26"/>
</radialGradient>
<radialGradient id="paint3_angular_2808_12694" cx="0" cy="0" r="1" gradientUnits="userSpaceOnUse" gradientTransform="translate(205.051 186.629) rotate(141.499) scale(161.5)">
<stop stop-color="#A3C73D"/>
<stop offset="0.229167" stop-color="#FDBA16"/>
<stop offset="0.484375" stop-color="#3082BA"/>
<stop offset="0.770833" stop-color="#FFDF06"/>
<stop offset="1" stop-color="#EC1D26"/>
</radialGradient>
<radialGradient id="paint4_angular_2808_12694" cx="0" cy="0" r="1" gradientUnits="userSpaceOnUse" gradientTransform="translate(214.455 202.603) rotate(139.37) scale(219.271)">
<stop stop-color="#A3C73D"/>
<stop offset="0.229167" stop-color="#FDBA16"/>
<stop offset="0.484375" stop-color="#3082BA"/>
<stop offset="0.770833" stop-color="#FFDF06"/>
<stop offset="1" stop-color="#EC1D26"/>
</radialGradient>
<radialGradient id="paint5_angular_2808_12694" cx="0" cy="0" r="1" gradientUnits="userSpaceOnUse" gradientTransform="translate(201.57 200.961) rotate(141.453) scale(307.491)">
<stop stop-color="#A3C73D"/>
<stop offset="0.229167" stop-color="#FDBA16"/>
<stop offset="0.484375" stop-color="#3082BA"/>
<stop offset="0.770833" stop-color="#FFDF06"/>
<stop offset="1" stop-color="#EC1D26"/>
</radialGradient>
<radialGradient id="paint6_angular_2808_12694" cx="0" cy="0" r="1" gradientUnits="userSpaceOnUse" gradientTransform="translate(159.327 234.62) rotate(147.884) scale(361.504)">
<stop stop-color="#A3C73D"/>
<stop offset="0.229167" stop-color="#FDBA16"/>
<stop offset="0.484375" stop-color="#3082BA"/>
<stop offset="0.770833" stop-color="#FFDF06"/>
<stop offset="1" stop-color="#EC1D26"/>
</radialGradient>
<radialGradient id="paint7_angular_2808_12694" cx="0" cy="0" r="1" gradientUnits="userSpaceOnUse" gradientTransform="translate(173.35 292.35) rotate(146.732) scale(452.634)">
<stop stop-color="#A3C73D"/>
<stop offset="0.229167" stop-color="#FDBA16"/>
<stop offset="0.484375" stop-color="#3082BA"/>
<stop offset="0.770833" stop-color="#FFDF06"/>
<stop offset="1" stop-color="#EC1D26"/>
</radialGradient>
<radialGradient id="paint8_angular_2808_12694" cx="0" cy="0" r="1" gradientUnits="userSpaceOnUse" gradientTransform="translate(173.35 292.35) rotate(146.732) scale(452.634)">
<stop stop-color="#A3C73D"/>
<stop offset="0.229167" stop-color="#FDBA16"/>
<stop offset="0.484375" stop-color="#3082BA"/>
<stop offset="0.770833" stop-color="#FFDF06"/>
<stop offset="1" stop-color="#EC1D26"/>
</radialGradient>
</defs>
</svg>
