<svg width="390" height="844" viewBox="0 0 390 844" fill="none" xmlns="http://www.w3.org/2000/svg">
<path d="M203.968 364.21L240.023 400.264C243.181 403.422 244.414 408.025 243.258 412.338L230.061 461.59C228.905 465.904 225.536 469.273 221.222 470.429L171.971 483.626C167.657 484.782 163.055 483.548 159.897 480.39L123.842 444.336C120.684 441.178 119.451 436.575 120.607 432.262L133.804 383.01C134.96 378.697 138.329 375.327 142.643 374.171L191.894 360.975C196.208 359.819 200.811 361.052 203.968 364.21Z" stroke="url(#paint0_angular_1_16)" stroke-opacity="0.26"/>
<path d="M239.465 352.961L278.754 421.012C280.987 424.879 280.987 429.644 278.754 433.512L239.465 501.562C237.232 505.429 233.106 507.812 228.64 507.812L150.062 507.812C145.596 507.812 141.47 505.429 139.237 501.562L99.948 433.512C97.7151 429.644 97.7151 424.879 99.948 421.012L139.237 352.961C141.47 349.094 145.596 346.711 150.062 346.711L228.64 346.711C233.106 346.711 237.232 349.094 239.465 352.961Z" stroke="url(#paint1_angular_1_16)" stroke-opacity="0.26"/>
<path d="M246.239 311.856L317.085 399.88C319.885 403.359 320.617 408.068 319.004 412.232L278.196 517.599C276.584 521.764 272.872 524.751 268.459 525.437L156.804 542.78C152.391 543.465 147.948 541.744 145.148 538.265L74.3012 450.241C71.5012 446.763 70.7698 442.054 72.3826 437.89L113.19 332.523C114.803 328.358 118.515 325.37 122.928 324.685L234.582 307.342C238.995 306.656 243.439 308.377 246.239 311.856Z" stroke="url(#paint2_angular_1_16)" stroke-opacity="0.26"/>
<path d="M272.019 283.84L363.212 398.482C365.993 401.977 366.697 406.69 365.06 410.845L311.374 547.141C309.737 551.296 306.008 554.263 301.591 554.923L156.712 576.577C152.295 577.238 147.862 575.491 145.082 571.996L53.8885 457.354C51.1084 453.859 50.404 449.147 52.0407 444.992L105.727 308.695C107.364 304.54 111.093 301.574 115.51 300.913L260.389 279.259C264.806 278.599 269.239 280.345 272.019 283.84Z" stroke="url(#paint3_angular_1_16)" stroke-opacity="0.26"/>
<path d="M301.914 236.212L434.923 391.23C437.831 394.619 438.71 399.303 437.229 403.516L369.484 596.214C368.003 600.427 364.387 603.53 359.997 604.353L159.244 642.034C154.854 642.858 150.359 641.277 147.451 637.888L14.442 482.87C11.534 479.481 10.6549 474.798 12.1361 470.585L79.8809 277.887C81.362 273.674 84.9783 270.571 89.3675 269.747L290.121 232.067C294.511 231.243 299.006 232.823 301.914 236.212Z" stroke="url(#paint4_angular_1_16)" stroke-opacity="0.26"/>
<path d="M329.449 162.065L511.71 390.812C514.493 394.304 515.201 399.016 513.568 403.173L406.598 675.389C404.965 679.545 401.238 682.515 396.822 683.178L107.591 726.648C103.174 727.312 98.7395 725.569 95.9566 722.076L-86.3047 493.329C-89.0876 489.837 -89.7958 485.125 -88.1625 480.968L18.8075 208.752C20.4408 204.596 24.1674 201.626 28.5837 200.963L317.815 157.493C322.231 156.829 326.666 158.572 329.449 162.065Z" stroke="url(#paint5_angular_1_16)" stroke-opacity="0.26"/>
<path d="M494.768 -64.7197L752.401 345.727C754.775 349.509 754.951 354.271 752.863 358.218L526.222 786.558C524.133 790.505 520.097 793.038 515.635 793.203L31.3613 811.097C26.8986 811.261 22.6868 809.033 20.3126 805.251L-237.32 394.804C-239.694 391.022 -239.87 386.26 -237.782 382.313L-11.141 -46.027C-9.05238 -49.9744 -5.01658 -52.5076 -0.553798 -52.6725L483.72 -70.5657C488.182 -70.7307 492.394 -68.5022 494.768 -64.7197Z" stroke="url(#paint6_angular_1_16)" stroke-opacity="0.26"/>
<path d="M464.645 91.1817L718.968 478.819C721.418 482.553 721.69 487.31 719.681 491.299L511.139 905.368C509.13 909.356 505.146 911.97 500.687 912.225L37.8219 938.656C33.3634 938.911 29.1077 936.768 26.6579 933.034L-227.665 545.396C-230.115 541.663 -230.387 536.905 -228.378 532.917L-19.8358 118.848C-17.8271 114.859 -13.843 112.245 -9.38445 111.991L453.481 85.559C457.939 85.3044 462.195 87.4478 464.645 91.1817Z" stroke="url(#paint7_angular_1_16)" stroke-opacity="0.26"/>
<path d="M501.795 17.419L778.771 439.583C781.22 443.317 781.492 448.074 779.483 452.063L552.366 903.013C550.357 907.002 546.373 909.616 541.915 909.87L37.8219 938.656C33.3634 938.911 29.1076 936.768 26.6579 933.034L-250.318 510.869C-252.768 507.135 -253.039 502.378 -251.031 498.39L-23.9136 47.4394C-21.9048 43.4508 -17.9208 40.837 -13.4622 40.5824L490.631 11.7964C495.089 11.5417 499.345 13.6851 501.795 17.419Z" stroke="url(#paint8_angular_1_16)" stroke-opacity="0.26"/>
<defs>
<radialGradient id="paint0_angular_1_16" cx="0" cy="0" r="1" gradientUnits="userSpaceOnUse" gradientTransform="translate(181.933 422.3) rotate(105) scale(66)">
<stop stop-color="#A3C73D"/>
<stop offset="0.229167" stop-color="#FDBA16"/>
<stop offset="0.484375" stop-color="#3082BA"/>
<stop offset="0.770833" stop-color="#FFDF06"/>
<stop offset="1" stop-color="#EC1D26"/>
</radialGradient>
<radialGradient id="paint1_angular_1_16" cx="0" cy="0" r="1" gradientUnits="userSpaceOnUse" gradientTransform="translate(189.351 427.262) rotate(120) scale(93.5887)">
<stop stop-color="#A3C73D"/>
<stop offset="0.229167" stop-color="#FDBA16"/>
<stop offset="0.484375" stop-color="#3082BA"/>
<stop offset="0.770833" stop-color="#FFDF06"/>
<stop offset="1" stop-color="#EC1D26"/>
</radialGradient>
<radialGradient id="paint2_angular_1_16" cx="0" cy="0" r="1" gradientUnits="userSpaceOnUse" gradientTransform="translate(195.693 425.061) rotate(111.171) scale(128.004)">
<stop stop-color="#A3C73D"/>
<stop offset="0.229167" stop-color="#FDBA16"/>
<stop offset="0.484375" stop-color="#3082BA"/>
<stop offset="0.770833" stop-color="#FFDF06"/>
<stop offset="1" stop-color="#EC1D26"/>
</radialGradient>
<radialGradient id="paint3_angular_1_16" cx="0" cy="0" r="1" gradientUnits="userSpaceOnUse" gradientTransform="translate(208.55 427.918) rotate(111.499) scale(161.5)">
<stop stop-color="#A3C73D"/>
<stop offset="0.229167" stop-color="#FDBA16"/>
<stop offset="0.484375" stop-color="#3082BA"/>
<stop offset="0.770833" stop-color="#FFDF06"/>
<stop offset="1" stop-color="#EC1D26"/>
</radialGradient>
<radialGradient id="paint4_angular_1_16" cx="0" cy="0" r="1" gradientUnits="userSpaceOnUse" gradientTransform="translate(224.682 437.05) rotate(109.37) scale(219.271)">
<stop stop-color="#A3C73D"/>
<stop offset="0.229167" stop-color="#FDBA16"/>
<stop offset="0.484375" stop-color="#3082BA"/>
<stop offset="0.770833" stop-color="#FFDF06"/>
<stop offset="1" stop-color="#EC1D26"/>
</radialGradient>
<radialGradient id="paint5_angular_1_16" cx="0" cy="0" r="1" gradientUnits="userSpaceOnUse" gradientTransform="translate(212.703 442.07) rotate(111.453) scale(307.491)">
<stop stop-color="#A3C73D"/>
<stop offset="0.229167" stop-color="#FDBA16"/>
<stop offset="0.484375" stop-color="#3082BA"/>
<stop offset="0.770833" stop-color="#FFDF06"/>
<stop offset="1" stop-color="#EC1D26"/>
</radialGradient>
<radialGradient id="paint6_angular_1_16" cx="0" cy="0" r="1" gradientUnits="userSpaceOnUse" gradientTransform="translate(257.54 370.265) rotate(117.884) scale(499.615)">
<stop stop-color="#A3C73D"/>
<stop offset="0.229167" stop-color="#FDBA16"/>
<stop offset="0.484375" stop-color="#3082BA"/>
<stop offset="0.770833" stop-color="#FFDF06"/>
<stop offset="1" stop-color="#EC1D26"/>
</radialGradient>
<radialGradient id="paint7_angular_1_16" cx="0" cy="0" r="1" gradientUnits="userSpaceOnUse" gradientTransform="translate(245.651 512.108) rotate(116.732) scale(478.631)">
<stop stop-color="#A3C73D"/>
<stop offset="0.229167" stop-color="#FDBA16"/>
<stop offset="0.484375" stop-color="#3082BA"/>
<stop offset="0.770833" stop-color="#FFDF06"/>
<stop offset="1" stop-color="#EC1D26"/>
</radialGradient>
<radialGradient id="paint8_angular_1_16" cx="0" cy="0" r="1" gradientUnits="userSpaceOnUse" gradientTransform="translate(264.226 475.226) rotate(116.732) scale(519.925)">
<stop stop-color="#A3C73D"/>
<stop offset="0.229167" stop-color="#FDBA16"/>
<stop offset="0.484375" stop-color="#3082BA"/>
<stop offset="0.770833" stop-color="#FFDF06"/>
<stop offset="1" stop-color="#EC1D26"/>
</radialGradient>
</defs>
</svg>
