<svg width="195" height="165" viewBox="0 0 195 165" fill="none" xmlns="http://www.w3.org/2000/svg">
<g clip-path="url(#clip0_705_10070)">
<path d="M41.2456 164.136C41.1892 164.136 41.1328 164.136 41.1328 164.08C41.0199 164.023 40.9635 163.854 41.0199 163.685C46.3238 153.641 52.8125 144.162 60.2604 135.529C60.3732 135.417 60.5425 135.417 60.6554 135.529C60.7682 135.642 60.7682 135.812 60.6554 135.924C53.2639 144.501 46.7751 153.924 41.4713 163.967C41.4713 164.08 41.3585 164.136 41.2456 164.136Z" fill="black"/>
<path d="M34.4747 158.776C34.4183 158.776 34.3619 158.776 34.3054 158.72C34.1926 158.607 34.1362 158.438 34.249 158.325C39.9478 150.087 46.4929 142.357 53.6023 135.304C53.7152 135.191 53.8844 135.191 53.9973 135.304C54.1101 135.417 54.1101 135.586 53.9973 135.699C46.8879 142.695 40.3992 150.425 34.7004 158.663C34.644 158.72 34.5876 158.776 34.4747 158.776Z" fill="black"/>
<path d="M0.282118 140.438C0.169271 140.438 0.0564236 140.326 0 140.213C0 140.043 0.0564236 139.931 0.225694 139.874C17.9427 137.109 34.9262 131.467 50.7248 123.003C50.8377 122.947 51.0069 123.003 51.1198 123.116C51.1762 123.229 51.1198 123.398 51.0069 123.511C35.1519 131.975 18.0556 137.674 0.282118 140.438Z" fill="black"/>
<path d="M2.03117 158.776C1.91832 158.776 1.8619 158.72 1.80547 158.663C1.74905 158.55 1.74905 158.381 1.91832 158.268L50.2169 128.364C50.3298 128.307 50.4991 128.307 50.6119 128.477C50.6683 128.589 50.6683 128.759 50.4991 128.872L2.20044 158.776C2.08759 158.776 2.08759 158.776 2.03117 158.776Z" fill="black"/>
<path d="M68.3291 68.4983C68.3291 67.6519 69.0062 66.9749 69.8525 66.9749C70.6989 66.9749 71.376 67.6519 71.376 68.4983C71.376 69.3446 70.6989 70.0217 69.8525 70.0217C69.0626 70.0217 68.3291 69.3446 68.3291 68.4983Z" fill="white"/>
<path d="M69.9091 70.3039C68.8934 70.3039 68.1035 69.5139 68.1035 68.4983C68.1035 67.4827 68.8934 66.6927 69.9091 66.6927C70.9247 66.6927 71.7146 67.4827 71.7146 68.4983C71.7146 69.5139 70.8683 70.3039 69.9091 70.3039ZM69.9091 67.257C69.232 67.257 68.6678 67.8212 68.6678 68.4983C68.6678 69.1754 69.232 69.7396 69.9091 69.7396C70.5862 69.7396 71.1504 69.1754 71.1504 68.4983C71.1504 67.8212 70.5862 67.257 69.9091 67.257Z" fill="black"/>
<path d="M133.442 35.8291C133.442 34.9827 134.119 34.3057 134.965 34.3057C135.812 34.3057 136.489 34.9827 136.489 35.8291C136.489 36.6755 135.812 37.3525 134.965 37.3525C134.175 37.3525 133.442 36.6755 133.442 35.8291Z" fill="white"/>
<path d="M135.022 37.6345C134.006 37.6345 133.216 36.8446 133.216 35.829C133.216 34.8134 134.006 34.0234 135.022 34.0234C136.037 34.0234 136.827 34.8134 136.827 35.829C136.827 36.8446 135.981 37.6345 135.022 37.6345ZM135.022 34.5877C134.345 34.5877 133.781 35.1519 133.781 35.829C133.781 36.5061 134.345 37.0703 135.022 37.0703C135.699 37.0703 136.263 36.5061 136.263 35.829C136.263 35.1519 135.699 34.5877 135.022 34.5877Z" fill="black"/>
<path d="M137.166 121.706C137.166 120.295 138.351 119.11 139.761 119.11C141.172 119.11 142.357 120.295 142.357 121.706C142.357 123.116 141.172 124.301 139.761 124.301C138.351 124.301 137.166 123.116 137.166 121.706Z" fill="white"/>
<path d="M139.761 124.527C138.182 124.527 136.884 123.229 136.884 121.649C136.884 120.069 138.182 118.772 139.761 118.772C141.341 118.772 142.639 120.069 142.639 121.649C142.583 123.286 141.285 124.527 139.761 124.527ZM139.761 119.392C138.464 119.392 137.448 120.408 137.448 121.706C137.448 123.003 138.464 124.019 139.761 124.019C141.059 124.019 142.075 123.003 142.075 121.706C142.075 120.408 141.003 119.392 139.761 119.392Z" fill="black"/>
<path d="M186.593 91.4627C174.462 91.7449 162.387 92.0834 150.256 92.3655C146.871 92.4784 143.203 92.4219 140.664 90.2214C137.787 87.7388 137.787 82.7735 140.608 80.2909C143.429 77.8082 148.507 78.3724 150.651 81.4757C150.595 76.5105 155.673 72.3916 160.751 72.5608C165.829 72.7301 170.287 76.5669 172.149 81.1936C171.81 78.0903 175.534 75.5513 178.637 76.3412C181.741 77.1311 183.716 80.4037 183.828 83.507C186.085 80.2909 191.897 80.4037 193.985 83.7891C194.549 84.6919 194.831 85.7639 194.718 86.7796C194.492 88.9801 192.405 90.6728 190.204 91.237C187.947 91.8577 185.634 91.5192 186.593 91.4627Z" fill="white"/>
<path d="M148.733 92.704C145.686 92.704 142.639 92.3655 140.438 90.5035C139.028 89.2622 138.181 87.4002 138.181 85.3689C138.181 83.3377 138.971 81.4193 140.382 80.2344C141.793 78.9931 143.824 78.4288 145.855 78.6545C147.661 78.8802 149.24 79.6702 150.369 80.8551C150.538 78.8802 151.497 77.0182 153.077 75.4384C155.108 73.4071 157.986 72.2787 160.751 72.3915C165.265 72.5608 169.722 75.6641 171.866 80.1215C172.036 79.1623 172.6 78.2596 173.446 77.5261C174.913 76.2847 176.944 75.7769 178.637 76.2283C181.74 77.0747 183.602 80.1216 183.997 82.9992C185.182 81.7578 186.988 81.0243 188.963 81.0807C191.22 81.1372 193.194 82.1528 194.21 83.8455C194.831 84.8611 195.113 85.9896 195 87.0052C194.718 89.4879 192.348 91.1806 190.26 91.6884C188.85 92.0269 186.819 92.0834 186.254 91.8577L150.2 92.7604C149.748 92.704 149.24 92.704 148.733 92.704ZM144.952 79.1059C143.372 79.1059 141.849 79.6137 140.777 80.5729C139.479 81.7014 138.746 83.4505 138.746 85.3125C138.746 87.2309 139.536 88.9236 140.833 90.0521C143.203 92.0834 146.645 92.1962 150.256 92.0834L186.536 91.1806H186.593C186.649 91.1806 186.762 91.237 186.819 91.2934C187.439 91.3498 188.793 91.4063 190.148 91.0677C192.066 90.6163 194.266 89.0929 194.492 86.836C194.605 85.9332 194.323 84.9176 193.759 84.0148C192.799 82.4913 191.05 81.5886 188.963 81.5321C186.875 81.4757 185.069 82.3221 184.054 83.7327C183.997 83.8455 183.885 83.8455 183.772 83.8455C183.659 83.7891 183.602 83.7327 183.602 83.6198C183.49 80.7986 181.74 77.5261 178.581 76.6797C177.057 76.2847 175.195 76.7361 173.898 77.8646C172.826 78.7674 172.318 80.0087 172.431 81.1936C172.431 81.3064 172.374 81.4757 172.205 81.4757C172.092 81.5321 171.923 81.4193 171.866 81.3064C169.948 76.5104 165.378 73.0122 160.751 72.8429C158.155 72.7301 155.447 73.8021 153.472 75.7205C151.779 77.3568 150.877 79.388 150.933 81.4757C150.933 81.5886 150.877 81.7014 150.764 81.7578C150.651 81.8143 150.538 81.7578 150.482 81.645C149.466 80.2344 147.83 79.3316 145.911 79.1059C145.516 79.1059 145.234 79.1059 144.952 79.1059Z" fill="black"/>
<g opacity="0.1294">
<path d="M193.138 88.1337C193.138 88.1901 193.138 88.1901 193.138 88.1337C192.574 88.5851 192.63 88.6415 191.784 89.0365C191.276 89.2622 190.091 89.5443 189.076 89.6007C187.947 89.6571 186.762 89.4314 185.634 89.4314C182.53 89.4314 179.484 89.4878 176.38 89.4878C172.431 89.5443 168.425 89.6007 164.475 89.6571C163.064 89.7135 161.71 89.8264 160.3 89.9392C158.72 90.0521 157.083 90.1085 155.447 90.1649C153.021 90.2214 150.651 90.3906 148.225 90.2213C147.83 90.1649 147.379 90.0521 147.096 90.3906C146.645 90.842 146.984 91.7448 147.661 91.6884C149.353 91.9141 151.046 91.8576 152.682 91.8012C153.359 91.8012 153.98 91.7448 154.657 91.7448C154.714 91.9141 154.883 92.0269 155.109 91.9705C157.083 92.1398 159.058 92.0269 161.033 92.1398C165.66 92.309 170.343 92.2526 174.97 91.9705C176.662 91.8576 178.412 91.8012 180.104 91.7448C180.725 91.7448 181.289 91.6884 181.91 91.6319C182.079 91.6319 182.305 91.6319 182.418 91.4627C182.53 91.3498 182.53 91.237 182.53 91.1241C183.659 91.1241 184.731 91.1241 185.859 91.1241C186.142 91.1241 186.424 91.1241 186.706 91.1241C186.706 91.2934 186.762 91.4627 186.931 91.5191C187.101 91.6319 187.326 91.5755 187.496 91.5755C187.834 91.5191 188.173 91.5191 188.511 91.4627C189.076 91.4062 189.64 91.237 190.204 91.1241C190.43 91.0677 190.712 91.0113 190.938 90.8984C191.05 90.7856 191.107 90.6727 191.107 90.5599C192.01 90.2778 192.856 89.77 193.477 89.0929C193.646 88.8672 193.984 88.6979 193.984 88.3594C193.984 88.0773 193.42 87.8516 193.138 88.1337Z" fill="black"/>
</g>
<path d="M122.214 159.622C129.154 159.735 136.15 159.566 143.034 159.115C143.937 159.058 144.84 159.002 145.686 158.607C147.717 157.591 148.225 154.431 146.645 152.795C145.065 151.159 142.019 151.328 140.551 153.077C140.439 150.482 138.407 147.999 135.868 147.83C134.232 147.717 132.596 148.563 131.467 149.748C130.339 150.933 129.605 152.457 128.985 153.98C128.815 152.908 127.687 152.118 126.558 152.005C125.43 151.892 124.358 152.344 123.399 152.852C122.101 153.585 120.803 154.601 120.295 156.011C119.9 157.422 120.408 159.622 122.214 159.622Z" fill="white"/>
<path d="M126.276 159.961C124.922 159.961 123.568 159.961 122.27 159.905C121.537 159.905 120.916 159.566 120.521 159.002C119.957 158.212 119.844 156.914 120.182 155.898C120.634 154.601 121.706 153.472 123.399 152.569C124.696 151.892 125.712 151.61 126.728 151.667C127.63 151.723 128.646 152.287 129.097 153.134C129.605 151.949 130.282 150.595 131.354 149.466C132.652 148.112 134.345 147.378 135.981 147.491C138.351 147.661 140.495 149.805 140.89 152.4C141.623 151.723 142.695 151.328 143.767 151.328C145.009 151.272 146.194 151.723 146.927 152.569C147.774 153.416 148.112 154.77 147.886 156.068C147.661 157.309 146.927 158.325 145.912 158.832C145.009 159.284 143.993 159.34 143.147 159.397C137.504 159.735 131.862 159.961 126.276 159.961ZM122.214 159.34C129.154 159.453 136.15 159.284 143.034 158.832C143.88 158.776 144.783 158.72 145.573 158.325C146.419 157.873 147.04 157.027 147.266 155.955C147.491 154.826 147.153 153.698 146.476 152.964C145.799 152.231 144.783 151.892 143.711 151.892C142.583 151.949 141.51 152.4 140.833 153.19C140.777 153.303 140.664 153.303 140.551 153.247C140.438 153.19 140.382 153.134 140.382 153.021C140.269 150.425 138.238 148.168 135.925 147.999C134.514 147.886 132.934 148.563 131.749 149.805C130.564 151.046 129.831 152.682 129.323 153.98C129.267 154.093 129.154 154.149 129.041 154.149C128.928 154.149 128.815 154.036 128.815 153.924C128.646 152.908 127.574 152.287 126.671 152.175C125.768 152.118 124.809 152.344 123.681 153.021C122.101 153.867 121.142 154.883 120.747 156.068C120.464 156.914 120.577 157.986 121.029 158.663C121.254 159.115 121.706 159.34 122.214 159.34Z" fill="black"/>
<g opacity="0.1294">
<path d="M147.661 155.786C147.661 155.391 147.097 155.109 146.758 155.334C146.645 155.391 146.589 155.447 146.533 155.56C146.533 155.56 146.533 155.56 146.476 155.616C146.25 155.899 146.138 156.237 145.686 156.463C145.235 156.745 142.301 157.309 141.906 157.366C140.439 157.478 139.028 157.591 137.561 157.535C136.828 157.478 136.038 157.535 135.304 157.535C134.458 157.535 133.611 157.478 132.765 157.535C130.621 157.591 128.477 157.76 126.276 157.93C125.261 157.93 124.189 157.986 123.173 158.043C122.835 158.043 122.496 158.043 122.158 158.099C121.988 158.099 121.763 158.155 121.65 158.325C121.198 158.72 121.537 159.566 122.158 159.51C123.85 159.453 125.486 159.453 127.179 159.397C128.985 159.34 130.734 159.171 132.539 159.171C133.555 159.115 134.571 159.228 135.586 159.228C136.658 159.228 137.674 159.228 138.746 159.228C140.213 159.171 141.454 159.002 142.526 158.833C142.583 159.115 142.865 159.34 143.26 159.228C144.05 159.115 144.783 159.002 145.517 158.72C145.855 158.55 146.194 158.438 146.42 158.155C146.533 157.986 146.533 157.817 146.476 157.648C146.589 157.591 146.702 157.478 146.871 157.366C147.266 157.027 147.605 156.632 147.717 156.124C147.717 156.124 147.717 156.124 147.717 156.068C147.661 155.955 147.661 155.899 147.661 155.786Z" fill="black"/>
</g>
<path d="M60.937 7.72997C60.4856 7.84281 60.2599 7.22215 60.6549 6.99646C61.7833 6.3758 65.3944 5.81156 65.9022 5.75514C66.4665 5.69872 67.0871 5.64229 67.5385 5.58587C66.1279 5.02163 63.9274 3.55462 62.404 3.4982C62.009 3.4982 61.8397 2.99038 62.1783 2.82111C62.2347 2.82111 62.2347 2.76469 62.2911 2.76469C62.6297 2.65184 62.9682 2.65184 63.3068 2.65184C65.1123 2.65184 66.8614 3.78031 68.667 4.2317C69.0055 4.34455 70.0776 4.62667 70.4726 4.68309C70.4726 3.15965 70.6418 1.91833 71.2061 0.677015C71.3753 0.225626 72.0524 0.225626 72.2217 0.733438C72.2217 1.80549 71.996 2.20045 72.5038 4.40097C72.6731 5.02163 73.463 5.75514 73.7451 6.31938C74.1401 7.16573 74.1965 8.12493 74.4786 9.02771C74.8736 10.4383 75.72 11.7925 76.8484 12.7517C76.7356 13.1466 76.0021 13.8237 75.0993 13.993C74.1401 12.4695 72.5038 11.4539 70.8675 10.664C70.134 10.3255 69.4005 10.0433 68.6106 10.0433C68.1028 10.0433 67.595 10.2126 67.0871 10.3819C65.6766 10.7204 63.4196 11.3411 63.4196 11.3411C62.8554 11.2282 63.1939 10.7768 63.4196 10.7204L65.3944 9.81764C65.9587 9.64837 66.7486 9.36625 67.1436 8.85844C66.0151 8.35063 63.7017 9.2534 61.614 9.64837C60.937 9.76122 60.9934 9.2534 61.2191 8.97129C61.8397 8.2942 66.4665 7.5607 67.3693 7.27858C67.3128 7.10931 62.6861 7.22215 60.937 7.72997Z" fill="white"/>
<path d="M75.043 14.2187C74.9302 14.2187 74.8737 14.1623 74.8173 14.1059C74.0274 12.8646 72.6732 11.7925 70.7548 10.8897C69.9649 10.4948 69.2878 10.2691 68.6107 10.3255C68.2722 10.3255 67.8772 10.4383 67.5387 10.5512C67.4258 10.6076 67.313 10.6076 67.1437 10.664C65.7331 11.0026 63.5326 11.6232 63.4762 11.6232C63.4197 11.6232 63.4197 11.6232 63.3633 11.6232C62.9119 11.5104 62.8555 11.2283 62.8555 11.1154C62.8555 10.8333 63.0812 10.5512 63.3633 10.4383L65.2817 9.53556H65.3381C65.846 9.42272 66.2973 9.19702 66.6359 8.97133C65.9024 8.85848 64.7739 9.1406 63.6454 9.42272C63.0248 9.59199 62.3477 9.76126 61.6706 9.8741C61.2192 9.93053 60.9935 9.81768 60.8807 9.64841C60.7114 9.36629 60.8242 9.02775 60.9935 8.80206C60.9935 8.80206 60.9935 8.80206 60.9935 8.74563C61.3321 8.35067 62.6298 8.01213 64.3225 7.61716C63.0812 7.67358 61.7834 7.84285 61.0499 8.01213C60.7114 8.06855 60.4293 7.9557 60.3164 7.61716C60.2036 7.27862 60.3164 6.94008 60.5986 6.77081H60.655C61.8963 6.0373 65.6203 5.52949 66.0152 5.52949C66.2409 5.52949 66.4666 5.47306 66.6923 5.47306C66.523 5.36022 66.3538 5.30379 66.1281 5.19094C64.9432 4.57028 63.5326 3.8932 62.517 3.83678C62.2348 3.83678 61.9527 3.66751 61.8963 3.38539C61.8399 3.10327 61.9527 2.82115 62.1784 2.65188C62.2348 2.65188 62.2913 2.59546 62.3477 2.59546C62.6862 2.42619 63.0812 2.42619 63.4762 2.42619C64.6611 2.42619 65.8459 2.87758 66.9744 3.32897C67.5951 3.55466 68.2722 3.83678 68.8928 4.00605C69.0057 4.00605 69.1185 4.06247 69.2878 4.1189C69.5699 4.23174 70.0777 4.34459 70.3598 4.40101C70.4163 3.04685 70.5291 1.86195 71.0933 0.564209C71.2062 0.225667 71.5447 0.0563965 71.8833 0.0563965C72.2218 0.0563965 72.5039 0.282091 72.6168 0.620633C72.6168 0.620633 72.6168 0.677056 72.6168 0.73348C72.6168 1.0156 72.6168 1.29772 72.6168 1.52341C72.5604 2.14407 72.5604 2.76473 72.8989 4.34459C72.9553 4.62671 73.2374 5.02167 73.5196 5.36022C73.7453 5.64233 73.971 5.92445 74.0838 6.20657C74.3659 6.77081 74.4788 7.39147 74.5916 8.01213C74.648 8.29424 74.7045 8.63278 74.8173 8.9149C75.2123 10.2691 76.0022 11.5668 77.0743 12.526C77.1307 12.5824 77.1871 12.6953 77.1871 12.8081C76.9614 13.2595 76.0586 13.993 75.043 14.2187C75.0994 14.2187 75.0994 14.2187 75.043 14.2187ZM68.7236 9.76126C69.5135 9.76126 70.247 10.0434 70.9805 10.3819C72.9553 11.2847 74.3095 12.3567 75.2123 13.5981C75.8329 13.4288 76.3407 12.9774 76.51 12.6953C75.438 11.6797 74.5916 10.3819 74.2531 8.97133C74.1402 8.63278 74.0838 8.35067 74.0274 8.01213C73.9145 7.39147 73.8017 6.82723 73.5196 6.31942C73.4067 6.09372 73.2374 5.86803 73.0117 5.58591C72.6732 5.19094 72.3911 4.79598 72.2782 4.34459C71.8833 2.70831 71.9397 2.03122 71.9961 1.35414C71.9961 1.12845 71.9961 0.902751 71.9961 0.677056C71.8833 0.564209 71.7704 0.564209 71.714 0.564209C71.6576 0.564209 71.5447 0.564209 71.4319 0.73348C70.8677 2.03122 70.7548 3.21612 70.7548 4.68313C70.7548 4.73956 70.6984 4.8524 70.642 4.8524C70.5855 4.90883 70.5291 4.90883 70.4163 4.90883C70.1341 4.90883 69.5699 4.73956 68.9492 4.57029C68.78 4.51386 68.6671 4.51386 68.5543 4.45744C67.8772 4.28817 67.2001 4.00605 66.5795 3.78035C65.5074 3.38539 64.3789 2.934 63.3069 2.934C62.9683 2.934 62.6862 2.934 62.4041 3.04685C62.3477 3.04685 62.3477 3.04685 62.2913 3.10327C62.2348 3.10327 62.2348 3.15969 62.2348 3.21612C62.2348 3.27254 62.2913 3.27254 62.3477 3.27254C63.5326 3.27254 64.9432 4.00605 66.1845 4.68313C66.6923 4.96525 67.2001 5.19094 67.5951 5.36022C67.7079 5.41664 67.7644 5.52949 67.7644 5.64233C67.7644 5.75518 67.6515 5.86803 67.5387 5.86803C67.0308 5.92445 66.4666 5.98088 65.8459 6.0373C65.3381 6.09372 61.7834 6.60154 60.7114 7.22219C60.5986 7.27862 60.655 7.39147 60.655 7.39147C60.7114 7.50431 60.7678 7.44789 60.7678 7.44789C62.517 6.9965 67.0308 6.88365 67.2001 6.88365C67.313 6.88365 67.4258 6.9965 67.4822 7.10935C67.4822 7.2222 67.4258 7.39147 67.313 7.39147C66.9744 7.50431 66.3538 7.61716 65.5074 7.84285C64.0968 8.12497 61.727 8.63278 61.3321 9.02775C61.2756 9.1406 61.2192 9.25344 61.2756 9.25344C61.2756 9.25344 61.2756 9.25344 61.3321 9.25344C61.3885 9.25344 61.3885 9.25344 61.5013 9.25344C62.122 9.1406 62.7991 8.97133 63.4197 8.80206C64.9996 8.40709 66.3538 8.06855 67.2001 8.46351C67.2565 8.51994 67.313 8.57636 67.3694 8.63278C67.3694 8.68921 67.3694 8.80206 67.313 8.85848C66.8616 9.47914 65.846 9.81768 65.451 9.93053L63.5326 10.8333H63.4762C63.4762 10.8333 63.4197 10.8897 63.3633 10.9462C63.7583 10.8333 65.6767 10.3255 66.9744 10.0434C67.0873 9.98695 67.2001 9.98695 67.313 9.93053C67.7079 9.81768 68.1029 9.70483 68.4979 9.70483C68.6107 9.76126 68.6671 9.76126 68.7236 9.76126Z" fill="black"/>
<path d="M105.343 62.5173C105.964 62.2916 106.641 62.348 107.318 62.4045C109.123 62.5737 110.929 62.6866 112.791 62.8559C113.863 62.9123 115.048 63.0816 115.668 63.9279C116.063 64.4921 116.176 65.2821 115.951 65.9592C115.725 66.6362 115.33 67.2005 114.822 67.7083C114.314 68.2161 113.637 68.6675 112.904 68.8368C111.38 69.1753 109.857 68.329 108.616 67.3697C107.656 66.6362 106.697 65.7899 105.851 64.8871C105.569 64.5486 105.23 64.21 105.117 63.8151C104.948 63.2508 105.23 62.6302 105.343 62.5173Z" fill="#ACD4F7"/>
<path d="M112.17 69.1753C110.703 69.1753 109.405 68.2725 108.446 67.5955C107.487 66.862 106.528 66.0156 105.625 65.1128C105.286 64.7743 104.948 64.3793 104.835 63.9279C104.666 63.2508 104.948 62.5173 105.117 62.3481C105.173 62.2916 105.173 62.2916 105.23 62.2352C105.907 62.0095 106.697 62.0659 107.318 62.1224L112.791 62.5738C113.919 62.6866 115.16 62.8559 115.894 63.7587C116.345 64.3793 116.458 65.2257 116.232 66.0156C116.063 66.6363 115.612 67.2569 114.991 67.8776C114.314 68.4982 113.637 68.9496 112.96 69.0625C112.734 69.1753 112.452 69.1753 112.17 69.1753ZM105.512 62.743C105.399 62.9123 105.286 63.3637 105.399 63.8151C105.512 64.1536 105.794 64.4922 106.076 64.7743C106.923 65.6206 107.882 66.467 108.841 67.2005C109.857 67.9904 111.38 68.9496 112.847 68.6111C113.411 68.4982 114.032 68.1033 114.596 67.539C115.16 66.9748 115.499 66.467 115.668 65.9027C115.838 65.2821 115.781 64.5486 115.443 64.0972C114.878 63.3637 113.75 63.1944 112.734 63.138L107.261 62.6866C106.697 62.6302 106.076 62.5738 105.512 62.743Z" fill="black"/>
<path d="M91.3495 63.2508C93.8886 54.8437 95.807 46.2109 96.5405 37.0703C91.4623 33.2335 81.0804 32.0486 78.8799 27.2526C75.9459 20.9331 73.1811 16.0243 72.2783 11.6232C72.2783 11.6232 76.5665 10.2126 76.3972 10.2126C77.5257 13.5416 81.4189 19.184 84.6915 23.8672C86.2714 26.1241 94.0578 25.9548 98.8538 27.3654C107.938 30.243 112.621 28.5503 117.135 36.2239C120.069 41.1328 119.787 49.3142 128.42 61.1067C127.122 62.4045 125.768 63.6458 124.244 64.5486C122.777 62.5173 121.31 60.5425 119.843 58.5113C118.715 56.9878 117.643 55.4644 116.74 53.8281C115.837 52.0225 115.217 50.1041 114.596 48.1857C114.032 46.4366 113.524 44.6875 112.79 42.7691C110.421 51.0069 109.292 60.204 104.44 66.9748C99.9259 66.072 95.1299 65 91.3495 63.2508Z" fill="white"/>
<path d="M104.44 67.2568C104.383 67.2568 104.44 67.2568 104.44 67.2568C99.8131 66.2976 95.0171 65.282 91.2367 63.4765C91.1238 63.42 91.0674 63.3072 91.0674 63.1379C93.8322 53.9409 95.5813 45.4209 96.2584 37.1266C94.2271 35.6032 91.2931 34.5311 88.4719 33.4591C84.1273 31.8228 80.0084 30.2429 78.5978 27.3089C77.8643 25.7291 77.1872 24.262 76.4537 22.8515C74.4225 18.6197 72.6733 14.9521 71.9398 11.6232C71.8834 11.5103 71.9962 11.341 72.1091 11.2846C73.5197 10.8332 75.7766 10.0433 76.1716 9.93045C76.228 9.87402 76.3409 9.87402 76.3973 9.87402C76.5101 9.87402 76.5665 9.98687 76.623 10.0997C77.7514 13.3723 81.4754 18.789 84.8608 23.6414C85.7636 24.9391 89.2619 25.4469 92.6473 25.8983C94.8478 26.1804 97.0483 26.519 98.9103 27.0268C101.449 27.8167 103.65 28.2681 105.625 28.6631C110.703 29.6787 114.032 30.3558 117.361 35.9417C118.376 37.6909 119.054 39.835 119.787 42.3176C121.254 47.17 123.003 53.1509 128.646 60.8245C128.702 60.9374 128.702 61.1067 128.646 61.1631C127.179 62.6865 125.768 63.815 124.414 64.6613C124.301 64.7178 124.132 64.7178 124.075 64.6049L119.618 58.6804C118.546 57.157 117.361 55.6336 116.514 53.9409C115.555 52.1353 114.991 50.1605 114.37 48.2421C113.919 46.7751 113.411 45.2516 112.847 43.6153C112.339 45.4209 111.888 47.3393 111.436 49.1449C109.913 55.4643 108.333 62.0094 104.666 67.0876C104.609 67.2004 104.496 67.2568 104.44 67.2568ZM91.6881 63.0815C95.3556 64.7178 99.9259 65.7334 104.327 66.6362C107.882 61.6145 109.405 55.2386 110.929 48.9756C111.436 46.8879 111.944 44.6874 112.565 42.5997C112.621 42.4869 112.678 42.4304 112.791 42.4304C112.903 42.4304 113.016 42.4869 113.073 42.5997C113.806 44.5181 114.37 46.2673 114.935 48.0164C115.499 49.9348 116.119 51.8532 117.022 53.6587C117.869 55.295 118.997 56.8185 120.069 58.3419L124.357 64.1535C125.542 63.3636 126.784 62.348 128.081 61.0502C122.552 53.433 120.633 47.17 119.279 42.5997C118.546 40.1171 117.925 38.0294 116.909 36.3367C113.693 30.92 110.421 30.2994 105.512 29.2837C103.537 28.8888 101.337 28.4374 98.741 27.6475C96.9355 27.1396 94.735 26.8011 92.5909 26.519C88.9233 26.0112 85.4815 25.5598 84.4659 24.0363C81.1369 19.2968 77.5257 13.9365 76.2844 10.6075C75.7766 10.8332 74.761 11.1718 72.6169 11.8488C73.3504 15.065 75.0431 18.6197 77.0179 22.6822C77.695 24.0928 78.4285 25.5598 79.162 27.1396C80.4034 29.848 84.4659 31.3714 88.6976 33.0077C91.6317 34.1362 94.6221 35.2647 96.7662 36.8445C96.8226 36.9009 96.879 37.0138 96.879 37.0702C96.1455 45.3645 94.4528 53.8844 91.6881 63.0815Z" fill="black"/>
<path d="M107.543 23.8673C106.641 25.7857 105.625 27.6476 104.327 29.5096C104.666 30.7509 105.23 31.9923 105.963 33.0643C106.189 33.3464 106.415 33.685 106.753 33.7978C107.148 33.9671 107.6 33.7414 107.995 33.5721C108.954 33.1207 109.97 32.6129 110.477 31.7101C110.703 31.3152 110.759 30.8638 110.872 30.4124C111.211 28.7761 111.493 27.0834 111.831 25.4471C110.872 24.9957 109.913 24.4879 108.954 24.0365C108.446 23.9237 107.995 23.698 107.543 23.8673Z" fill="white"/>
<path d="M107.092 34.1928C106.979 34.1928 106.81 34.1928 106.697 34.1364C106.245 33.9671 105.963 33.6285 105.738 33.29C105.004 32.1615 104.44 30.9202 104.045 29.6225C104.045 29.566 104.045 29.4532 104.101 29.3968C105.343 27.6476 106.415 25.7857 107.317 23.8108C107.374 23.7544 107.43 23.698 107.487 23.6416C108.051 23.4159 108.615 23.698 109.01 23.9237L111.888 25.3343C112.001 25.3907 112.057 25.5035 112.057 25.6164L111.098 30.5817C110.985 31.0331 110.929 31.4844 110.703 31.9358C110.195 32.895 109.236 33.4029 108.107 33.9107C107.769 34.0235 107.43 34.1928 107.092 34.1928ZM104.609 29.566C104.948 30.7509 105.456 31.8794 106.189 32.9515C106.358 33.2336 106.584 33.5157 106.866 33.5721C107.205 33.685 107.543 33.5157 107.882 33.3464C108.897 32.895 109.8 32.4437 110.195 31.6537C110.364 31.3152 110.477 30.8638 110.534 30.4688L111.436 25.7292L108.728 24.3751C108.39 24.2058 108.051 24.0365 107.712 24.093C106.866 26.0678 105.794 27.8733 104.609 29.566Z" fill="black"/>
<path d="M86.8354 88.7543L66.2973 82.5477L43.1636 106.415L77.2999 100.547L86.8354 88.7543Z" fill="white"/>
<path d="M43.1636 106.697C43.0508 106.697 42.9944 106.641 42.9379 106.528C42.8815 106.415 42.8815 106.302 42.9944 106.189L66.128 82.322C66.1845 82.2656 66.2973 82.2091 66.4102 82.2656L86.9484 88.4722C87.0612 88.4722 87.1176 88.585 87.1176 88.6414C87.1176 88.7543 87.1176 88.8107 87.0612 88.8671L77.5256 100.66C77.4692 100.716 77.4128 100.773 77.3563 100.773L43.1636 106.697ZM66.4102 82.8298L43.9536 106.02L77.1306 100.321L86.3841 88.9235L66.4102 82.8298Z" fill="black"/>
<path d="M108.277 114.54L106.133 135.868L75.2126 148.056L93.7196 118.828L108.277 114.54Z" fill="white"/>
<path d="M75.2124 148.338C75.1559 148.338 75.0431 148.281 74.9867 148.225C74.9302 148.112 74.9302 147.999 74.9867 147.886L93.4936 118.659C93.55 118.602 93.6064 118.546 93.6629 118.546L108.22 114.258C108.333 114.258 108.389 114.258 108.446 114.314C108.502 114.371 108.559 114.484 108.559 114.54L106.415 135.868C106.415 135.981 106.358 136.037 106.245 136.094L75.2688 148.281C75.2688 148.338 75.2124 148.338 75.2124 148.338ZM93.8886 119.054L75.833 147.491L105.85 135.642L107.938 114.878L93.8886 119.054Z" fill="black"/>
<path d="M82.1526 122.496C76.6231 127.404 75.2689 130.451 73.2377 133.385C66.749 127.517 62.0658 120.634 59.2446 113.073C64.7741 112.114 68.2724 110.59 72.5042 108.615C75.5511 113.637 79.275 118.095 82.1526 122.496Z" fill="white"/>
<path d="M73.2376 133.667C73.1811 133.667 73.1247 133.667 73.0683 133.611C66.5231 127.63 61.7836 120.803 59.0188 113.186C59.0188 113.129 59.0188 113.016 59.0188 112.96C59.0752 112.904 59.1316 112.847 59.1881 112.847C64.774 111.888 68.3287 110.365 72.3912 108.39C72.504 108.333 72.6733 108.39 72.7297 108.503C74.4789 111.38 76.5101 114.145 78.4285 116.797C79.8391 118.715 81.1933 120.521 82.3782 122.383C82.4346 122.496 82.4346 122.665 82.3217 122.721C77.9771 126.558 76.2844 129.266 74.7046 131.636C74.2532 132.313 73.8582 132.934 73.4068 133.555C73.4068 133.611 73.3504 133.667 73.2376 133.667ZM59.6395 113.299C62.4042 120.577 66.9181 127.235 73.1811 132.99C73.5761 132.426 73.9146 131.918 74.3096 131.298C75.833 128.928 77.5822 126.22 81.8139 122.439C80.629 120.69 79.3313 118.941 77.9771 117.079C76.0587 114.483 74.1403 111.832 72.3912 108.954C68.498 110.872 64.9997 112.339 59.6395 113.299Z" fill="black"/>
<path d="M71.3755 111.888C72.899 115.161 74.9302 118.151 77.4693 120.69C79.7827 123.06 82.491 125.148 85.5379 126.784C86.3278 127.235 86.2714 126.84 87.1177 127.235C97.0483 124.696 137.504 98.6284 149.071 90.3906C173.164 73.1814 179.991 41.3585 179.991 41.3585C179.991 41.3585 147.717 37.4088 123.567 54.618C111.493 63.1944 74.3096 94.171 68.7236 103.029C69.175 106.133 70.0778 109.123 71.3755 111.888Z" fill="white"/>
<path d="M87.0612 127.517C87.0048 127.517 87.0048 127.517 86.9484 127.517C86.6098 127.348 86.4406 127.348 86.2713 127.348C86.0456 127.348 85.8199 127.348 85.3685 127.066C82.3781 125.43 79.6133 123.342 77.2435 120.916C74.7045 118.32 72.6732 115.33 71.0933 112.001C69.7956 109.236 68.8928 106.246 68.385 103.142C68.385 103.086 68.385 103.029 68.4414 102.973C74.0274 94.1146 110.985 63.3073 123.398 54.4488C135.924 45.5338 150.594 42.3741 160.75 41.3021C171.753 40.1172 179.878 41.1328 179.991 41.1328C180.047 41.1328 180.16 41.1892 180.16 41.2456C180.217 41.3021 180.217 41.3585 180.217 41.4713C180.217 41.5278 178.467 49.5963 173.784 59.5833C169.496 68.8368 161.71 81.7014 149.184 90.6163C138.125 98.5156 97.3867 124.865 87.1741 127.517C87.1177 127.517 87.1177 127.517 87.0612 127.517ZM68.9492 103.142C69.4571 106.133 70.3598 109.067 71.6012 111.775C73.1246 115.048 75.1558 117.982 77.6385 120.521C80.0083 122.947 82.6602 124.978 85.6506 126.558C85.9892 126.784 86.1584 126.784 86.3277 126.784C86.497 126.784 86.7227 126.784 87.1176 126.953C96.9918 124.301 137.109 98.5156 148.845 90.1649C161.258 81.3064 168.932 68.4982 173.22 59.3576C177.339 50.4991 179.201 43.164 179.54 41.6406C177.96 41.4713 170.455 40.8507 160.75 41.8663C150.651 42.9383 136.037 46.0416 123.68 54.9001C111.323 63.6458 74.7045 94.171 68.9492 103.142Z" fill="black"/>
<path d="M86.1019 121.931C82.2087 119.11 78.9925 115.33 76.4535 111.267C75.0429 109.01 73.858 106.584 72.9552 104.045C72.4474 102.747 72.0524 101.45 71.7139 100.095C71.6575 99.8697 71.601 99.644 71.5446 99.4183C70.2469 100.885 69.2313 102.127 68.6106 103.086C69.1184 106.189 70.0212 109.123 71.3189 111.888C72.8424 115.161 74.8736 118.151 77.4127 120.69C79.726 123.06 82.4344 125.148 85.4813 126.784C86.2712 127.235 86.2148 126.84 87.0611 127.235C88.3589 126.897 90.108 126.22 92.2521 125.204C90.0516 124.414 88.0203 123.286 86.1019 121.931Z" fill="white"/>
<path d="M87.0612 127.517C87.0048 127.517 87.0048 127.517 86.9484 127.517C86.6098 127.348 86.4406 127.348 86.2713 127.348C86.0456 127.348 85.8199 127.348 85.3685 127.066C82.3781 125.43 79.6133 123.342 77.2435 120.916C74.7045 118.32 72.6732 115.33 71.0933 112.001C69.7956 109.236 68.8928 106.246 68.385 103.142C68.385 103.086 68.385 103.029 68.4414 102.973C69.0621 102.014 70.0213 100.773 71.3755 99.2491C71.4319 99.1927 71.5447 99.1363 71.6576 99.1927C71.7704 99.1927 71.8269 99.3055 71.8269 99.4184C71.8833 99.6441 71.9397 99.8698 71.9961 100.095C72.2782 101.337 72.6732 102.635 73.181 104.045C74.1402 106.584 75.2687 109.01 76.6793 111.211C79.444 115.668 82.6602 119.223 86.2713 121.819C88.1897 123.229 90.2209 124.301 92.365 125.035C92.4779 125.091 92.5343 125.148 92.5343 125.26C92.5343 125.373 92.4779 125.486 92.365 125.543C90.1081 126.615 88.359 127.292 87.1176 127.63C87.1176 127.517 87.1177 127.517 87.0612 127.517ZM68.9492 103.142C69.4571 106.133 70.3598 109.067 71.6012 111.775C73.1246 115.048 75.1558 117.982 77.6385 120.521C80.0083 122.947 82.6602 124.978 85.6506 126.558C85.9892 126.784 86.1584 126.784 86.3277 126.784C86.497 126.784 86.7227 126.784 87.1176 126.953C88.1897 126.671 89.7131 126.107 91.5751 125.204C89.6567 124.47 87.7383 123.398 85.9892 122.157C82.3781 119.505 79.1055 115.894 76.2843 111.38C74.8737 109.123 73.6888 106.697 72.7296 104.158C72.2218 102.747 71.8268 101.45 71.4883 100.152C71.4883 100.095 71.4319 100.039 71.4319 99.9826C70.3034 101.224 69.4571 102.296 68.9492 103.142Z" fill="black"/>
<path d="M139.761 54.9565C141.285 57.7777 142.921 60.5989 144.67 63.3072C146.419 66.0155 148.281 68.6675 150.369 71.1501C152.4 73.6327 154.601 75.9461 156.97 78.0338C157.93 78.8801 158.889 79.6701 159.904 80.4036C175.195 63.1379 179.878 41.302 179.878 41.302C179.878 41.302 157.422 38.5937 135.981 47.6214C137.222 50.1605 138.463 52.5867 139.761 54.9565Z" fill="white"/>
<path d="M159.961 80.7421C159.904 80.7421 159.848 80.7421 159.791 80.6857C158.719 79.8958 157.76 79.1058 156.857 78.2595C154.544 76.2282 152.344 73.9149 150.199 71.3194C148.225 68.9496 146.363 66.3541 144.501 63.4765C142.864 60.9374 141.228 58.2291 139.535 55.0694C138.35 52.8689 137.166 50.6119 135.755 47.7907C135.699 47.7343 135.699 47.6215 135.755 47.565C135.755 47.5086 135.811 47.4522 135.924 47.3958C147.04 42.7126 158.437 41.2456 165.998 40.7942C174.236 40.3428 179.878 41.0199 179.935 41.0199C179.991 41.0199 180.104 41.0763 180.104 41.1327C180.16 41.1892 180.16 41.2456 180.16 41.3584C180.16 41.4149 178.975 46.9444 175.929 54.4487C173.107 61.3888 168.086 71.6015 160.186 80.5164C160.13 80.6857 160.017 80.7421 159.961 80.7421ZM140.043 54.8437C141.736 57.947 143.316 60.6553 144.952 63.1944C146.814 66.072 148.676 68.611 150.594 70.9808C152.682 73.5199 154.939 75.8333 157.196 77.8645C158.042 78.598 158.945 79.3315 159.904 80.065C167.691 71.2065 172.6 61.2196 175.421 54.3359C178.073 47.7907 179.314 42.8255 179.596 41.5841C178.298 41.4713 173.164 41.0199 165.998 41.3584C158.494 41.7534 147.322 43.2204 136.376 47.7907C137.73 50.4991 138.858 52.756 140.043 54.8437Z" fill="black"/>
<path d="M159.961 72.5608C158.042 70.5296 156.293 68.4419 154.6 66.2414C152.908 64.0409 151.271 61.7839 149.804 59.4141C148.337 57.1008 146.983 54.6745 145.742 52.1919C144.613 49.935 143.598 47.6216 142.639 45.3082C140.438 45.9853 138.238 46.8317 136.037 47.7344C137.278 50.1607 138.52 52.5869 139.817 55.0131C141.341 57.8343 142.977 60.6554 144.726 63.3638C146.475 66.0721 148.337 68.724 150.425 71.2067C152.456 73.6893 154.657 76.0027 157.027 78.0903C157.986 78.9367 158.945 79.7266 159.961 80.4601C161.202 79.0495 162.387 77.5825 163.515 76.1155C162.274 74.987 161.089 73.7457 159.961 72.5608Z" fill="white"/>
<path d="M159.961 80.7422C159.904 80.7422 159.848 80.7422 159.791 80.6858C158.719 79.8959 157.76 79.1059 156.857 78.2596C154.544 76.2283 152.344 73.915 150.199 71.3195C148.225 68.9497 146.363 66.3542 144.501 63.4766C142.864 60.9375 141.228 58.2292 139.535 55.0695C138.35 52.869 137.166 50.612 135.755 47.7908C135.699 47.7344 135.699 47.6216 135.755 47.5651C135.755 47.5087 135.811 47.4523 135.924 47.3959C138.012 46.4931 140.269 45.7032 142.526 44.9696C142.639 44.9132 142.808 44.9696 142.864 45.1389C143.767 47.4523 144.839 49.7657 145.968 52.0226C147.153 54.3924 148.507 56.8186 150.03 59.1884C151.497 61.4453 153.077 63.7587 154.826 66.0157C156.519 68.2162 158.324 70.3038 160.186 72.3351C161.428 73.6893 162.556 74.8177 163.741 75.8898C163.854 76.0026 163.854 76.1155 163.797 76.2283C162.613 77.7518 161.428 79.2188 160.243 80.5729C160.13 80.6858 160.017 80.7422 159.961 80.7422ZM136.376 47.8473C137.73 50.4992 138.858 52.7561 139.987 54.8438C141.679 57.9471 143.259 60.6554 144.896 63.1945C146.758 66.0721 148.62 68.6111 150.538 70.9809C152.626 73.52 154.883 75.8334 157.14 77.8646C157.986 78.5981 158.889 79.3316 159.848 80.0651C160.92 78.8238 161.992 77.5261 163.064 76.1155C161.992 75.0998 160.863 73.9714 159.679 72.6736C157.817 70.6424 155.955 68.4983 154.262 66.3542C152.513 64.0972 150.876 61.7839 149.466 59.4705C147.942 57.0443 146.588 54.6181 145.347 52.2483C144.275 50.0478 143.259 47.8473 142.357 45.5903C140.382 46.2674 138.35 47.0009 136.376 47.8473Z" fill="black"/>
<path d="M136.524 82.8251C137.54 76.9606 133.609 71.3834 127.745 70.368C121.88 69.3526 116.303 73.2836 115.288 79.148C114.272 85.0124 118.203 90.5896 124.067 91.605C129.932 92.6204 135.509 88.6895 136.524 82.8251Z" fill="white"/>
<path d="M125.937 92.0269C125.317 92.0269 124.696 91.9705 124.075 91.8576C121.141 91.3498 118.602 89.77 116.909 87.3438C115.217 84.9175 114.54 81.9835 114.991 79.1059C115.499 76.1719 117.079 73.6328 119.505 71.9401C121.931 70.2474 124.865 69.5703 127.743 70.0217C130.677 70.5295 133.216 72.1094 134.909 74.5356C136.601 76.9618 137.278 79.8958 136.827 82.7734C136.319 85.7075 134.739 88.2465 132.313 89.9392C130.451 91.3498 128.194 92.0269 125.937 92.0269ZM125.881 70.4167C123.68 70.4167 121.593 71.0938 119.787 72.3915C117.474 74.0278 116.007 76.454 115.499 79.2188C115.047 81.9835 115.668 84.8047 117.304 87.0616C118.941 89.375 121.367 90.842 124.132 91.3498C126.896 91.8012 129.718 91.1806 131.975 89.5443C134.288 87.908 135.755 85.4818 136.263 82.717C136.714 79.9523 136.094 77.1311 134.457 74.8741C132.821 72.5608 130.395 71.0938 127.63 70.5859C127.066 70.4731 126.445 70.4167 125.881 70.4167Z" fill="black"/>
<path d="M121.423 74.6484C124.921 72.1658 129.717 72.9557 132.2 76.454C134.683 79.9523 133.893 84.7483 130.394 87.2309C126.896 89.7135 122.1 88.9236 119.618 85.4253C117.135 81.9835 117.925 77.1311 121.423 74.6484Z" fill="white"/>
<path d="M125.937 88.98C125.486 88.98 125.034 88.9236 124.583 88.8671C122.495 88.5286 120.633 87.3437 119.392 85.5946C118.151 83.8454 117.643 81.7578 118.038 79.6137C118.376 77.526 119.561 75.664 121.31 74.4227C124.921 71.8836 129.887 72.6736 132.482 76.2847C133.723 78.0338 134.231 80.1215 133.836 82.2656C133.498 84.3533 132.313 86.2152 130.564 87.4566C129.21 88.4722 127.573 88.98 125.937 88.98ZM121.592 74.8741C119.956 76.059 118.884 77.7517 118.545 79.7265C118.207 81.7013 118.658 83.6762 119.843 85.3125C121.028 86.9487 122.721 88.0208 124.696 88.3593C126.67 88.6979 128.645 88.2465 130.282 87.0616C131.918 85.8767 132.99 84.184 133.328 82.2092C133.667 80.2343 133.216 78.2595 132.031 76.6232C129.605 73.2942 124.921 72.5043 121.592 74.8741Z" fill="black"/>
<path d="M96.087 110.64C101.101 110.052 104.689 105.511 104.102 100.497C103.514 95.4833 98.973 91.895 93.9591 92.4827C88.9452 93.0703 85.357 97.6112 85.9446 102.625C86.5322 107.639 91.0731 111.227 96.087 110.64Z" fill="white"/>
<path d="M95.0735 110.929C92.1395 110.929 89.2054 109.575 87.3999 106.979C85.9329 104.948 85.3686 102.465 85.7636 99.9826C86.1586 97.5 87.5127 95.3559 89.6004 93.8889C91.6316 92.4219 94.1143 91.8576 96.5969 92.2526C99.0796 92.6476 101.224 94.0017 102.691 96.0894C104.158 98.1207 104.722 100.603 104.327 103.086C103.932 105.569 102.578 107.713 100.49 109.18C98.8539 110.365 96.9355 110.929 95.0735 110.929ZM95.0171 92.6476C93.2115 92.6476 91.4059 93.2118 89.8825 94.2839C87.9641 95.638 86.6664 97.7257 86.2714 100.039C85.8764 102.352 86.4407 104.722 87.7948 106.641C90.616 110.647 96.202 111.549 100.152 108.728C102.07 107.374 103.368 105.286 103.763 102.973C104.158 100.66 103.593 98.2899 102.239 96.3715C100.885 94.4531 98.7974 93.1554 96.4841 92.7604C96.0327 92.704 95.5249 92.6476 95.0171 92.6476Z" fill="black"/>
<path d="M91.2368 96.2023C94.1708 94.1146 98.2897 94.7917 100.377 97.7257C102.465 100.66 101.788 104.779 98.854 106.866C95.92 108.954 91.801 108.277 89.7134 105.343C87.6257 102.409 88.3028 98.2899 91.2368 96.2023Z" fill="white"/>
<path d="M95.0734 108.333C94.6784 108.333 94.3399 108.277 93.9449 108.22C92.1394 107.938 90.5595 106.923 89.5439 105.456C87.3434 102.409 88.0769 98.1206 91.1237 95.9766C92.5908 94.9045 94.3963 94.5095 96.2019 94.7917C98.0074 95.0738 99.5873 96.0894 100.603 97.5564C101.675 99.0234 102.07 100.829 101.788 102.635C101.506 104.44 100.49 106.02 99.023 107.036C97.8382 107.938 96.484 108.333 95.0734 108.333ZM95.017 95.243C93.7192 95.243 92.4779 95.638 91.4059 96.4279C88.5847 98.4592 87.9076 102.352 89.9388 105.174C90.898 106.528 92.3651 107.431 94.0014 107.713C95.6376 107.995 97.3303 107.6 98.6845 106.641C100.039 105.681 100.941 104.214 101.224 102.578C101.506 100.942 101.111 99.2491 100.152 97.895C99.1923 96.5408 97.7253 95.638 96.089 95.3559C95.7505 95.2995 95.3555 95.243 95.017 95.243Z" fill="black"/>
<path d="M105.568 35.8855C104.157 37.6346 102.578 39.3837 100.659 40.6251C98.7408 41.8664 96.4839 42.6563 94.2269 42.487C91.6314 42.2613 89.2052 40.7943 86.6097 40.9636C84.2399 41.1329 82.1523 42.6563 79.7825 43.1641C81.4188 44.1797 83.055 45.1954 84.6913 46.211C85.4813 46.7188 86.3276 47.2266 87.2304 47.5087C88.3589 47.8473 89.4873 47.8473 90.6722 47.7344C97.0481 47.1138 103.029 43.4462 106.414 38.0296C106.697 37.6346 106.922 37.1268 106.922 36.619C106.922 36.1676 106.527 35.6598 105.568 35.8855Z" fill="white"/>
<path d="M89.3184 48.0729C88.6413 48.0729 87.8513 48.0165 87.1178 47.7908C86.1586 47.5087 85.3123 47.0009 84.5224 46.493L79.6135 43.4462C79.5007 43.3897 79.4442 43.2769 79.5006 43.1641C79.5006 43.0512 79.6135 42.9948 79.7263 42.9384C80.742 42.7127 81.7012 42.3177 82.6604 41.9227C83.9017 41.4149 85.1994 40.8507 86.5536 40.7378C88.077 40.625 89.5441 41.0764 91.0111 41.5278C92.0831 41.8663 93.1552 42.2049 94.2272 42.2613C96.2585 42.4305 98.459 41.8099 100.49 40.4557C102.521 39.1016 104.101 37.2396 105.343 35.7726C105.399 35.7161 105.456 35.7161 105.512 35.6597C106.189 35.4904 106.584 35.6597 106.81 35.829C107.092 36.0547 107.205 36.3368 107.261 36.6753C107.261 37.2396 106.979 37.7474 106.697 38.1988C103.255 43.6154 97.1612 47.3958 90.729 48.0165C90.2776 48.0729 89.8262 48.0729 89.3184 48.0729ZM80.4599 43.2769L84.8045 45.9852C85.5944 46.493 86.3843 47.0009 87.2871 47.2266C88.4156 47.5651 89.6569 47.5087 90.6161 47.4522C96.8791 46.8316 102.804 43.1641 106.189 37.8602C106.415 37.4653 106.697 37.0703 106.64 36.6189C106.64 36.4496 106.584 36.2804 106.415 36.1675C106.245 36.0547 106.02 35.9983 105.681 36.1111C104.44 37.6345 102.804 39.4965 100.772 40.8507C98.6283 42.2613 96.3149 42.9384 94.1708 42.7691C93.0423 42.6562 91.9138 42.3177 90.8418 41.9792C89.3748 41.5278 88.0206 41.1328 86.61 41.2456C85.3123 41.3585 84.1274 41.8663 82.8861 42.3741C82.0961 42.7127 81.3062 43.0512 80.4599 43.2769Z" fill="black"/>
<path d="M113.467 96.5408C112.565 98.2335 111.549 99.9262 110.646 102.014C111.718 102.691 112.79 103.368 113.862 103.989C115.442 104.948 117.079 105.964 118.941 106.471C119.11 105.23 118.376 104.045 117.586 103.086C116.796 102.127 115.837 101.224 115.386 100.039C115.16 99.4184 115.104 98.7413 114.878 98.0642C114.652 97.3871 114.257 96.8229 113.467 96.5408Z" fill="white"/>
<path d="M118.941 106.753H118.884C116.966 106.246 115.329 105.23 113.75 104.271L110.533 102.296C110.421 102.24 110.364 102.07 110.421 101.957C111.098 100.378 111.831 99.0798 112.508 97.7821C112.734 97.3307 112.96 96.8793 113.242 96.4843C113.298 96.3715 113.467 96.3151 113.58 96.3715C114.314 96.6536 114.878 97.2179 115.16 98.0642C115.273 98.4028 115.329 98.6849 115.386 99.0234C115.442 99.362 115.555 99.7005 115.668 100.039C116.007 100.942 116.684 101.675 117.304 102.409C117.474 102.578 117.643 102.804 117.812 102.973C118.941 104.271 119.392 105.456 119.279 106.584C119.279 106.641 119.223 106.753 119.166 106.753C119.053 106.753 118.997 106.753 118.941 106.753ZM110.985 101.957L114.032 103.819C115.499 104.722 117.022 105.681 118.715 106.189C118.715 105.343 118.263 104.384 117.361 103.312C117.191 103.142 117.022 102.917 116.853 102.747C116.176 101.957 115.442 101.168 115.104 100.208C114.991 99.8698 114.878 99.4748 114.822 99.1363C114.765 98.7977 114.709 98.5156 114.596 98.2335C114.37 97.6128 114.032 97.1614 113.58 96.9357C113.411 97.3307 113.185 97.6692 112.96 98.0642C112.339 99.2491 111.662 100.49 110.985 101.957Z" fill="black"/>
<path d="M91.3491 63.1379C90.672 66.9183 90.2771 69.7959 92.7597 72.7299C95.3552 75.7768 99.7562 75.5511 108.445 75.5511C109.01 75.5511 111.605 75.7204 112.057 76.0025C112.79 76.4539 112.339 90.1648 111.944 98.2898C113.636 98.6284 115.273 98.9105 116.853 98.7412C123.623 68.9496 121.592 71.3194 119.392 68.8931C116.514 65.7898 108.333 64.8306 106.358 64.605C104.665 64.3793 102.972 64.21 101.28 64.21C97.6686 64.21 93.5496 64.9435 91.3491 63.1379Z" fill="#ACD4F7"/>
<path d="M115.781 99.0798C114.483 99.0798 113.185 98.8541 111.888 98.572C111.775 98.572 111.662 98.4027 111.662 98.2899C112.17 88.2465 112.395 77.131 111.888 76.2283C111.493 76.0026 109.236 75.8333 108.446 75.8333C107.881 75.8333 107.317 75.8333 106.753 75.8333C99.2487 75.8333 95.0733 75.8333 92.5343 72.9557C89.8259 69.8524 90.4466 66.5798 91.0672 63.138C91.0672 63.0251 91.1237 62.9687 91.2365 62.9123C91.3494 62.8559 91.4058 62.9123 91.5186 62.9687C93.1549 64.3229 96.0325 64.21 98.8537 64.0408C99.6436 63.9843 100.49 63.9843 101.28 63.9843C102.973 63.9843 104.722 64.1536 106.358 64.3793H106.471C113.242 65.1692 117.699 66.6362 119.618 68.7239C119.843 68.9496 120.069 69.1753 120.295 69.3446C122.269 71.0937 123.285 71.9401 117.191 98.7977C117.191 98.9106 117.079 98.967 116.966 99.0234C116.514 99.0234 116.119 99.0798 115.781 99.0798ZM112.226 98.0642C113.693 98.3463 115.217 98.6284 116.627 98.4592C122.608 72.1093 121.592 71.2066 119.9 69.6831C119.674 69.5139 119.448 69.2882 119.223 69.006C117.981 67.6519 114.709 65.7899 106.414 64.8307H106.302C104.665 64.6614 102.916 64.4357 101.28 64.4357C100.49 64.4357 99.7001 64.4922 98.9101 64.4922C96.2018 64.605 93.437 64.7743 91.5751 63.5329C90.898 67.3133 90.7287 69.8524 92.9856 72.4479C95.3554 75.1562 99.1922 75.1562 106.753 75.1562C107.317 75.1562 107.881 75.1562 108.446 75.1562C108.671 75.1562 111.605 75.2691 112.226 75.664C112.452 75.8333 112.847 76.059 112.677 84.184C112.621 88.0772 112.452 93.2118 112.226 98.0642Z" fill="black"/>
<path d="M102.747 8.57636C102.86 10.7205 103.029 12.6389 103.424 15.46C103.65 16.8142 104.045 18.3376 104.665 19.579C104.948 20.1996 105.173 20.4817 105.794 20.8203C105.907 20.256 106.527 20.0304 106.64 19.4661C106.81 18.789 106.415 18.1119 106.922 17.5477C107.825 16.4757 108.502 15.2343 108.897 13.9366C109.236 12.8646 109.349 11.7361 108.954 10.664C108.559 9.59198 107.543 8.68921 106.245 8.46351C105.173 8.35066 103.593 8.01212 102.747 8.57636Z" fill="#ACD4F7"/>
<path d="M105.737 21.1024C105.681 21.1024 105.625 21.1024 105.625 21.046C104.947 20.6511 104.665 20.2561 104.383 19.6354C103.819 18.3377 103.368 16.8142 103.142 15.4601C102.691 12.6389 102.578 10.7205 102.465 8.5764C102.465 8.46355 102.521 8.40713 102.578 8.35071C103.48 7.78647 105.06 8.01217 106.076 8.23786H106.245C107.543 8.46355 108.728 9.42275 109.179 10.6077C109.574 11.5669 109.574 12.6953 109.123 14.0495C108.728 15.4037 108.051 16.645 107.092 17.7734C106.866 18.0556 106.866 18.3377 106.922 18.6762C106.922 18.9583 106.979 19.2405 106.866 19.579C106.753 19.9175 106.584 20.1432 106.358 20.3125C106.189 20.4818 106.02 20.6511 106.02 20.8767C106.02 20.9896 105.963 21.046 105.85 21.1024C105.794 21.1024 105.794 21.1024 105.737 21.1024ZM103.029 8.74567C103.142 10.8333 103.311 12.6953 103.706 15.4037C103.932 16.7578 104.327 18.2248 104.891 19.4662C105.117 19.9175 105.23 20.1432 105.625 20.4254C105.737 20.2561 105.85 20.0868 106.02 19.974C106.189 19.8047 106.358 19.6354 106.358 19.4662C106.414 19.2405 106.414 19.0148 106.414 18.7327C106.414 18.3377 106.358 17.8299 106.697 17.4349C107.599 16.3629 108.22 15.178 108.615 13.9366C108.954 12.7517 109.01 11.7361 108.671 10.8898C108.276 9.81772 107.261 9.02779 106.132 8.85852H105.963C105.06 8.5764 103.763 8.35071 103.029 8.74567Z" fill="black"/>
<path d="M118.264 13.4853C118.094 15.3472 118.377 17.2657 118.264 19.1276C118.207 20.9896 117.699 22.9644 116.176 24.3186C114.878 25.5035 112.791 26.1242 110.872 25.8985C108.954 25.6728 107.148 24.6007 106.189 23.1337C105.343 21.7231 105.286 18.8455 105.23 17.3785C104.327 17.4913 103.424 17.1528 102.917 16.5321C102.409 15.9115 102.465 15.0087 103.086 14.5009C103.706 13.9931 104.496 13.9367 105.343 14.783C105.343 13.5981 105.625 12.4132 105.738 11.849C106.076 10.382 106.189 8.23787 107.261 7.61721C107.882 7.27867 109.067 7.05298 109.8 6.88371C110.985 6.65801 112.621 7.44794 113.863 7.50437C115.104 7.56079 116.345 8.18145 117.305 8.85853C118.377 9.70489 118.433 12.1311 118.264 13.4853Z" fill="white"/>
<path d="M111.718 26.237C111.436 26.237 111.154 26.237 110.872 26.1805C108.841 25.9549 106.979 24.8264 106.02 23.3029C105.173 22.0052 105.117 19.5226 105.004 17.8863C105.004 17.8299 105.004 17.717 105.004 17.6606C104.101 17.6606 103.199 17.322 102.747 16.7014C102.126 15.9114 102.239 14.8958 102.973 14.2752C103.368 13.9366 104.158 13.5417 105.117 14.2187C105.173 13.2031 105.399 12.3568 105.455 11.8489V11.7925C105.512 11.5104 105.568 11.1719 105.625 10.8333C105.85 9.47916 106.133 7.95572 107.092 7.39148C107.712 7.05294 108.897 6.82725 109.631 6.65798H109.687C110.477 6.48871 111.323 6.7144 112.17 6.94009C112.734 7.10937 113.298 7.22221 113.75 7.27864C114.822 7.33506 116.007 7.78645 117.304 8.68923C118.771 9.70485 118.546 12.921 118.489 13.5417H118.207H118.489C118.376 14.5573 118.433 15.6293 118.489 16.7014C118.546 17.4913 118.546 18.3377 118.546 19.184C118.433 21.5538 117.699 23.3594 116.345 24.5443C115.217 25.6163 113.468 26.237 111.718 26.237ZM105.23 17.0963C105.286 17.0963 105.343 17.0963 105.399 17.1528C105.455 17.2092 105.512 17.2656 105.512 17.322C105.512 17.4913 105.512 17.6606 105.512 17.8299C105.568 19.2969 105.681 21.7795 106.415 22.9644C107.317 24.375 109.01 25.3906 110.872 25.6163C112.734 25.842 114.709 25.2778 115.95 24.0929C117.192 22.9644 117.869 21.2717 117.925 19.0712C117.981 18.2812 117.925 17.4349 117.869 16.645C117.812 15.5729 117.756 14.5009 117.869 13.4288C118.038 11.8489 117.869 9.76128 116.909 9.08419C115.725 8.23784 114.596 7.78645 113.637 7.78645C113.129 7.78645 112.508 7.61718 111.944 7.44791C111.154 7.22221 110.308 6.99652 109.687 7.16579H109.631C108.954 7.33506 107.825 7.56075 107.261 7.84287C106.527 8.23784 106.302 9.64843 106.076 10.8897C106.02 11.2283 105.963 11.5668 105.907 11.9054V11.9618C105.794 12.526 105.568 13.5981 105.568 14.783C105.568 14.8958 105.512 15.0087 105.399 15.0087C105.286 15.0651 105.173 15.0087 105.117 14.9522C104.44 14.2752 103.876 14.2187 103.255 14.6701C102.747 15.0651 102.691 15.7986 103.142 16.3628C103.537 16.8707 104.44 17.1528 105.23 17.0963Z" fill="black"/>
<path d="M112.734 10.156C112.847 11.0024 113.975 12.3001 114.765 12.4694C115.555 12.6387 115.894 12.3001 116.289 11.5666C116.966 12.3001 117.417 12.9772 118.094 13.3158C119.166 13.88 120.633 13.3158 121.085 12.1873C121.592 11.0588 121.028 9.53537 119.9 9.08398C120.633 9.3661 121.48 8.6326 121.592 7.84266C121.705 7.05273 121.197 6.20638 120.52 5.81141C119.843 5.36003 119.053 5.24718 118.263 5.07791C118.658 4.3444 118.376 3.32878 117.756 2.76454C117.135 2.2003 116.289 1.97461 115.499 1.97461C114.934 1.97461 114.427 2.08746 113.975 2.36957C113.524 2.65169 113.185 3.21593 113.129 3.78016C112.508 2.82096 111.436 2.08746 110.308 2.25673C109.179 2.426 108.276 3.61089 108.107 4.51367C107.656 3.83659 107.035 3.21593 106.189 3.15951C104.609 3.10308 104.101 4.40082 104.609 6.20638C103.819 5.69857 102.521 5.92426 101.957 7.10916C101.562 8.01194 101.731 9.47895 102.295 10.2689C102.86 11.0588 105.06 11.9052 106.753 10.946C107.712 10.3817 108.22 9.5918 108.559 8.80187C108.953 9.64822 109.236 10.2689 110.364 10.7767C111.323 11.1717 112.339 10.946 112.734 10.156Z" fill="#ACD4F7"/>
<path d="M119.054 13.8237C118.715 13.8237 118.32 13.7673 118.038 13.598C117.474 13.3159 117.022 12.8081 116.571 12.3002C116.514 12.2438 116.458 12.131 116.345 12.0745C116.007 12.5824 115.555 12.9773 114.709 12.8081C113.975 12.6388 113.016 11.6796 112.621 10.8332C112.057 11.341 111.154 11.5103 110.364 11.1153C109.405 10.664 108.954 10.1561 108.672 9.53548C108.333 10.0997 107.882 10.7768 107.035 11.2846C105.173 12.3567 102.804 11.3975 102.239 10.5511C101.619 9.64833 101.449 8.06847 101.844 7.10927C102.126 6.48861 102.634 6.03722 103.198 5.86795C103.593 5.7551 103.988 5.7551 104.327 5.86795C104.158 4.90875 104.271 4.11882 104.665 3.611C104.891 3.27246 105.399 2.93392 106.302 2.99034C106.979 3.04677 107.543 3.38531 108.107 4.00597C108.502 3.10319 109.405 2.20041 110.364 2.03114C111.323 1.91829 112.339 2.36968 113.073 3.21604C113.242 2.82107 113.524 2.42611 113.919 2.20041C114.37 1.91829 114.935 1.74902 115.612 1.74902C116.627 1.74902 117.474 2.03114 118.094 2.59538C118.715 3.21604 118.997 4.17524 118.771 4.90875C118.828 4.90875 118.884 4.90875 118.884 4.96517C119.505 5.13444 120.182 5.24729 120.803 5.64225C121.593 6.15006 122.1 7.10927 121.988 7.95562C121.931 8.46343 121.593 8.97125 121.141 9.25336C121.028 9.30979 120.972 9.36621 120.859 9.42263C121.593 10.1561 121.875 11.3975 121.48 12.4131C121.198 13.0337 120.69 13.5416 120.013 13.7673C119.618 13.7673 119.336 13.8237 119.054 13.8237ZM116.345 11.2846C116.402 11.2846 116.514 11.341 116.571 11.3975C116.74 11.5667 116.909 11.736 117.022 11.9053C117.474 12.4131 117.812 12.8645 118.32 13.0902C118.771 13.3159 119.279 13.3159 119.787 13.1466C120.295 12.9773 120.746 12.5824 120.972 12.0745C121.423 11.0589 120.915 9.76118 119.956 9.30979C119.843 9.25336 119.731 9.08409 119.787 8.97125C119.843 8.8584 120.013 8.74555 120.126 8.80197C120.351 8.8584 120.633 8.8584 120.859 8.68913C121.198 8.51986 121.423 8.12489 121.48 7.78635C121.593 7.05284 121.085 6.37576 120.521 5.98079C120.013 5.64225 119.448 5.52941 118.771 5.36013C118.602 5.30371 118.489 5.30371 118.32 5.24729C118.264 5.24729 118.151 5.19086 118.151 5.07802C118.094 5.02159 118.094 4.90875 118.151 4.85232C118.433 4.23166 118.264 3.38531 117.699 2.82107C117.192 2.36968 116.458 2.08757 115.612 2.14399C115.047 2.14399 114.596 2.25684 114.201 2.53895C113.806 2.82107 113.524 3.27246 113.468 3.78027C113.468 3.89312 113.355 4.00597 113.242 4.00597C113.129 4.06239 113.016 4.00597 112.96 3.89312C112.339 2.93392 111.323 2.36968 110.421 2.48253C109.405 2.59538 108.559 3.78027 108.446 4.51378C108.446 4.62663 108.333 4.68305 108.22 4.73947C108.107 4.73947 107.994 4.73947 107.938 4.62663C107.43 3.8367 106.866 3.44173 106.245 3.38531C105.681 3.38531 105.286 3.49816 105.06 3.8367C104.722 4.28809 104.665 5.13444 104.948 6.15006C105.004 6.26291 104.948 6.37576 104.835 6.43218C104.722 6.48861 104.609 6.48861 104.553 6.43218C104.214 6.20649 103.763 6.15006 103.311 6.26291C102.86 6.37576 102.465 6.7143 102.296 7.22211C101.957 8.01204 102.126 9.42263 102.634 10.1561C103.086 10.7768 105.117 11.6796 106.753 10.7204C107.712 10.1561 108.164 9.30979 108.446 8.68913C108.502 8.57628 108.559 8.51986 108.672 8.51986C108.784 8.51986 108.897 8.57628 108.897 8.68913C109.236 9.47906 109.518 10.0433 110.59 10.4947C111.267 10.7768 112.17 10.664 112.508 9.98687C112.565 9.87402 112.678 9.8176 112.79 9.8176C112.903 9.8176 113.016 9.93045 113.016 10.0433C113.073 10.7768 114.145 11.9617 114.878 12.131C115.442 12.2438 115.725 12.0745 116.119 11.341C116.119 11.341 116.232 11.2846 116.345 11.2846C116.289 11.2846 116.289 11.2846 116.345 11.2846Z" fill="black"/>
<path d="M116.288 16.0241C116.345 15.7984 116.176 15.5727 115.95 15.5163C115.724 15.4599 115.499 15.6292 115.442 15.8548C115.386 16.0805 115.555 16.3062 115.781 16.3627C116.006 16.4191 116.232 16.2498 116.288 16.0241Z" fill="black"/>
<path d="M110.082 15.7421C110.138 15.5164 109.969 15.2907 109.743 15.2343C109.518 15.1779 109.292 15.3472 109.236 15.5729C109.179 15.7986 109.348 16.0243 109.574 16.0807C109.8 16.0807 110.025 15.9678 110.082 15.7421Z" fill="black"/>
<path d="M111.38 23.2463C110.59 23.2463 109.8 22.8513 109.348 22.1743C109.236 22.0614 109.292 21.8921 109.405 21.7793C109.518 21.6664 109.687 21.7229 109.8 21.8357C110.195 22.3999 110.928 22.7385 111.662 22.6256C111.831 22.6256 111.944 22.6821 112 22.8513C112 23.0206 111.944 23.1335 111.775 23.1899C111.662 23.2463 111.549 23.2463 111.38 23.2463Z" fill="black"/>
<path d="M112.677 21.0458C112.452 21.0458 112.282 21.0458 112.113 20.9894C111.605 20.8766 111.21 20.538 111.041 20.1431C110.985 20.0302 111.041 19.861 111.154 19.7481C111.267 19.6917 111.436 19.7481 111.549 19.861C111.662 20.1431 111.944 20.3123 112.282 20.4252C112.565 20.4816 112.96 20.4816 113.355 20.4252C113.467 20.3688 113.637 20.3688 113.693 20.2559C113.806 20.1431 113.862 19.9738 113.806 19.8045C113.806 19.6353 113.693 19.4096 113.637 19.2403L113.58 19.1274C113.129 17.9425 112.96 16.5884 113.129 15.3471C113.129 15.1778 113.298 15.0649 113.411 15.1214C113.58 15.1214 113.693 15.2906 113.637 15.4035C113.524 16.5884 113.637 17.8297 114.088 18.9582L114.144 19.071C114.201 19.2967 114.314 19.5224 114.314 19.7481C114.37 20.1431 114.257 20.4816 114.032 20.6509C113.862 20.8202 113.637 20.8766 113.411 20.933C113.185 21.0458 112.903 21.0458 112.677 21.0458Z" fill="black"/>
<path d="M105.342 15.9677C105.173 15.9677 105.06 15.8548 105.06 15.6856C105.06 15.1778 105.06 14.8956 105.06 14.3878C105.06 14.2186 105.173 14.1057 105.342 14.1057C105.512 14.1057 105.625 14.2186 105.625 14.3878C105.625 14.8956 105.625 15.1778 105.625 15.6856C105.625 15.8548 105.512 15.9677 105.342 15.9677Z" fill="black"/>
<path d="M104.214 9.93053C104.158 9.93053 104.101 9.93053 104.045 9.8741C103.255 9.36629 102.803 8.35067 102.973 7.39147C103.029 7.2222 103.142 7.16577 103.311 7.16577C103.48 7.2222 103.537 7.33504 103.537 7.50431C103.368 8.23782 103.706 9.02775 104.327 9.36629C104.44 9.42272 104.496 9.59199 104.44 9.76126C104.44 9.8741 104.327 9.93053 104.214 9.93053Z" fill="black"/>
<g opacity="0.1294">
<path d="M108.841 8.85842C108.954 8.97127 109.01 9.14054 109.123 9.25338C109.123 9.25338 109.123 9.30981 109.179 9.42266C109.236 9.5355 109.292 9.70477 109.349 9.81762C109.631 10.269 109.913 10.5511 110.251 10.7204C110.308 10.6076 110.477 10.5511 110.59 10.664H110.646C110.646 10.664 110.646 10.664 110.703 10.664C110.928 10.7204 111.154 10.7768 111.38 10.7768H111.323C111.38 10.7768 111.718 10.7768 112 10.7204H112.057C112.113 10.7204 112.17 10.7204 112.226 10.7204H112.283V10.664C112.283 10.4947 112.508 10.3254 112.678 10.3819C112.847 10.4383 112.96 10.6076 112.96 10.8332C112.96 10.8897 113.016 10.9461 113.072 11.0025C113.242 11.2282 113.411 11.4539 113.58 11.6796C113.637 11.736 113.693 11.8489 113.693 11.8489C113.862 12.0746 114.314 12.4131 114.709 12.526C114.822 12.526 114.878 12.5824 114.991 12.5824C114.991 12.5824 115.047 12.5824 115.104 12.5824C115.104 12.5824 115.104 12.5824 115.16 12.5824C115.217 12.5824 115.217 12.526 115.273 12.526C115.273 12.526 115.273 12.526 115.329 12.526C115.442 12.526 115.555 12.526 115.612 12.4695C115.724 12.4695 115.781 12.4131 115.894 12.3003C115.95 12.2438 115.95 12.1874 116.007 12.1874L116.063 12.131C116.176 12.0181 116.289 11.9053 116.345 11.736C116.458 11.736 116.571 11.8489 116.627 11.9617C116.627 12.0181 116.684 12.0746 116.684 12.131C116.684 12.131 116.684 12.131 116.684 12.1874C116.796 12.3003 116.853 12.4131 116.909 12.526C116.966 12.5824 116.966 12.5824 117.022 12.6388C117.022 12.6388 117.022 12.6388 117.079 12.6952C117.248 12.8645 117.474 13.0338 117.699 13.203C117.868 13.3159 118.038 13.3723 118.151 13.5416C118.376 13.8801 117.925 14.2751 117.586 14.0494C117.135 13.7673 116.684 13.4287 116.401 12.9773C116.345 12.9209 116.289 12.8081 116.232 12.7516C116.006 13.0338 115.724 13.2595 115.386 13.4287C114.878 13.6544 114.314 13.4852 113.919 13.203C113.524 12.9209 113.355 12.7516 113.129 12.526C112.903 12.3003 112.734 12.0181 112.565 11.736C112.452 11.9053 112.283 12.0181 112.057 12.131C111.775 12.2438 111.493 12.3003 111.21 12.2438C111.21 12.2438 111.21 12.2438 111.267 12.2438H111.21C110.872 12.1874 110.533 12.0181 110.195 11.8489C109.743 11.5668 109.349 11.2282 109.01 10.8332C108.841 10.5511 108.671 10.269 108.559 9.93047C108.559 9.87404 108.559 9.93047 108.559 9.98689C108.502 9.87404 108.502 9.7612 108.446 9.64835C108.446 9.59193 108.389 9.47908 108.446 9.42266C108.502 8.91484 108.671 8.802 108.841 8.85842Z" fill="black"/>
</g>
<g opacity="0.1294">
<path d="M102.86 11.2282C103.029 11.0589 103.255 11.1153 103.424 11.2282C103.706 11.341 103.988 11.3974 104.27 11.5103C104.496 11.5667 104.665 11.6796 104.891 11.736C104.948 11.736 105.004 11.7924 104.891 11.736C105.004 11.7924 105.117 11.7924 105.23 11.8488C105.286 11.7924 105.286 11.736 105.343 11.736C105.625 11.6231 105.907 11.9053 105.794 12.1874C105.681 12.4131 105.625 12.5823 105.568 12.808C105.512 13.1466 105.399 13.598 105.004 13.4851C104.948 13.4287 104.891 13.3723 104.835 13.3158C104.835 13.3158 104.665 13.1466 104.609 13.0901C104.44 12.8645 104.045 12.5823 103.706 12.2438C103.537 12.0745 103.311 11.9617 103.142 11.7924C103.142 11.7924 103.086 11.7924 103.086 11.736C103.086 11.736 103.029 11.736 103.029 11.6796C102.803 11.5103 102.747 11.341 102.86 11.2282Z" fill="black"/>
</g>
<path d="M107.994 33.6284C107.599 32.9513 106.696 32.8385 106.076 33.2899L105.455 33.7413C105.116 34.0234 104.721 34.3055 104.721 34.7569C104.721 35.0954 104.947 35.434 105.173 35.7161C105.511 36.1111 105.906 36.5624 106.414 36.6189C106.753 36.6753 107.091 36.506 107.43 36.3368C107.655 36.2239 107.825 36.1111 107.994 35.9982C108.22 35.7725 108.276 35.434 108.333 35.1519C108.389 34.5876 108.276 34.0798 107.994 33.6284C108.05 33.6848 108.05 33.6284 107.994 33.6284Z" fill="white"/>
<path d="M106.527 36.9009C106.471 36.9009 106.415 36.9009 106.415 36.9009C105.737 36.8445 105.286 36.2238 105.004 35.8853C104.778 35.6032 104.496 35.2646 104.496 34.7568C104.553 34.1362 105.06 33.7412 105.342 33.5719L105.963 33.1205C106.302 32.8384 106.809 32.7256 107.261 32.8384C107.712 32.9513 108.051 33.177 108.276 33.5719C108.559 34.0233 108.671 34.5875 108.615 35.2082C108.559 35.6596 108.446 35.9981 108.22 36.2238C108.051 36.4495 107.769 36.5624 107.543 36.6752C107.261 36.7316 106.922 36.9009 106.527 36.9009ZM106.922 33.2898C106.697 33.2898 106.471 33.3462 106.302 33.5155L105.681 33.9669C105.399 34.1926 105.06 34.4747 105.06 34.7568C105.06 34.9825 105.23 35.2646 105.455 35.4903C105.737 35.8853 106.076 36.2238 106.471 36.2803C106.753 36.3367 107.035 36.1674 107.374 36.0546C107.543 35.9417 107.769 35.8853 107.882 35.7724C107.994 35.6032 108.107 35.3775 108.107 35.0389C108.164 34.5875 108.051 34.1362 107.825 33.7412L108.051 33.5719L107.825 33.6848C107.656 33.4591 107.43 33.2898 107.148 33.2334C107.092 33.3462 106.979 33.2898 106.922 33.2898Z" fill="black"/>
<path d="M103.255 32.4999C103.142 32.4999 103.086 32.4435 103.029 32.3871C102.521 31.6536 102.183 30.7508 102.07 29.848C102.07 29.6788 102.183 29.5659 102.296 29.5659C102.465 29.5659 102.578 29.6788 102.578 29.7916C102.691 30.638 102.973 31.4279 103.424 32.105C103.481 32.2178 103.481 32.3871 103.368 32.4999C103.368 32.4999 103.311 32.4999 103.255 32.4999Z" fill="black"/>
<path d="M102.127 33.3462C102.07 33.3462 101.957 33.2898 101.901 33.2334L101.224 32.4435C101.111 32.3306 101.111 32.1613 101.224 32.0485C101.337 31.9357 101.506 31.9357 101.619 32.0485L102.296 32.8384C102.409 32.9513 102.409 33.1206 102.296 33.2334C102.239 33.2898 102.183 33.3462 102.127 33.3462Z" fill="black"/>
<path d="M97.4997 63.0816C97.4432 63.0816 97.4432 63.0816 97.4997 63.0816C95.7505 62.8559 94.1142 62.4045 92.5344 61.7274C92.4215 61.671 92.3087 61.5017 92.3651 61.3889C92.4215 61.276 92.5908 61.1632 92.7037 61.2196C94.2271 61.8967 95.8634 62.3481 97.4997 62.5738C97.6689 62.5738 97.7253 62.743 97.7253 62.8559C97.7253 62.9687 97.6125 63.0816 97.4997 63.0816Z" fill="black"/>
<g opacity="0.1294">
<path d="M123.454 53.2074C123.116 53.2074 122.89 53.4331 122.608 53.6024C122.213 53.8845 121.762 54.1666 121.367 54.4487C120.407 55.1258 119.448 55.8029 118.602 56.5928C118.038 57.1571 118.884 58.0034 119.505 57.4956C120.577 56.5364 121.085 56.1978 122.213 55.4079C122.608 55.1822 123.003 54.9001 123.341 54.6744C123.511 54.5051 123.793 54.4487 123.962 54.2794C124.301 53.8281 123.962 53.2074 123.454 53.2074Z" fill="black"/>
</g>
<path d="M93.042 105.117C92.9856 105.117 92.9292 105.061 92.9292 105.004L93.5499 97.6128C93.5499 97.5563 93.6063 97.4999 93.6627 97.5563C93.7191 97.5563 93.7756 97.6128 93.7191 97.6692L93.0985 105.061C93.0985 105.061 93.0985 105.117 93.042 105.117Z" fill="black"/>
<path d="M95.9764 106.133C95.92 106.133 95.8635 106.076 95.8635 106.02L96.1456 96.7664C96.1456 96.71 96.2021 96.6536 96.2585 96.6536C96.3149 96.6536 96.3713 96.71 96.3713 96.7664L96.0892 106.02C96.0892 106.076 96.0328 106.133 95.9764 106.133Z" fill="black"/>
<path d="M124.132 82.9427C124.075 82.9427 124.019 82.8863 124.019 82.8299L124.188 78.7674C124.188 78.711 124.244 78.6545 124.301 78.6545C124.357 78.6545 124.414 78.711 124.414 78.7674L124.244 82.8299C124.188 82.9427 124.188 82.9427 124.132 82.9427Z" fill="black"/>
<path d="M126.727 86.3281C126.671 86.3281 126.614 86.2716 126.614 86.2152C126.614 82.5477 126.727 78.8237 126.953 75.1562C126.953 75.0998 127.009 75.0433 127.066 75.0433C127.122 75.0433 127.178 75.0998 127.178 75.1562C127.009 78.8237 126.896 82.5477 126.84 86.2152C126.84 86.2716 126.784 86.3281 126.727 86.3281Z" fill="black"/>
<path d="M112.057 101.675C112.001 101.675 111.944 101.619 111.944 101.562C112.17 100.772 112.508 99.9826 112.903 99.249C112.903 99.1926 112.96 99.1926 113.016 99.1926C113.073 99.1926 113.073 99.249 113.073 99.3055C112.678 100.039 112.339 100.772 112.113 101.562C112.113 101.619 112.113 101.675 112.057 101.675Z" fill="black"/>
<path d="M112.734 102.409C112.678 102.409 112.621 102.352 112.621 102.296C112.734 101.619 112.96 100.998 113.242 100.434C113.242 100.378 113.298 100.378 113.355 100.378C113.411 100.378 113.411 100.434 113.411 100.49C113.129 101.055 112.903 101.675 112.791 102.296C112.847 102.409 112.791 102.409 112.734 102.409Z" fill="black"/>
<path d="M113.581 103.086C113.524 103.086 113.468 103.029 113.468 102.973C113.468 102.296 113.637 101.619 113.919 100.998C113.919 100.942 113.976 100.942 114.032 100.942C114.088 100.942 114.088 100.998 114.088 101.055C113.806 101.675 113.637 102.296 113.637 102.973C113.693 103.029 113.637 103.086 113.581 103.086Z" fill="black"/>
<path d="M114.483 103.594C114.427 103.594 114.37 103.537 114.37 103.481C114.37 102.86 114.483 102.24 114.652 101.675C114.652 101.619 114.709 101.619 114.765 101.619C114.822 101.619 114.822 101.675 114.822 101.732C114.652 102.296 114.596 102.917 114.54 103.537C114.596 103.537 114.54 103.594 114.483 103.594Z" fill="black"/>
<path d="M115.499 104.271C115.442 104.271 115.386 104.214 115.386 104.158C115.386 103.537 115.442 102.86 115.499 102.24C115.499 102.183 115.555 102.183 115.612 102.183C115.668 102.183 115.668 102.24 115.668 102.296C115.555 102.917 115.555 103.537 115.555 104.214C115.612 104.214 115.555 104.271 115.499 104.271Z" fill="black"/>
<path d="M116.458 104.666C116.401 104.666 116.345 104.609 116.345 104.553C116.345 104.045 116.345 103.481 116.401 102.973C116.401 102.917 116.458 102.917 116.514 102.917C116.571 102.917 116.627 102.973 116.571 103.029C116.514 103.537 116.514 104.045 116.514 104.553C116.571 104.609 116.514 104.666 116.458 104.666C116.514 104.666 116.458 104.666 116.458 104.666Z" fill="black"/>
<path d="M117.417 105.399C117.361 105.399 117.361 105.343 117.304 105.343C117.248 104.891 117.248 104.497 117.304 104.045C117.304 103.989 117.361 103.932 117.417 103.989C117.474 103.989 117.53 104.045 117.474 104.102C117.417 104.497 117.417 104.948 117.474 105.343C117.53 105.343 117.474 105.399 117.417 105.399Z" fill="black"/>
<path d="M83.3938 44.4618C83.3938 44.4618 83.3374 44.4618 83.3374 44.4053C82.9988 44.0104 82.6603 43.559 82.3782 43.1076C82.3782 43.0512 82.3782 42.9948 82.3782 42.9948C82.4346 42.9948 82.491 42.9948 82.491 42.9948C82.7731 43.4461 83.1117 43.8975 83.4502 44.2925C83.5066 44.3489 83.4502 44.4053 83.4502 44.4053C83.3938 44.4053 83.3938 44.4618 83.3938 44.4618Z" fill="black"/>
<path d="M86.0459 46.3238C86.0459 46.3238 85.9895 46.3238 85.9895 46.2673C85.0303 45.0824 84.1275 43.8976 83.2812 42.6562C83.2248 42.5998 83.2812 42.5434 83.2812 42.5434C83.3376 42.487 83.394 42.5434 83.394 42.5434C84.2404 43.7847 85.1432 44.9696 86.1024 46.1545C86.1588 46.2109 86.1024 46.2673 86.1024 46.2673C86.0459 46.3238 86.0459 46.3238 86.0459 46.3238Z" fill="black"/>
<path d="M88.0204 46.888C88.0204 46.888 87.964 46.888 87.964 46.8316C86.7227 45.3081 85.5942 43.7847 84.4658 42.2048C84.4093 42.1484 84.4658 42.092 84.4658 42.092C84.5222 42.0355 84.5786 42.092 84.5786 42.092C85.6506 43.6718 86.8355 45.2517 88.0769 46.7187C88.1333 46.7751 88.0769 46.8316 88.0769 46.8316C88.0769 46.888 88.0204 46.888 88.0204 46.888Z" fill="black"/>
<path d="M89.4876 47.1701C89.4876 47.1701 89.4312 47.1701 89.4312 47.1137C88.077 45.5338 86.8357 43.8411 85.7637 42.0356C85.7637 41.9792 85.7637 41.9227 85.8201 41.9227C85.8765 41.9227 85.9329 41.9227 85.9329 41.9792C87.0614 43.7283 88.2463 45.421 89.6005 47.0009C89.6569 47.0573 89.6005 47.1137 89.6005 47.1137C89.5441 47.1701 89.4876 47.1701 89.4876 47.1701Z" fill="black"/>
<path d="M90.8417 47.0573C90.8417 47.0573 90.7853 47.0573 90.7853 47.0009C89.4311 45.421 88.1334 43.6719 86.9485 41.9792C86.9485 41.9228 86.9485 41.8663 86.9485 41.8663C87.0049 41.8663 87.0613 41.8663 87.0613 41.8663C88.2462 43.6155 89.544 45.3082 90.8981 46.888C90.9546 46.9445 90.8981 47.0009 90.8981 47.0009C90.8981 47.0573 90.8981 47.0573 90.8417 47.0573Z" fill="black"/>
<path d="M92.2524 46.8879C92.2524 46.8879 92.196 46.8879 92.196 46.8315C90.7854 45.3081 89.4876 43.6718 88.3027 41.9227C88.3027 41.8662 88.3027 41.8098 88.3027 41.8098C88.3592 41.8098 88.4156 41.8098 88.4156 41.8098C89.6005 43.5025 90.8418 45.1388 92.2524 46.6622C92.3088 46.7187 92.3088 46.7751 92.2524 46.7751C92.2524 46.8879 92.2524 46.8879 92.2524 46.8879Z" fill="black"/>
<path d="M93.3808 46.6058C93.3808 46.6058 93.3244 46.6058 93.3244 46.5494C92.0831 45.1952 90.8982 43.7847 89.7697 42.2612C89.7133 42.2048 89.7697 42.1484 89.7697 42.1484C89.8261 42.0919 89.8826 42.1484 89.8826 42.1484C91.011 43.6154 92.1959 45.026 93.4372 46.3801C93.4937 46.4366 93.4937 46.493 93.4372 46.493C93.4372 46.6058 93.4372 46.6058 93.3808 46.6058Z" fill="black"/>
<path d="M94.5658 46.3238H94.5093C93.3809 45.1389 92.2524 43.8976 91.1804 42.5998C91.1239 42.5434 91.1804 42.487 91.1804 42.487C91.2368 42.4306 91.2932 42.487 91.2932 42.487C92.3652 43.7283 93.4937 44.9696 94.6222 46.1545C94.6786 46.2109 94.6786 46.2674 94.6222 46.2674C94.6222 46.2674 94.6222 46.3238 94.5658 46.3238Z" fill="black"/>
<path d="M95.7506 45.8724H95.6942C94.7914 45.026 93.9451 44.1796 93.0987 43.2769C93.0423 43.2204 93.0423 43.164 93.0987 43.164C93.1551 43.1076 93.2116 43.1076 93.2116 43.164C94.0015 44.0668 94.9043 44.9132 95.7506 45.7595C95.807 45.8159 95.807 45.8724 95.7506 45.8724C95.807 45.8724 95.807 45.8159 95.7506 45.8724Z" fill="black"/>
<path d="M96.879 45.4774H96.8226C96.0891 44.8568 95.412 44.1233 94.7349 43.4462C94.6785 43.3898 94.6785 43.3333 94.7349 43.3333C94.7914 43.2769 94.8478 43.2769 94.8478 43.3333C95.5249 44.0104 96.202 44.6875 96.9355 45.3646C96.9919 45.421 96.9919 45.4774 96.9355 45.4774C96.9355 45.421 96.9355 45.4774 96.879 45.4774Z" fill="black"/>
<path d="M97.7819 44.8567H97.7255L96.0328 43.2769C95.9764 43.2204 95.9764 43.164 96.0328 43.164C96.0892 43.1076 96.1456 43.1076 96.1456 43.164L97.8384 44.7439C97.8948 44.8003 97.8948 44.8567 97.8384 44.8567H97.7819Z" fill="black"/>
<path d="M98.9103 44.4618H98.8538L97.3304 42.9948C97.274 42.9383 97.274 42.8819 97.3304 42.8819C97.3868 42.8255 97.4432 42.8255 97.4432 42.8819L98.9667 44.3489C99.0231 44.4054 99.0231 44.4618 98.9667 44.4618C98.9667 44.4618 98.9667 44.4618 98.9103 44.4618Z" fill="black"/>
<path d="M99.7002 43.8976C99.1924 43.5026 98.7974 43.1076 98.4024 42.7127C98.346 42.6562 98.346 42.5998 98.4024 42.5998C98.4588 42.5434 98.5153 42.5434 98.5153 42.5998C98.9102 42.9948 99.3052 43.3897 99.7566 43.7283C99.813 43.7847 99.813 43.8411 99.7566 43.8411C99.7566 43.8976 99.7566 43.8976 99.7002 43.8976Z" fill="black"/>
<path d="M100.49 43.3333H100.434L99.3617 42.3176C99.3052 42.2612 99.3052 42.2048 99.3617 42.2048C99.4181 42.1484 99.4745 42.1484 99.4745 42.2048L100.547 43.2204C100.603 43.2768 100.603 43.3333 100.547 43.3333C100.547 43.3333 100.547 43.3333 100.49 43.3333Z" fill="black"/>
<path d="M101.336 42.8255H101.28C100.941 42.487 100.546 42.2049 100.151 41.9227C100.095 41.8663 100.095 41.8099 100.151 41.8099C100.208 41.7535 100.264 41.7535 100.264 41.8099C100.659 42.092 101.054 42.3741 101.393 42.7127C101.449 42.7691 101.449 42.8255 101.393 42.8255C101.393 42.7691 101.393 42.8255 101.336 42.8255Z" fill="black"/>
<path d="M102.126 42.1484C102.07 42.1484 102.126 42.1484 102.126 42.1484C101.731 41.8662 101.393 41.5841 101.054 41.302C100.998 41.2456 100.998 41.1892 101.054 41.1892C101.111 41.1327 101.167 41.1327 101.167 41.1892C101.506 41.4713 101.844 41.7534 102.183 41.9791C102.239 42.0355 102.239 42.0919 102.183 42.0919C102.183 42.1484 102.126 42.1484 102.126 42.1484Z" fill="black"/>
<path d="M102.916 41.3585C102.86 41.3585 102.86 41.3585 102.916 41.3585L101.957 40.6814C101.901 40.625 101.901 40.5686 101.957 40.5686C102.014 40.5121 102.07 40.5121 102.07 40.5686L102.973 41.2456C103.029 41.3021 103.029 41.3585 102.973 41.3585C102.973 41.3021 102.916 41.3585 102.916 41.3585Z" fill="black"/>
<path d="M103.593 40.5121C103.537 40.5121 103.537 40.5121 103.593 40.5121L102.916 40.0043C102.86 39.9479 102.86 39.8914 102.916 39.8914C102.973 39.835 103.029 39.835 103.029 39.8914L103.65 40.3428C103.706 40.3993 103.706 40.4557 103.65 40.4557C103.65 40.5121 103.593 40.5121 103.593 40.5121Z" fill="black"/>
<path d="M104.327 39.9479H104.271L103.65 39.3837C103.594 39.3273 103.594 39.2708 103.65 39.2708C103.706 39.2144 103.763 39.2144 103.763 39.2708L104.383 39.8351C104.44 39.8915 104.44 39.9479 104.383 39.9479H104.327Z" fill="black"/>
<path d="M104.891 39.1581C104.609 38.9888 104.383 38.8759 104.214 38.7067C104.158 38.6503 104.158 38.5938 104.214 38.5938C104.271 38.5374 104.327 38.5374 104.327 38.5938C104.553 38.7631 104.722 38.8759 104.948 38.9888C105.004 38.9888 105.004 39.0452 105.004 39.1016C104.948 39.1581 104.948 39.1581 104.891 39.1581Z" fill="black"/>
<path d="M105.512 38.4244C105.455 38.4244 105.512 38.4244 105.512 38.4244L104.778 37.973C104.722 37.973 104.722 37.9166 104.778 37.8602C104.778 37.8038 104.835 37.8038 104.891 37.8602L105.568 38.2552C105.625 38.2552 105.625 38.3116 105.568 38.368C105.568 38.4244 105.568 38.4244 105.512 38.4244Z" fill="black"/>
<path d="M106.076 37.6345C106.02 37.6345 106.02 37.6345 106.076 37.6345L105.455 37.296C105.399 37.296 105.399 37.2396 105.399 37.1831C105.399 37.1267 105.455 37.1267 105.512 37.1267L106.132 37.4652C106.189 37.4652 106.189 37.5217 106.189 37.5781C106.132 37.5781 106.076 37.6345 106.076 37.6345Z" fill="black"/>
<path d="M106.979 35.8854C106.471 35.6033 106.076 35.3212 105.681 34.9827C105.625 34.9262 105.625 34.8698 105.681 34.8698C105.738 34.8698 105.794 34.8134 105.794 34.8698C106.189 35.2083 106.584 35.4905 107.035 35.7162C107.092 35.7162 107.092 35.7726 107.092 35.829C107.092 35.8854 107.035 35.8854 106.979 35.8854Z" fill="black"/>
<path d="M107.656 35.2647C107.6 35.2647 107.6 35.2647 107.656 35.2647C107.317 35.0955 106.979 34.9262 106.697 34.7569C106.64 34.7569 106.64 34.7005 106.64 34.6441C106.64 34.5876 106.697 34.5876 106.753 34.5876C107.035 34.7569 107.374 34.9262 107.656 35.0955C107.712 35.0955 107.712 35.1519 107.712 35.2083C107.712 35.2647 107.656 35.2647 107.656 35.2647Z" fill="black"/>
<path d="M138.125 49.7656C138.068 49.7656 138.012 49.7092 138.012 49.6527L138.463 47.6215C138.463 47.5651 138.52 47.5651 138.576 47.5651C138.633 47.5651 138.633 47.6215 138.633 47.6779L138.238 49.6527C138.181 49.7092 138.181 49.7656 138.125 49.7656Z" fill="black"/>
<path d="M139.253 52.2482C139.197 52.2482 139.14 52.1918 139.14 52.1353C139.366 50.3862 139.648 48.6935 140.1 46.9444C140.1 46.8879 140.156 46.8879 140.212 46.8879C140.269 46.8879 140.269 46.9444 140.269 47.0008C139.874 48.6935 139.535 50.4426 139.31 52.1353C139.366 52.2482 139.31 52.2482 139.253 52.2482Z" fill="black"/>
<path d="M140.438 54.5051C140.382 54.5051 140.325 54.4487 140.325 54.3923C140.607 51.7404 141.002 49.0885 141.454 46.4366C141.454 46.3801 141.51 46.3801 141.567 46.3801C141.623 46.3801 141.623 46.4366 141.623 46.493C141.172 49.0885 140.833 51.7968 140.494 54.4487C140.551 54.4487 140.494 54.5051 140.438 54.5051Z" fill="black"/>
<path d="M141.736 56.9315C141.679 56.9315 141.623 56.875 141.623 56.8186C141.905 53.6589 142.244 50.3863 142.639 47.2266C142.639 47.1702 142.695 47.1702 142.752 47.1702C142.808 47.1702 142.864 47.2266 142.808 47.283C142.413 50.4427 142.074 53.6589 141.792 56.875L141.736 56.9315Z" fill="black"/>
<path d="M142.977 58.6241C142.921 58.6241 142.921 58.6241 142.977 58.6241C142.921 58.6241 142.864 58.5676 142.864 58.5112L143.654 50.3298C143.654 50.2734 143.711 50.2169 143.767 50.2734C143.823 50.2734 143.88 50.3298 143.823 50.3862L143.034 58.5676L142.977 58.6241Z" fill="black"/>
<path d="M144.106 60.9939C144.049 60.9939 144.106 60.9939 144.106 60.9939C144.049 60.9939 143.993 60.9375 143.993 60.8811L144.895 52.7561C144.895 52.6996 144.952 52.6432 145.008 52.6996C145.065 52.6996 145.121 52.7561 145.065 52.8125L144.162 60.9375L144.106 60.9939Z" fill="black"/>
<path d="M145.403 63.0252C145.347 63.0252 145.291 62.9688 145.291 62.9124C145.629 60.2604 145.911 57.6085 146.08 54.9566C146.08 54.9002 146.137 54.8438 146.193 54.9002C146.25 54.9002 146.306 54.9566 146.25 55.013C146.024 57.665 145.798 60.3733 145.46 62.9688C145.46 63.0252 145.46 63.0252 145.403 63.0252Z" fill="black"/>
<path d="M146.814 65.1693C146.758 65.1693 146.701 65.1128 146.701 65.0564L147.265 57.3264C147.265 57.27 147.322 57.2135 147.378 57.27C147.435 57.27 147.491 57.3264 147.435 57.3828L146.87 65.1128C146.927 65.1128 146.87 65.1693 146.814 65.1693Z" fill="black"/>
<path d="M148.281 67.1441C148.225 67.1441 148.168 67.0877 148.168 67.0312C148.225 64.4922 148.337 61.8967 148.507 59.3576C148.507 59.3012 148.563 59.2448 148.62 59.3012C148.676 59.3012 148.732 59.3576 148.676 59.4141C148.507 61.9531 148.394 64.5486 148.337 67.0877C148.337 67.0877 148.337 67.1441 148.281 67.1441Z" fill="black"/>
<path d="M149.635 68.8932C149.579 68.8932 149.579 68.8932 149.635 68.8932C149.579 68.8932 149.522 68.8367 149.522 68.7803L149.917 61.4452C149.917 61.3888 149.974 61.3324 150.03 61.3324C150.086 61.3324 150.143 61.3888 150.143 61.4452L149.748 68.7803C149.691 68.8932 149.635 68.8932 149.635 68.8932Z" fill="black"/>
<path d="M150.764 70.3038C150.707 70.3038 150.651 70.2474 150.651 70.191L151.215 63.3637C151.215 63.3073 151.272 63.2509 151.328 63.3073C151.384 63.3073 151.441 63.3637 151.384 63.4202L150.82 70.2474C150.82 70.2474 150.82 70.3038 150.764 70.3038Z" fill="black"/>
<path d="M152.118 71.9401C152.061 71.9401 152.005 71.8837 152.005 71.8273C152.174 69.5703 152.287 67.3134 152.343 65.0565C152.343 65 152.4 64.9436 152.456 64.9436C152.513 64.9436 152.569 65 152.569 65.0565C152.513 67.3134 152.4 69.5703 152.231 71.8273C152.174 71.9401 152.174 71.9401 152.118 71.9401Z" fill="black"/>
<path d="M153.472 73.4636C153.416 73.4636 153.359 73.4071 153.359 73.3507L153.811 66.6363C153.811 66.5799 153.867 66.5235 153.923 66.5799C153.98 66.5799 154.036 66.6363 153.98 66.6927L153.528 73.4072C153.528 73.4072 153.528 73.4636 153.472 73.4636Z" fill="black"/>
<path d="M154.657 74.7048C154.6 74.7048 154.544 74.6484 154.544 74.592C154.826 72.5607 155.052 70.4731 155.165 68.4418C155.165 68.3854 155.221 68.329 155.277 68.329C155.334 68.329 155.39 68.3854 155.39 68.4418C155.277 70.4731 155.052 72.5607 154.77 74.592C154.77 74.6484 154.713 74.7048 154.657 74.7048Z" fill="black"/>
<path d="M156.293 76.6796C156.237 76.6796 156.18 76.6232 156.18 76.5668L156.519 70.0781C156.519 70.0216 156.575 69.9652 156.632 69.9652C156.688 69.9652 156.744 70.0216 156.744 70.0781L156.406 76.5668C156.406 76.6232 156.349 76.6796 156.293 76.6796Z" fill="black"/>
<path d="M157.986 78.0338C157.929 78.0338 157.873 77.9774 157.873 77.921V71.5451C157.873 71.4887 157.929 71.4323 157.986 71.4323C158.042 71.4323 158.099 71.4887 158.099 71.5451V77.921C158.099 77.9774 158.042 78.0338 157.986 78.0338Z" fill="black"/>
<path d="M159.509 78.993C159.453 78.993 159.396 78.9366 159.396 78.8802L159.283 73.0685C159.283 73.0121 159.34 72.9557 159.396 72.9557C159.453 72.9557 159.509 73.0121 159.509 73.0685L159.622 78.8802C159.622 78.9366 159.566 78.993 159.509 78.993Z" fill="black"/>
<path d="M160.92 77.8081C160.863 77.8081 160.807 77.7517 160.807 77.7517C160.694 76.7361 160.694 75.664 160.75 74.592C160.75 74.5356 160.807 74.4792 160.863 74.5356C160.92 74.5356 160.976 74.592 160.92 74.6484C160.863 75.664 160.863 76.7361 160.976 77.7517C161.033 77.7517 160.976 77.8081 160.92 77.8081Z" fill="black"/>
<path d="M69.3443 104.327C69.3443 104.271 69.3443 104.327 69.3443 104.327C69.2879 104.327 69.2314 104.271 69.2314 104.214L69.7393 102.409C69.7393 102.352 69.7957 102.352 69.8521 102.352C69.9085 102.352 69.9085 102.409 69.9085 102.465L69.4007 104.271C69.4571 104.271 69.4007 104.327 69.3443 104.327Z" fill="black"/>
<path d="M70.1343 106.471C70.0779 106.471 70.0215 106.415 70.0215 106.359C70.3036 104.779 70.6986 103.142 71.15 101.619C71.15 101.563 71.2064 101.562 71.2628 101.562C71.3192 101.562 71.3192 101.619 71.3192 101.675C70.8678 103.255 70.5293 104.835 70.1908 106.415C70.1908 106.415 70.1908 106.471 70.1343 106.471Z" fill="black"/>
<path d="M71.0933 109.123C71.0369 109.123 70.9805 109.067 70.9805 109.01C71.2062 107.261 71.5447 105.456 71.8832 103.707C71.8832 103.65 71.9397 103.65 71.9961 103.65C72.0525 103.65 72.0525 103.707 72.0525 103.763C71.6575 105.512 71.3754 107.261 71.1497 109.067C71.1497 109.067 71.1497 109.123 71.0933 109.123Z" fill="black"/>
<path d="M72.1653 111.38C72.1089 111.38 72.0525 111.324 72.0525 111.267C72.2218 109.518 72.4475 107.769 72.7296 106.02C72.7296 105.963 72.786 105.964 72.8424 105.964C72.8988 105.964 72.8988 106.02 72.8988 106.076C72.6167 107.825 72.391 109.575 72.2218 111.267C72.2782 111.324 72.2218 111.38 72.1653 111.38Z" fill="black"/>
<path d="M73.2376 113.694C73.1812 113.694 73.1248 113.637 73.1248 113.581L73.689 108.051C73.689 107.995 73.7454 107.995 73.8018 107.995C73.8583 107.995 73.9147 108.051 73.8583 108.108L73.294 113.637L73.2376 113.694Z" fill="black"/>
<path d="M74.4224 115.725C74.366 115.725 74.3096 115.668 74.3096 115.612L74.8738 110.308C74.8738 110.252 74.9302 110.195 74.9867 110.252C75.0431 110.252 75.0995 110.308 75.0431 110.364L74.4788 115.668C74.5353 115.725 74.4788 115.725 74.4224 115.725Z" fill="black"/>
<path d="M75.8895 117.7C75.833 117.7 75.7766 117.643 75.7766 117.587L76.1716 112.565C76.1716 112.509 76.228 112.452 76.2844 112.509C76.3408 112.509 76.3973 112.565 76.3408 112.621L75.9459 117.643C75.9459 117.7 75.9459 117.7 75.8895 117.7Z" fill="black"/>
<path d="M77.4129 119.618C77.3565 119.618 77.3 119.562 77.3 119.505C77.3 117.869 77.3565 116.176 77.4693 114.54C77.4693 114.483 77.5257 114.427 77.5822 114.427C77.6386 114.427 77.695 114.483 77.695 114.54C77.5822 116.176 77.5257 117.869 77.5257 119.505C77.5257 119.562 77.4693 119.618 77.4129 119.618Z" fill="black"/>
<path d="M79.1056 121.198C79.0492 121.198 78.9927 121.142 78.9927 121.085C78.9363 119.505 78.8799 117.925 78.8799 116.346C78.8799 116.289 78.9363 116.233 78.9927 116.233C79.0492 116.233 79.1056 116.289 79.1056 116.346C79.1056 117.925 79.1056 119.505 79.2184 121.085C79.2184 121.142 79.162 121.198 79.1056 121.198Z" fill="black"/>
<path d="M80.7419 122.834C80.6854 122.834 80.629 122.778 80.629 122.778C80.4597 121.254 80.4033 119.731 80.4033 118.207C80.4033 118.151 80.4597 118.095 80.5162 118.095C80.5726 118.095 80.629 118.151 80.629 118.207C80.629 119.731 80.6854 121.254 80.8547 122.721C80.8547 122.778 80.7983 122.834 80.7419 122.834Z" fill="black"/>
<path d="M82.4346 124.076C82.3782 124.076 82.3782 124.019 82.3217 124.019C82.1525 122.665 81.9832 121.311 81.8704 119.957C81.8704 119.9 81.9268 119.844 81.9268 119.844C81.9832 119.844 82.0396 119.9 82.0396 119.9C82.1525 121.254 82.2653 122.609 82.491 123.963C82.5474 124.019 82.5474 124.076 82.4346 124.076C82.491 124.076 82.491 124.076 82.4346 124.076Z" fill="black"/>
<path d="M84.2965 125.373C84.2401 125.373 84.2401 125.317 84.1837 125.317C83.9016 123.906 83.6195 122.496 83.4502 121.085C83.4502 121.029 83.5066 120.972 83.5066 120.972C83.563 120.972 83.6195 121.029 83.6195 121.029C83.7887 122.439 84.0709 123.85 84.353 125.26C84.353 125.317 84.353 125.373 84.2965 125.373Z" fill="black"/>
<path d="M85.9328 126.276C85.8764 126.276 85.8764 126.276 85.82 126.22C85.5378 124.922 85.2557 123.624 85.03 122.326C85.03 122.27 85.03 122.214 85.0865 122.214C85.1429 122.214 85.1993 122.213 85.1993 122.27C85.425 123.568 85.7071 124.865 85.9892 126.163C86.0457 126.22 86.0457 126.276 85.9328 126.276C85.9892 126.276 85.9892 126.276 85.9328 126.276Z" fill="black"/>
<path d="M87.4564 126.332C87.4 126.332 87.4 126.276 87.3436 126.276L86.6665 123.398C86.6665 123.342 86.6665 123.286 86.7229 123.286C86.7793 123.286 86.8358 123.286 86.8358 123.342L87.5129 126.22C87.5129 126.276 87.5129 126.332 87.4564 126.332Z" fill="black"/>
<path d="M88.8669 125.881C88.8105 125.881 88.7541 125.881 88.7541 125.768L88.3591 124.414C88.3591 124.358 88.3591 124.301 88.4155 124.301C88.472 124.301 88.5284 124.301 88.5284 124.358L88.9234 125.655C88.9234 125.655 88.9234 125.655 88.9798 125.655C89.0362 125.712 89.0362 125.712 88.9798 125.768C88.9798 125.825 88.9234 125.881 88.8669 125.881Z" fill="black"/>
<g opacity="0.1294">
<path d="M111.436 26.1806C111.098 25.8984 110.646 25.8984 110.251 25.7856C109.856 25.6727 109.461 25.5599 109.123 25.3906C108.897 25.2778 108.728 25.2214 108.502 25.1085L108.446 25.0521C108.333 24.9957 108.22 24.8828 108.107 24.8828C107.938 24.77 107.825 24.6007 107.656 24.4878C107.148 24.2622 106.697 24.9392 107.092 25.3342C107.938 26.1241 108.728 26.9705 109.574 27.7604C109.969 28.099 110.251 28.6068 110.759 28.8325C110.985 28.8889 111.267 28.776 111.38 28.5503C111.436 28.3811 111.436 28.1554 111.436 27.9297C111.436 27.4783 111.436 27.5911 111.549 27.0269C111.605 26.7448 111.662 26.4062 111.436 26.1806Z" fill="black"/>
</g>
<g opacity="0.1294">
<path d="M106.189 38.5374C105.512 39.3273 104.891 40.1172 104.214 40.8507C103.876 41.1893 103.537 41.5278 103.199 41.8663C103.142 41.9228 103.086 41.9792 103.029 42.0356C102.691 42.4306 102.296 42.8255 101.957 43.2205C101.901 43.1641 101.844 43.1641 101.732 43.1641C101.506 43.3898 101.28 43.5591 100.998 43.7283C100.885 43.8412 100.772 43.7847 100.66 43.7283C99.0797 44.9696 97.2741 45.8724 95.4686 46.7188H95.4122C95.3557 46.7752 95.2993 46.7752 95.2429 46.8316C94.9608 47.1137 94.9608 47.5087 94.9043 47.8472C94.8479 48.2986 94.7915 48.8629 95.2993 49.0321C95.6943 49.2014 96.0328 48.9193 96.3714 48.6936C96.992 48.3551 97.5563 47.9601 98.0641 47.5651C99.6439 46.5495 100.603 46.0417 101.901 44.744C102.916 43.7847 103.876 42.7127 104.778 41.6407C105.004 41.3585 105.23 41.0764 105.456 40.7379C105.625 40.3429 105.794 39.9479 105.963 39.4966C106.02 39.2709 106.133 38.8759 106.189 38.5374Z" fill="black"/>
</g>
<g opacity="0.1294">
<path d="M112.396 76.0589C112.057 75.7204 111.549 75.8332 111.154 75.7768C109.969 75.6076 108.728 75.5511 107.487 75.6076C106.979 75.6076 106.415 75.6076 105.907 75.6076C105.681 75.6076 105.399 75.5511 105.173 75.664C105.117 75.7204 105.004 75.7204 105.004 75.7768C104.214 75.7204 103.368 75.7204 102.578 75.664C100.885 75.5511 99.0796 75.4383 97.7819 75.1562C97.1048 74.9869 96.8227 76.0025 97.4998 76.1718C98.3461 76.3975 99.2489 76.4539 100.095 76.5668C101.111 76.736 102.634 76.9053 104.101 76.9617C105.681 77.0746 107.261 77.3003 108.841 77.3567C109.913 77.4131 110.985 77.3567 112.057 77.1874C112.508 77.1874 112.791 76.4539 112.396 76.0589Z" fill="black"/>
</g>
<g opacity="0.1294">
<path d="M119.674 104.722C119.731 104.722 119.731 104.722 119.674 104.722C119.731 104.835 119.731 104.835 119.674 104.722Z" fill="black"/>
</g>
<g opacity="0.1294">
<path d="M120.803 83.5634C120.577 83.1684 120.013 83.2813 119.9 83.6762C119.336 85.6511 119.223 87.7387 118.828 89.7136C118.602 90.7292 118.377 91.7448 118.151 92.8169C117.925 94.2839 117.643 95.7509 117.192 97.1615C116.966 97.8386 116.797 98.4028 116.627 98.6849C116.627 98.7413 116.571 98.7413 116.571 98.7978C116.402 98.7978 116.289 98.7978 116.12 98.7978C115.386 98.7413 115.048 99.4184 115.33 100.039C115.668 101.111 117.022 102.747 117.305 103.142C118.038 104.045 118.828 105.569 118.828 105.794C118.884 106.076 118.997 106.359 119.054 106.584C119.054 106.697 119.11 106.866 119.223 106.979C119.561 107.374 120.239 107.036 120.239 106.528C120.126 105.907 120.013 105.343 119.787 104.779C119.787 104.722 119.787 104.722 119.731 104.666C119.731 104.666 119.731 104.609 119.674 104.609C119.618 104.44 119.336 103.763 119.449 104.045C119.167 103.424 118.828 102.578 118.489 101.619C118.264 100.998 118.038 100.434 117.812 99.8134C117.756 99.6441 117.7 99.4748 117.587 99.3056C118.264 98.0643 118.546 96.5972 118.884 95.2431C119.167 93.4939 119.505 91.8012 119.9 90.1085C120.126 88.7544 120.408 86.3281 120.464 86.046C120.577 85.4254 120.634 84.8047 120.803 84.184C120.803 84.0712 120.972 83.7891 120.803 83.5634Z" fill="black"/>
</g>
<g opacity="0.1294">
<path d="M167.352 70.868C167.183 70.6988 167.014 70.6988 166.844 70.7552C166.675 70.6988 166.506 70.7552 166.393 70.868C165.659 71.658 164.926 72.4479 164.249 73.2942C163.854 73.1814 163.572 73.5764 163.346 73.9149C163.064 74.3099 162.838 74.6484 162.556 74.9869C162.443 75.1562 162.33 75.3255 162.161 75.4383C160.186 77.1875 158.042 78.8238 156.011 80.5729C152.343 83.5633 148.619 86.5538 145.008 89.375C144.839 89.4878 144.726 89.6007 144.557 89.6571C142.131 91.2934 139.648 92.8732 137.222 94.5095C132.2 97.9514 127.291 101.562 122.157 104.779C119.843 106.246 117.53 107.713 115.217 109.18C113.693 110.139 112.113 110.985 110.534 111.888C108.164 113.299 105.907 114.822 103.481 116.176C101.393 117.474 99.2488 118.659 97.0483 119.844C95.1299 120.972 93.2115 122.101 91.2931 123.286C90.7289 123.624 90.1646 123.963 89.6004 124.301C89.3747 124.47 89.0926 124.527 88.9233 124.809C88.5284 124.978 88.1334 125.148 87.7948 125.317C87.4563 125.373 87.287 125.768 87.3435 126.107C87.4563 126.445 87.7948 126.615 88.1334 126.558C88.3027 126.502 88.4719 126.445 88.6412 126.389C88.0205 126.727 88.3591 127.743 89.149 127.574C93.8322 126.502 98.4589 125.317 103.142 124.47C104.383 124.245 104.835 124.188 105.85 124.075C106.584 124.019 107.035 123.963 107.317 123.455C107.374 122.665 107.487 121.819 107.543 121.029C107.712 119.674 107.882 118.32 108.107 117.023C108.107 116.91 108.107 116.853 108.164 116.74C108.051 116.628 107.938 116.571 107.825 116.571C108.333 116.233 108.897 115.894 109.405 115.556C109.744 115.273 110.251 115.048 110.421 114.766C111.323 114.314 112.283 113.806 113.242 113.355C114.596 112.678 115.837 111.888 117.135 111.098C119.618 109.687 121.931 108.051 124.244 106.415C126.276 105.004 128.307 103.707 130.395 102.352C132.257 101.111 134.344 100.095 136.206 98.7977C138.068 97.5564 139.874 96.2587 141.736 95.0738C143.316 94.0017 144.896 93.0425 146.419 91.914C146.927 91.5191 147.435 91.1241 147.942 90.7291C148.732 90.1649 149.522 89.6007 150.312 89.0364C151.384 88.2465 152.456 87.513 153.415 86.6102C155.898 84.4661 158.324 82.322 160.468 79.8394C160.638 79.6137 160.863 79.4444 160.976 79.1623C161.033 79.0495 161.033 78.8802 160.976 78.7673C161.484 78.0903 161.992 77.4696 162.5 76.7925C162.725 76.5668 162.895 76.3411 163.064 76.059C163.797 75.3819 164.475 74.7048 165.152 73.9713C165.829 73.2378 166.449 72.5043 167.014 71.7144C167.07 71.658 167.183 71.5451 167.183 71.4887C167.239 71.3758 167.296 71.263 167.296 71.1501C167.521 71.0373 167.465 70.9245 167.352 70.868ZM90.7853 125.937C90.2211 126.05 89.6004 126.22 89.0362 126.332C89.6004 126.107 90.1646 125.825 90.7289 125.543C90.7853 125.655 90.8417 125.712 90.8981 125.768C90.7853 125.825 90.7853 125.881 90.7853 125.937ZM106.189 117.7C105.85 117.925 103.988 119.223 103.086 119.787C101.844 120.464 100.603 121.085 99.3053 121.706C100.321 121.141 101.28 120.577 102.296 119.957C103.706 119.11 105.117 118.32 106.471 117.474C106.415 117.53 106.302 117.643 106.189 117.7Z" fill="black"/>
</g>
<g opacity="0.1294">
<path d="M97.3869 107.487C97.3305 107.487 97.3869 107.487 97.3869 107.487C97.4997 107.431 97.4997 107.487 97.3869 107.487Z" fill="black"/>
</g>
<g opacity="0.1294">
<path d="M100.998 99.9826C100.772 100.039 100.603 100.265 100.603 100.49C100.603 100.66 100.603 100.773 100.603 100.942C100.603 100.998 100.603 100.998 100.603 101.055C100.49 101.788 100.095 103.086 99.9825 103.255C98.4026 106.528 95.525 107.261 92.2525 106.415C91.9704 106.359 91.6318 106.133 91.3497 106.302C90.9547 106.528 90.9547 107.148 91.3497 107.374C92.4782 107.882 93.7759 107.995 95.0172 108.051C95.7507 108.051 96.4842 107.938 97.2178 107.656C97.2742 107.656 97.2742 107.6 97.3306 107.6C98.7412 106.979 99.9261 105.794 100.716 104.497C101.224 103.707 101.45 102.747 101.562 101.845C101.675 101.168 101.957 99.8134 100.998 99.9826Z" fill="black"/>
</g>
<g opacity="0.1294">
<path d="M133.893 79.8394C133.837 79.0495 132.708 79.1059 132.708 79.8958C132.708 80.2908 132.595 80.9115 132.37 81.645V81.7014C132.2 82.0399 132.031 82.4349 131.862 82.7734C131.185 84.0147 130.79 84.4661 129.661 85.4253C129.548 85.5382 129.379 85.651 128.928 85.9332C128.363 86.2717 127.461 86.7231 127.348 86.7231C127.743 86.5538 126.84 86.8924 126.671 86.9488C126.107 87.1181 125.317 87.2873 125.26 87.2309C124.752 87.2873 124.245 87.2309 123.793 87.1745C123.567 87.118 123.285 87.0616 123.06 87.1745C122.608 87.4002 122.721 88.1337 123.229 88.3029C124.075 88.4722 124.922 88.5851 125.768 88.5286H125.824C125.881 88.6979 126.05 88.8108 126.276 88.8108C127.235 88.8108 128.138 88.6979 129.041 88.3594C129.605 88.1337 130.113 87.7387 130.62 87.4002C131.354 86.9488 131.918 86.3845 132.37 85.7075C132.539 85.4253 132.877 85.1996 132.764 84.8047C132.708 84.6918 132.652 84.579 132.539 84.5226C132.99 83.7891 133.385 82.9991 133.611 82.1528C133.724 81.8707 133.724 81.5321 133.78 81.25C133.78 81.4193 133.78 81.4757 133.78 81.25C133.837 80.7986 133.949 80.3472 133.893 79.8394Z" fill="black"/>
</g>
<g opacity="0.1294">
<path d="M80.2342 123.173C80.0649 123.116 79.9521 123.173 79.8392 123.229C79.6136 123.229 79.4443 123.398 79.2186 123.511C78.7672 123.737 78.3722 123.963 77.9773 124.245C76.4538 125.26 75.0432 126.502 73.7455 127.799C72.7299 128.871 72.1656 129.323 71.4321 130.395C71.2629 130.677 71.2629 131.016 71.4321 131.298C71.4886 131.411 71.545 131.523 71.6578 131.58C71.7142 131.636 71.8835 131.749 71.9399 131.749C71.9964 131.805 72.1092 131.918 72.1092 131.918C72.3913 132.257 72.4478 132.765 72.8427 133.047C73.1813 133.272 73.6891 133.103 73.9148 132.765C73.9712 132.708 73.9712 132.595 74.0276 132.539C74.0276 132.483 74.084 132.426 74.084 132.37C74.3662 131.749 74.7047 131.128 75.0432 130.508C76.341 128.364 77.3566 126.953 79.2186 125.317C79.7264 124.865 80.3471 124.414 80.5163 124.245C80.8549 123.793 80.6292 123.286 80.2342 123.173Z" fill="black"/>
</g>
<path d="M21.9487 47.7907C31.71 48.8628 41.5841 48.8063 51.3454 48.5242C53.7152 48.4678 56.2542 48.2985 58.1162 46.7751C60.7117 44.5746 60.4296 39.835 57.6648 37.8602C54.9001 35.8853 50.499 36.9574 48.8063 39.8914C49.032 36.2239 46.098 32.6692 42.4869 32.2178C38.8758 31.7664 35.1518 34.5312 34.5311 38.1423C34.3619 35.6596 30.8636 34.5876 28.8324 35.9418C26.8011 37.2959 26.124 40.1171 26.4626 42.5997C25.5598 40.23 21.8923 39.9478 20.256 41.8662C18.6197 43.8411 19.1275 47.4522 21.9487 47.7907Z" fill="white"/>
<path d="M32.8948 48.8628C29.1709 48.75 25.5598 48.4678 21.9487 48.0729C20.7073 47.96 19.8046 47.2265 19.3532 46.098C18.7889 44.6875 19.0711 42.9383 20.0303 41.7534C20.8766 40.7378 22.4001 40.23 23.8671 40.4557C24.7698 40.625 25.5034 41.0199 26.0676 41.5842C26.0112 39.4965 26.6882 37.0703 28.6066 35.7725C29.7915 34.9826 31.4843 34.9262 32.8384 35.6033C33.5719 35.9982 34.1362 36.506 34.4747 37.1831C35.6032 33.967 39.1014 31.6536 42.4869 32.0486C45.9287 32.4435 48.8063 35.6597 49.0884 39.1015C49.9912 37.9166 51.4018 37.1267 52.9252 36.7881C54.6744 36.3932 56.4799 36.7317 57.8341 37.6909C59.2447 38.7066 60.1474 40.4557 60.2039 42.3741C60.2603 44.2361 59.5832 45.9288 58.2855 47.0008C56.4799 48.5243 53.9408 48.75 51.3454 48.8064C44.7438 48.9756 38.7065 49.0321 32.8948 48.8628ZM22.0051 47.5086C31.2021 48.5243 40.3992 48.5807 51.4018 48.2421C53.8844 48.1857 56.3106 48.0164 58.0034 46.5494C59.1318 45.5902 59.7525 44.0668 59.6961 42.3741C59.6396 40.625 58.8497 38.9887 57.552 38.0859C56.3106 37.2395 54.7308 36.901 53.0945 37.296C51.3454 37.6909 49.8784 38.7066 49.0884 40.0607C49.032 40.1736 48.9191 40.23 48.8063 40.1736C48.637 40.1736 48.5242 40.0607 48.5242 39.9479C48.7499 36.4496 45.8723 33.0078 42.4304 32.5564C38.9886 32.1614 35.3775 34.8133 34.7568 38.2552C34.7568 38.368 34.644 38.4809 34.4747 38.4809C34.3619 38.4809 34.249 38.368 34.249 38.2552C34.1926 37.3524 33.5719 36.5625 32.6692 36.1111C31.4843 35.5468 29.9608 35.6033 29.0016 36.2803C26.9139 37.6909 26.4626 40.5685 26.7447 42.6562C26.7447 42.7691 26.6882 42.9383 26.519 42.9383C26.4061 42.9947 26.2369 42.8819 26.1804 42.7691C25.8419 41.8099 24.9391 41.1892 23.8106 40.9635C22.5129 40.7378 21.2152 41.1892 20.4252 42.092C19.5789 43.1076 19.3532 44.6875 19.8046 45.8724C20.1995 46.8316 20.9895 47.3958 22.0051 47.5086Z" fill="black"/>
<g opacity="0.1294">
<path d="M58.7934 45.6466C58.7934 45.3645 58.5113 45.1388 58.2292 45.0824C58.0035 45.0824 57.8342 45.1952 57.6649 45.3081C57.4392 45.4209 57.2135 45.5338 56.9878 45.6466C56.1415 45.9288 55.2951 46.2673 54.4488 46.3237C54.3924 46.3237 54.2795 46.3237 54.2231 46.3237C54.5616 46.2673 54.2795 46.3237 54.0538 46.3237C49.9913 46.2109 45.9852 46.493 41.9227 46.493C40.0608 46.493 38.2552 46.5494 36.3932 46.5494C33.3464 46.493 30.2431 46.493 27.1962 46.4366C26.4063 46.3801 25.6727 46.3801 24.8828 46.2673C23.5851 46.098 22.3438 45.8723 21.046 45.7595C20.0868 45.7595 19.974 47.1701 20.9896 47.2265C22.9644 47.3958 23.1337 47.6215 25.6163 47.9036C27.5347 48.1293 29.4531 48.0164 31.3715 48.1293C33.2899 48.1857 35.2083 48.2985 37.1267 48.355C38.7066 48.4114 40.2865 48.355 41.8663 48.355C41.9227 48.355 41.9792 48.355 42.0356 48.355C44.2361 48.4678 46.3802 48.4678 48.5807 48.4678C49.5399 48.4114 50.4427 48.4678 51.4019 48.4678C52.2483 48.4114 52.5304 48.355 53.0946 48.355C54.1667 48.2985 55.2387 48.2421 56.2543 47.7907C56.5365 47.6779 56.875 47.565 57.1007 47.2829C57.2135 47.1701 57.2135 47.0572 57.2135 46.9444C57.4957 46.7751 57.7778 46.6623 58.0599 46.4366C58.1727 46.3801 58.4549 46.1544 58.1727 46.3237C58.2856 46.2109 58.3984 46.1544 58.5677 46.0416C58.737 46.098 58.8498 45.8723 58.7934 45.6466Z" fill="black"/>
</g>
</g>
<defs>
<clipPath id="clip0_705_10070">
<rect width="195" height="164.136" fill="white"/>
</clipPath>
</defs>
</svg>
