<svg width="211" height="227" viewBox="0 0 211 227" fill="none" xmlns="http://www.w3.org/2000/svg">
<path d="M189.124 140.389C187.198 133.708 181.054 129.613 175.4 131.243C169.746 132.873 166.723 139.61 168.649 146.29C170.574 152.971 176.719 157.066 182.373 155.436C188.027 153.806 191.05 147.069 189.124 140.389Z" fill="#E5E5E5"/>
<path fill-rule="evenodd" clip-rule="evenodd" d="M169.579 146.021C171.401 152.34 177.104 155.946 182.105 154.504C187.105 153.063 190.014 146.974 188.193 140.656C186.372 134.338 180.668 130.732 175.668 132.173C170.667 133.614 167.758 139.703 169.579 146.021ZM182.641 156.366C176.334 158.184 169.748 153.601 167.718 146.558C165.688 139.515 168.824 132.13 175.131 130.312C181.439 128.494 188.024 133.077 190.054 140.12C192.084 147.163 188.949 154.548 182.641 156.366Z" fill="black"/>
<path d="M122.806 58.0734C129.783 62.6517 128.584 75.0587 127.112 80.6899C134.802 70.3905 141.49 46.8422 106.724 35.0441C103.297 33.8813 100.168 33.1207 97.314 32.7099C93.5558 32.1691 90.274 32.2348 87.4154 32.7875C70.4194 36.0734 68.3847 56.5722 70.1575 69.134C71.6983 61.5401 77.8982 63.4569 80.8055 65.3646C88.6965 69.3376 112.094 62.1592 122.806 58.0734Z" fill="black"/>
<path d="M81.9061 11.2306C67.6099 15.4458 79.6222 27.3582 87.4154 32.7875C90.274 32.2348 93.5558 32.1691 97.314 32.7099C98.1348 23.7938 96.2023 7.01548 81.9061 11.2306Z" fill="black"/>
<path d="M50.8426 178.001C61.1768 177.726 103.229 173.212 119.724 184.465C125.364 188.313 125.456 191.137 123.136 193.187L147.728 193.187C149.277 186.149 126.84 152.803 115.428 137.01C112.938 134.32 110.491 131.896 108.172 129.753C82.7266 147.807 59.3501 126.076 50.8426 112.953C39.7234 114.344 26.3196 118.173 18.2141 129.753L42.1894 153.396L50.8426 178.001Z" fill="black"/>
<path fill-rule="evenodd" clip-rule="evenodd" d="M90.0175 12.4156C88.1101 11.4355 85.5754 11.158 82.18 12.1591C78.7283 13.1768 77.1295 14.5839 76.5312 15.9919C75.9328 17.4001 76.2002 19.1269 77.2353 21.104C79.2549 24.9618 83.8358 29.0613 87.6398 31.7607C90.2504 31.3027 93.17 31.2325 96.4273 31.6165C96.7004 27.3222 96.3111 21.6693 94.3966 17.4454C93.3699 15.1801 91.9407 13.4039 90.0175 12.4156ZM98.3506 31.8899C98.6525 27.4132 98.2811 21.3231 96.161 16.6457C95.0202 14.1287 93.3371 11.9435 90.9028 10.6926C88.4527 9.43368 85.3848 9.1946 81.6321 10.3011C77.9357 11.3909 75.675 13.0536 74.7483 15.2343C73.8217 17.4149 74.3639 19.7958 75.5191 22.0024C77.4993 25.785 81.5587 29.6028 85.1552 32.3382C77.5089 34.5792 73.1174 40.4333 70.8309 47.1705C68.3766 54.4021 68.2996 62.7494 69.1758 69.1064C68.4038 73.1798 69.8275 76.3305 71.9077 78.569C73.6985 80.496 75.9785 81.7579 77.7938 82.43C76.9349 87.0019 75.5324 93.5243 73.9327 99.2036C73.0824 102.222 72.1841 104.975 71.2917 107.062C70.8448 108.108 70.4111 108.958 70.0005 109.584C69.5709 110.238 69.243 110.527 69.0539 110.616C68.9554 110.663 68.7479 110.728 68.3813 110.791C68.0281 110.851 67.5826 110.901 67.0424 110.943C65.9942 111.024 64.6629 111.071 63.0806 111.128L62.9237 111.133C59.6388 111.25 55.3814 111.409 50.7223 111.991C39.5237 113.392 25.7675 117.272 17.4205 129.197C15.3951 132.091 13.6968 135.448 12.4333 139.339C7.12055 155.7 6.62299 170.378 9.64382 181.578C12.6627 192.769 19.2426 200.598 28.1321 202.922C31.6961 203.854 36.7022 203.724 42.4868 203.145C46.9289 202.7 51.9233 201.978 57.2006 201.214C58.8269 200.979 60.4801 200.74 62.1522 200.504C76.4123 198.49 92.1013 196.694 105.084 199.165C105.169 199.182 105.256 199.186 105.343 199.179L105.265 198.214C105.343 199.179 105.343 199.179 105.343 199.179L105.344 199.179L105.346 199.179L105.355 199.178L105.386 199.176L105.503 199.166C105.605 199.156 105.755 199.143 105.946 199.124C106.327 199.086 106.876 199.027 107.548 198.945C108.89 198.78 110.728 198.518 112.712 198.131C114.692 197.744 116.834 197.229 118.778 196.552C120.561 195.931 122.25 195.15 123.489 194.155L147.727 194.155C148.182 194.155 148.576 193.839 148.673 193.395C148.924 192.256 148.674 190.759 148.18 189.12C147.673 187.439 146.857 185.449 145.815 183.246C143.729 178.838 140.693 173.482 137.265 167.876C130.406 156.657 121.929 144.351 116.213 136.442C116.19 136.41 116.166 136.38 116.139 136.351C113.631 133.642 111.167 131.201 108.829 129.041C103.932 124.516 99.5824 121.216 96.5524 119.27L98.3132 110.591C105.334 111.516 111.608 106.994 116.564 101.108C121.744 94.9562 125.734 87.0331 127.969 81.1589C131.883 75.8663 135.56 67.1876 133.789 58.2404C131.988 49.1427 124.626 40.0959 107.035 34.1264C103.914 33.0672 101.024 32.333 98.3506 31.8899ZM128.964 75.8988C131.465 71.0768 133.128 64.8759 131.889 58.6166C130.265 50.4157 123.588 41.7894 106.412 35.9608C103.033 34.814 99.9626 34.0691 97.1759 33.6681C93.507 33.1401 90.3354 33.2089 87.5992 33.7379C79.5435 35.2954 75.0024 40.9066 72.6653 47.793C70.7768 53.3574 70.3596 59.6879 70.7229 65.1707C70.9246 64.8869 71.1411 64.6282 71.3715 64.3937C72.391 63.356 73.618 62.8598 74.8631 62.7229C77.2624 62.4591 79.7417 63.5195 81.2876 64.5221C83.0281 65.3797 85.7392 65.6827 89.141 65.5082C92.5372 65.3339 96.4787 64.693 100.538 63.7948C108.655 61.9988 117.136 59.1986 122.46 57.1679C122.751 57.057 123.077 57.0924 123.337 57.263C127.199 59.7969 128.694 64.4192 129.092 68.9007C129.304 71.2937 129.211 73.7177 128.964 75.8988ZM79.666 65.8059C78.3434 65.0676 76.6129 64.4793 75.0749 64.6484C74.214 64.7431 73.4204 65.0723 72.7533 65.7513C72.0764 66.4403 71.4661 67.555 71.1067 69.326C70.4087 72.7662 71.5678 75.3576 73.3267 77.2503C74.6892 78.7163 76.4084 79.7531 77.8801 80.38C77.7603 74.7469 78.6136 69.5289 79.666 65.8059ZM78.6644 87.9371C77.8681 91.6823 76.8784 95.8906 75.7973 99.7288C74.9381 102.779 74.0135 105.624 73.0729 107.824C72.6033 108.922 72.118 109.888 71.62 110.647C71.141 111.377 70.5706 112.041 69.8848 112.366C69.5455 112.527 69.1308 112.628 68.7077 112.7C68.2712 112.775 67.7596 112.83 67.1921 112.874C66.1026 112.958 64.7352 113.007 63.179 113.062L62.9927 113.069C60.0883 113.173 56.4838 113.307 52.5324 113.731C56.8884 120 64.3434 127.763 73.5728 132.17C83.1316 136.733 94.588 137.706 106.621 129.646C101.851 125.325 97.7039 122.256 94.96 120.555C94.6156 120.342 94.4405 119.936 94.521 119.539L96.4139 110.21C94.8061 109.775 93.1859 109.048 91.5609 107.999C83.8317 103.01 80.1275 95.4881 78.6644 87.9371ZM108.085 130.994C95.2649 139.771 82.9225 138.78 72.7382 133.918C62.7048 129.127 54.7615 120.589 50.3656 113.99C39.6771 115.403 27.2463 119.119 19.4841 129.645L42.8694 152.706C42.9743 152.809 43.0542 152.935 43.1031 153.074L51.5205 177.009C52.8945 176.956 54.7158 176.848 56.882 176.72C63.3955 176.335 73.0269 175.766 82.99 175.941C89.9512 176.063 97.1335 176.548 103.627 177.715C110.105 178.88 115.981 180.739 120.27 183.665C123.133 185.618 124.804 187.445 125.342 189.218C125.62 190.136 125.589 191.02 125.282 191.839C125.234 191.969 125.179 192.095 125.119 192.218L146.832 192.218C146.805 191.593 146.649 190.751 146.325 189.679C145.857 188.128 145.086 186.235 144.064 184.075C142.022 179.758 139.026 174.47 135.612 168.886C128.801 157.746 120.374 145.51 114.678 137.624C112.422 135.19 110.203 132.976 108.085 130.994ZM18.3645 131.261C16.7326 133.773 15.3443 136.646 14.2757 139.937C9.05052 156.029 8.61258 170.316 11.5141 181.073C14.4176 191.837 20.6179 198.955 28.622 201.048C31.8155 201.883 36.5083 201.797 42.2937 201.217C46.6893 200.777 51.6242 200.063 56.8908 199.302C58.5244 199.065 60.1901 198.824 61.8814 198.586C76.0582 196.584 91.9973 194.734 105.314 197.237L105.33 197.236C105.427 197.227 105.57 197.214 105.754 197.196C106.123 197.159 106.656 197.102 107.311 197.022C108.622 196.861 110.414 196.606 112.34 196.23C114.27 195.853 116.315 195.358 118.141 194.722C119.986 194.08 121.519 193.323 122.495 192.461C122.994 192.019 123.309 191.584 123.468 191.16C123.62 190.753 123.648 190.306 123.488 189.781C123.15 188.668 121.954 187.159 119.178 185.265C115.219 182.564 109.653 180.767 103.284 179.622C96.9309 178.479 89.8615 177.999 82.956 177.878C73.0721 177.704 63.6444 178.262 57.1372 178.647C54.5229 178.802 52.3799 178.928 50.8683 178.969C50.4479 178.98 50.0683 178.719 49.9288 178.322L41.3499 153.928L18.3645 131.261ZM81.4345 66.6778C80.3905 70.5144 79.5715 75.9501 79.867 81.7292C80.3297 90.7793 83.5073 100.495 92.6114 106.372C94.3729 107.509 96.0854 108.201 97.7405 108.533C104.049 109.801 110.01 105.885 115.082 99.8606C120.102 93.8984 124.008 86.1439 126.187 80.395C126.897 77.6572 127.536 73.2889 127.162 69.0718C126.8 64.9833 125.509 61.2645 122.671 59.1597C117.263 61.1973 108.949 63.9179 100.957 65.6862C96.8419 66.5967 92.785 67.2608 89.2402 67.4428C86.2622 67.5956 83.5394 67.4152 81.4345 66.6778Z" fill="black"/>
<path d="M92.0862 107.186C82.6199 101.076 79.371 90.9976 78.8997 81.7792C77.2145 90.991 72.9692 109.83 69.4694 111.492C67.7183 112.323 60.0665 111.799 50.8426 112.953C59.3501 126.076 82.7266 147.807 108.172 129.753C102.993 124.967 98.4478 121.578 95.4703 119.732L97.5498 109.484C95.7636 109.125 93.9389 108.382 92.0862 107.186Z" fill="white"/>
<path d="M127.112 80.6899C128.584 75.0587 129.783 62.6517 122.806 58.0734C112.094 62.1592 88.6965 69.3376 80.8055 65.3646C79.5966 69.3194 78.5705 75.3395 78.8997 81.7792C79.371 90.9976 82.6199 101.076 92.0862 107.186C93.9389 108.382 95.7636 109.125 97.5498 109.484C111.265 112.239 122.709 92.3303 127.112 80.6899Z" fill="white"/>
<path d="M78.8997 81.7792C78.5705 75.3395 79.5966 69.3194 80.8055 65.3646C77.8982 63.4569 71.6983 61.5401 70.1575 69.134C68.6167 76.7278 75.3437 80.7282 78.8997 81.7792Z" fill="white"/>
<path d="M13.3545 139.639C2.81665 172.091 11.4835 197.569 28.3771 201.985C41.892 205.518 78.9388 193.202 105.265 198.214C105.265 198.214 118.67 197.134 123.136 193.187C125.456 191.137 125.364 188.313 119.724 184.465C103.229 173.212 61.1768 177.726 50.8426 178.001L42.1894 153.396L18.2141 129.753C16.2455 132.566 14.5895 135.836 13.3545 139.639Z" fill="white"/>
<path fill-rule="evenodd" clip-rule="evenodd" d="M90.0175 12.4156C88.1101 11.4355 85.5754 11.158 82.18 12.1591C78.7283 13.1768 77.1295 14.5839 76.5312 15.9919C75.9328 17.4001 76.2002 19.1269 77.2353 21.104C79.2549 24.9618 83.8358 29.0613 87.6398 31.7607C90.2504 31.3027 93.17 31.2325 96.4273 31.6165C96.7004 27.3222 96.3111 21.6693 94.3966 17.4454C93.3699 15.1801 91.9407 13.4039 90.0175 12.4156ZM98.3506 31.8899C98.6525 27.4132 98.2811 21.3231 96.161 16.6457C95.0202 14.1287 93.3371 11.9435 90.9028 10.6926C88.4527 9.43368 85.3848 9.1946 81.6321 10.3011C77.9357 11.3909 75.675 13.0536 74.7483 15.2343C73.8217 17.4149 74.3639 19.7958 75.5191 22.0024C77.4993 25.785 81.5587 29.6028 85.1552 32.3382C77.5089 34.5792 73.1174 40.4333 70.8309 47.1705C68.3766 54.4021 68.2996 62.7494 69.1758 69.1064C68.4038 73.1798 69.8275 76.3305 71.9077 78.569C73.6985 80.496 75.9785 81.7579 77.7938 82.43C76.9349 87.0019 75.5324 93.5243 73.9327 99.2036C73.0824 102.222 72.1841 104.975 71.2917 107.062C70.8448 108.108 70.4111 108.958 70.0005 109.584C69.5709 110.238 69.243 110.527 69.0539 110.616C68.9554 110.663 68.7479 110.728 68.3813 110.791C68.0281 110.851 67.5826 110.901 67.0424 110.943C65.9942 111.024 64.6629 111.071 63.0806 111.128L62.9237 111.133C59.6388 111.25 55.3814 111.409 50.7223 111.991C39.5237 113.392 25.7675 117.272 17.4205 129.197C15.3951 132.091 13.6968 135.448 12.4333 139.339C7.12055 155.7 6.62299 170.378 9.64382 181.578C12.6627 192.769 19.2426 200.598 28.1321 202.922C31.6961 203.854 36.7022 203.724 42.4868 203.145C46.9289 202.7 51.9233 201.978 57.2006 201.214C58.8269 200.979 60.4801 200.74 62.1522 200.504C76.4123 198.49 92.1013 196.694 105.084 199.165C105.169 199.182 105.256 199.186 105.343 199.179L105.265 198.214C105.343 199.179 105.343 199.179 105.343 199.179L105.344 199.179L105.346 199.179L105.355 199.178L105.386 199.176L105.503 199.166C105.605 199.156 105.755 199.143 105.946 199.124C106.327 199.086 106.876 199.027 107.548 198.945C108.89 198.78 110.728 198.518 112.712 198.131C114.692 197.744 116.834 197.229 118.778 196.552C120.561 195.931 122.25 195.15 123.489 194.155L147.727 194.155C148.182 194.155 148.576 193.839 148.673 193.395C148.924 192.256 148.674 190.759 148.18 189.12C147.673 187.439 146.857 185.449 145.815 183.246C143.729 178.838 140.693 173.482 137.265 167.876C130.406 156.657 121.929 144.351 116.213 136.442C116.19 136.41 116.166 136.38 116.139 136.351C113.631 133.642 111.167 131.201 108.829 129.041C103.932 124.516 99.5824 121.216 96.5524 119.27L98.3132 110.591C105.334 111.516 111.608 106.994 116.564 101.108C121.744 94.9562 125.734 87.0331 127.969 81.1589C131.883 75.8663 135.56 67.1876 133.789 58.2404C131.988 49.1427 124.626 40.0959 107.035 34.1264C103.914 33.0672 101.024 32.333 98.3506 31.8899ZM128.964 75.8988C131.465 71.0768 133.128 64.8759 131.889 58.6166C130.265 50.4157 123.588 41.7894 106.412 35.9608C103.033 34.814 99.9626 34.0691 97.1759 33.6681C93.507 33.1401 90.3354 33.2089 87.5992 33.7379C79.5435 35.2954 75.0024 40.9066 72.6653 47.793C70.7768 53.3574 70.3596 59.6879 70.7229 65.1707C70.9246 64.8869 71.1411 64.6282 71.3715 64.3937C72.391 63.356 73.618 62.8598 74.8631 62.7229C77.2624 62.4591 79.7417 63.5195 81.2876 64.5221C83.0281 65.3797 85.7392 65.6827 89.141 65.5082C92.5372 65.3339 96.4787 64.693 100.538 63.7948C108.655 61.9988 117.136 59.1986 122.46 57.1679C122.751 57.057 123.077 57.0924 123.337 57.263C127.199 59.7969 128.694 64.4192 129.092 68.9007C129.304 71.2937 129.211 73.7177 128.964 75.8988ZM79.666 65.8059C78.3434 65.0676 76.6129 64.4793 75.0749 64.6484C74.214 64.7431 73.4204 65.0723 72.7533 65.7513C72.0764 66.4403 71.4661 67.555 71.1067 69.326C70.4087 72.7662 71.5678 75.3576 73.3267 77.2503C74.6892 78.7163 76.4084 79.7531 77.8801 80.38C77.7603 74.7469 78.6136 69.5289 79.666 65.8059ZM78.6644 87.9371C77.8681 91.6823 76.8784 95.8906 75.7973 99.7288C74.9381 102.779 74.0135 105.624 73.0729 107.824C72.6033 108.922 72.118 109.888 71.62 110.647C71.141 111.377 70.5706 112.041 69.8848 112.366C69.5455 112.527 69.1308 112.628 68.7077 112.7C68.2712 112.775 67.7596 112.83 67.1921 112.874C66.1026 112.958 64.7352 113.007 63.179 113.062L62.9927 113.069C60.0883 113.173 56.4838 113.307 52.5324 113.731C56.8884 120 64.3434 127.763 73.5728 132.17C83.1316 136.733 94.588 137.706 106.621 129.646C101.851 125.325 97.7039 122.256 94.96 120.555C94.6156 120.342 94.4405 119.936 94.521 119.539L96.4139 110.21C94.8061 109.775 93.1859 109.048 91.5609 107.999C83.8317 103.01 80.1275 95.4881 78.6644 87.9371ZM108.085 130.994C95.2649 139.771 82.9225 138.78 72.7382 133.918C62.7048 129.127 54.7615 120.589 50.3656 113.99C39.6771 115.403 27.2463 119.119 19.4841 129.645L42.8694 152.706C42.9743 152.809 43.0542 152.935 43.1031 153.074L51.5205 177.009C52.8945 176.956 54.7158 176.848 56.882 176.72C63.3955 176.335 73.0269 175.766 82.99 175.941C89.9512 176.063 97.1335 176.548 103.627 177.715C110.105 178.88 115.981 180.739 120.27 183.665C123.133 185.618 124.804 187.445 125.342 189.218C125.62 190.136 125.589 191.02 125.282 191.839C125.234 191.969 125.179 192.095 125.119 192.218L146.832 192.218C146.805 191.593 146.649 190.751 146.325 189.679C145.857 188.128 145.086 186.235 144.064 184.075C142.022 179.758 139.026 174.47 135.612 168.886C128.801 157.746 120.374 145.51 114.678 137.624C112.422 135.19 110.203 132.976 108.085 130.994ZM18.3645 131.261C16.7326 133.773 15.3443 136.646 14.2757 139.937C9.05052 156.029 8.61258 170.316 11.5141 181.073C14.4176 191.837 20.6179 198.955 28.622 201.048C31.8155 201.883 36.5083 201.797 42.2937 201.217C46.6893 200.777 51.6242 200.063 56.8908 199.302C58.5244 199.065 60.1901 198.824 61.8814 198.586C76.0582 196.584 91.9973 194.734 105.314 197.237L105.33 197.236C105.427 197.227 105.57 197.214 105.754 197.196C106.123 197.159 106.656 197.102 107.311 197.022C108.622 196.861 110.414 196.606 112.34 196.23C114.27 195.853 116.315 195.358 118.141 194.722C119.986 194.08 121.519 193.323 122.495 192.461C122.994 192.019 123.309 191.584 123.468 191.16C123.62 190.753 123.648 190.306 123.488 189.781C123.15 188.668 121.954 187.159 119.178 185.265C115.219 182.564 109.653 180.767 103.284 179.622C96.9309 178.479 89.8615 177.999 82.956 177.878C73.0721 177.704 63.6444 178.262 57.1372 178.647C54.5229 178.802 52.3799 178.928 50.8683 178.969C50.4479 178.98 50.0683 178.719 49.9288 178.322L41.3499 153.928L18.3645 131.261ZM81.4345 66.6778C80.3905 70.5144 79.5715 75.9501 79.867 81.7292C80.3297 90.7793 83.5073 100.495 92.6114 106.372C94.3729 107.509 96.0854 108.201 97.7405 108.533C104.049 109.801 110.01 105.885 115.082 99.8606C120.102 93.8984 124.008 86.1439 126.187 80.395C126.897 77.6572 127.536 73.2889 127.162 69.0718C126.8 64.9833 125.509 61.2645 122.671 59.1597C117.263 61.1973 108.949 63.9179 100.957 65.6862C96.8419 66.5967 92.785 67.2608 89.2402 67.4428C86.2622 67.5956 83.5394 67.4152 81.4345 66.6778Z" fill="black"/>
<path d="M99.6435 113.764C109.717 98.267 119.984 105.37 123.858 110.858L156.445 168.004C156.445 168.004 162.135 185.45 149.041 193.187C131.994 203.261 117.401 144.406 112.235 123.405C102.33 126.146 91.2946 126.609 99.6435 113.764Z" fill="white"/>
<path fill-rule="evenodd" clip-rule="evenodd" d="M123.04 111.379L155.551 168.393C155.559 168.416 155.567 168.445 155.577 168.477C155.613 168.598 155.665 168.78 155.727 169.016C155.852 169.488 156.017 170.177 156.177 171.029C156.497 172.736 156.788 175.083 156.685 177.655C156.478 182.8 154.706 188.714 148.548 192.353C146.651 193.474 144.85 193.618 143.085 193.024C141.274 192.415 139.422 191 137.556 188.852C133.821 184.551 130.286 177.609 127.082 169.589C120.865 154.032 116.038 134.798 113.399 124.081C115.155 123.568 116.855 122.994 118.386 122.42C118.887 122.232 119.141 121.673 118.953 121.173C118.765 120.672 118.207 120.418 117.706 120.606C115.962 121.26 113.992 121.914 111.977 122.471C109.533 123.148 107.043 123.676 104.819 123.897C102.568 124.121 100.705 124.016 99.4446 123.526C98.8299 123.287 98.4008 122.974 98.1222 122.601C97.8492 122.237 97.6703 121.749 97.6642 121.066C97.6515 119.641 98.394 117.463 100.455 114.292C105.373 106.726 110.145 104.939 113.958 105.403C117.871 105.879 121.18 108.762 123.04 111.379ZM111.531 124.597C109.325 125.169 107.079 125.62 105.01 125.825C102.668 126.058 100.436 125.989 98.7431 125.332C97.8811 124.997 97.1188 124.494 96.5713 123.762C96.0181 123.023 95.7363 122.12 95.7271 121.083C95.7092 119.068 96.7182 116.487 98.8312 113.236C103.987 105.305 109.385 102.895 114.192 103.48C118.881 104.051 122.629 107.438 124.649 110.3C124.667 110.325 124.684 110.351 124.699 110.378L157.286 167.524C157.318 167.581 157.345 167.641 157.365 167.704L156.445 168.004C157.365 167.704 157.366 167.704 157.366 167.705L157.366 167.706L157.367 167.71L157.371 167.722L157.385 167.766C157.397 167.803 157.413 167.857 157.434 167.926C157.475 168.065 157.532 168.265 157.6 168.521C157.735 169.033 157.912 169.768 158.081 170.673C158.419 172.478 158.731 174.976 158.621 177.733C158.399 183.246 156.469 189.923 149.533 194.021C147.169 195.418 144.785 195.639 142.468 194.86C140.198 194.097 138.073 192.402 136.093 190.122C132.136 185.564 128.503 178.368 125.283 170.308C119.021 154.636 114.171 135.314 111.531 124.597Z" fill="black"/>
<path fill-rule="evenodd" clip-rule="evenodd" d="M106.036 78.4292C106.218 78.9322 105.958 79.4875 105.455 79.6696L102.94 80.5802C102.437 80.7623 101.882 80.5022 101.7 79.9992C101.518 79.4962 101.778 78.9408 102.281 78.7587L104.796 77.8482C105.299 77.6661 105.854 77.9262 106.036 78.4292ZM122.432 84.525C122.735 84.9659 122.623 85.5689 122.182 85.8718L119.475 87.7316C119.034 88.0344 118.431 87.9225 118.128 87.4816C117.825 87.0406 117.937 86.4377 118.378 86.1348L121.085 84.275C121.526 83.9721 122.129 84.0841 122.432 84.525ZM112.631 88.7423C112.673 89.2756 112.274 89.7418 111.741 89.7835L104.711 90.3338C104.178 90.3755 103.712 89.977 103.67 89.4437C103.628 88.9104 104.027 88.4443 104.56 88.4025L111.59 87.8523C112.123 87.8105 112.589 88.209 112.631 88.7423ZM97.525 91.4538C98.0584 91.4943 98.458 91.9596 98.4174 92.493C98.1967 95.3988 99.0419 96.6553 99.8696 97.2094C100.773 97.8142 101.993 97.8185 102.881 97.5788C103.398 97.4395 103.929 97.7453 104.068 98.2617C104.208 98.7782 103.902 99.3098 103.386 99.4491C102.183 99.7735 100.325 99.8452 98.7921 98.8191C97.1835 97.7423 96.2334 95.6696 96.4859 92.3462C96.5264 91.8128 96.9916 91.4133 97.525 91.4538Z" fill="black"/>
<path fill-rule="evenodd" clip-rule="evenodd" d="M108.705 73.9902C108.811 73.466 109.323 73.1272 109.847 73.2336L117.441 74.7744C117.965 74.8808 118.304 75.392 118.197 75.9162C118.091 76.4405 117.58 76.7792 117.055 76.6729L109.462 75.1321C108.937 75.0257 108.599 74.5145 108.705 73.9902Z" fill="black"/>
<path fill-rule="evenodd" clip-rule="evenodd" d="M121.471 73.039C119.475 74.7719 117.887 77.4454 117.234 80.6618C116.582 83.8781 117.002 86.9591 118.165 89.3329C119.327 91.7056 121.201 93.3262 123.466 93.786C125.732 94.2457 128.089 93.4834 130.084 91.7513C132.08 90.0185 133.668 87.3449 134.321 84.1285C134.973 80.9122 134.553 77.8313 133.39 75.4574C132.228 73.0848 130.354 71.4641 128.089 71.0044C125.823 70.5446 123.466 71.307 121.471 73.039ZM120.201 71.5761C122.548 69.539 125.497 68.5019 128.474 69.1059C131.451 69.7099 133.763 71.8146 135.13 74.6052C136.496 77.3947 136.949 80.9149 136.219 84.5137C135.489 88.1126 133.7 91.1779 131.354 93.2142C129.008 95.2513 126.058 96.2884 123.081 95.6844C120.104 95.0804 117.792 92.9757 116.425 90.1851C115.059 87.3957 114.606 83.8754 115.336 80.2766C116.066 76.6777 117.855 73.6124 120.201 71.5761Z" fill="black"/>
<path fill-rule="evenodd" clip-rule="evenodd" d="M101.331 61.6227C96.2308 60.588 90.8351 64.6418 89.5273 71.0875C88.2194 77.5333 91.6084 83.3695 96.7084 84.4043C101.808 85.4391 107.204 81.3853 108.512 74.9395C109.82 68.4937 106.431 62.6575 101.331 61.6227ZM87.6288 70.7024C89.0866 63.5177 95.2826 58.4189 101.716 59.7243C108.149 61.0296 111.868 68.1401 110.41 75.3247C108.953 82.5094 102.757 87.6081 96.3232 86.3028C89.8898 84.9975 86.1711 77.887 87.6288 70.7024Z" fill="black"/>
<path d="M108.016 164.13L103.173 177.69C110.188 178.929 121.174 183.071 123.513 187.375C125.45 181.564 129.325 171.297 129.325 168.973C129.325 166.648 128.356 165.247 125.45 164.13C121.253 162.515 115.183 160.255 112.859 160.255C110.534 160.255 108.985 161.224 108.016 164.13Z" fill="#C4C4C4"/>
<path fill-rule="evenodd" clip-rule="evenodd" d="M110.514 161.875C109.925 162.321 109.383 163.091 108.935 164.436L108.928 164.455L108.928 164.455L104.465 176.952C107.853 177.652 111.909 178.917 115.488 180.497C117.481 181.377 119.351 182.365 120.885 183.423C121.752 184.021 122.539 184.66 123.183 185.335C123.551 184.264 123.96 183.097 124.379 181.898C125.002 180.117 125.65 178.266 126.228 176.556C126.832 174.769 127.37 173.103 127.757 171.746C128.158 170.34 128.356 169.395 128.356 168.972C128.356 167.95 128.146 167.252 127.712 166.692C127.26 166.11 126.477 165.562 125.103 165.034C123.005 164.227 120.458 163.266 118.15 162.507C116.996 162.128 115.913 161.803 114.985 161.574C114.038 161.34 113.317 161.224 112.859 161.224C111.832 161.224 111.093 161.436 110.514 161.875ZM109.344 160.331C110.363 159.559 111.561 159.287 112.859 159.287C113.563 159.287 114.472 159.452 115.449 159.693C116.443 159.938 117.576 160.28 118.755 160.667C121.112 161.442 123.698 162.418 125.798 163.225C127.329 163.814 128.483 164.526 129.242 165.505C130.019 166.506 130.293 167.67 130.293 168.972C130.293 169.712 130.007 170.922 129.62 172.277C129.22 173.68 128.67 175.38 128.063 177.176C127.461 178.957 126.816 180.801 126.198 182.564C125.55 184.415 124.934 186.177 124.432 187.682C124.31 188.048 123.982 188.306 123.598 188.34C123.214 188.374 122.846 188.177 122.662 187.838C122.185 186.959 121.206 185.998 119.785 185.017C118.382 184.05 116.628 183.118 114.705 182.269C110.858 180.571 106.432 179.249 103.005 178.643C102.724 178.594 102.479 178.423 102.336 178.176C102.192 177.93 102.165 177.632 102.261 177.364L107.1 163.813C107.62 162.257 108.337 161.094 109.344 160.331Z" fill="black"/>
<path d="M146.759 194.155H208.748C209.716 190.604 211.072 182.532 208.748 178.658C208.131 177.63 204.865 177.034 200.031 176.743C186.643 175.937 161.228 177.472 146.759 178.658C148.05 181.564 149.858 188.731 146.759 194.155Z" fill="black"/>
<path fill-rule="evenodd" clip-rule="evenodd" d="M203.887 160.256C204.233 160.249 204.557 160.428 204.735 160.726C205.254 161.59 205.931 162.99 206.275 164.41C206.599 165.747 206.726 167.521 205.558 168.689C205.039 169.208 204.345 169.583 203.635 169.862C202.915 170.145 202.116 170.352 201.328 170.505C200.003 170.761 198.65 170.873 197.648 170.902C197.378 171.37 197.288 171.788 197.294 172.158C197.302 172.637 197.475 173.124 197.791 173.61C198.399 174.544 199.442 175.329 200.295 175.789C202.641 175.936 204.647 176.157 206.169 176.476C206.951 176.64 207.64 176.836 208.193 177.079C208.718 177.308 209.266 177.64 209.578 178.16C210.902 180.365 211.121 183.611 210.95 186.583C210.776 189.608 210.181 192.581 209.682 194.41C209.567 194.831 209.184 195.124 208.748 195.124H146.759C146.414 195.124 146.094 194.94 145.921 194.641C145.748 194.343 145.747 193.974 145.918 193.675C147.337 191.19 147.657 188.259 147.44 185.539C147.251 183.171 146.661 181.036 146.112 179.627H139.979C139.875 179.627 139.771 179.61 139.672 179.577C138.775 179.278 138.221 178.635 137.949 177.868C137.693 177.146 137.689 176.333 137.783 175.584C137.971 174.078 138.601 172.467 139.113 171.445C139.271 171.128 139.591 170.922 139.946 170.91L152.173 170.496C152.706 169.968 153.335 169.18 153.72 168.32C154.164 167.328 154.22 166.413 153.702 165.636C153.527 165.373 153.425 165.017 153.529 164.63C153.622 164.288 153.841 164.061 154.005 163.926C154.323 163.665 154.767 163.489 155.191 163.354C156.084 163.071 157.414 162.823 159.033 162.598C162.293 162.146 166.942 161.763 172.149 161.444C182.572 160.805 195.324 160.417 203.887 160.256ZM154.756 170.408L197.092 168.973L197.125 168.973C198.044 168.973 199.53 168.88 200.96 168.603C201.674 168.465 202.352 168.285 202.927 168.059C203.513 167.829 203.933 167.574 204.188 167.319C204.57 166.937 204.698 166.128 204.392 164.866C204.162 163.915 203.737 162.939 203.346 162.203C194.809 162.371 182.421 162.755 172.267 163.377C167.07 163.696 162.482 164.075 159.299 164.517C157.696 164.739 156.503 164.971 155.776 165.201C155.742 165.212 155.71 165.222 155.679 165.232C156.262 166.584 155.993 167.983 155.488 169.111C155.282 169.572 155.029 170.008 154.756 170.408ZM148.137 179.518C148.677 181.058 149.191 183.126 149.371 185.385C149.568 187.857 149.37 190.624 148.309 193.187H207.997C208.422 191.451 208.872 188.973 209.016 186.472C209.184 183.552 208.918 180.825 207.917 179.156C207.917 179.157 207.918 179.157 207.917 179.156C207.907 179.144 207.8 179.021 207.417 178.853C207.034 178.686 206.489 178.522 205.772 178.372C204.343 178.073 202.372 177.854 199.972 177.71C187.053 176.932 162.788 178.349 148.137 179.518ZM146.719 177.689C160.124 176.592 182.95 175.191 196.934 175.635C196.653 175.336 196.393 175.012 196.168 174.667C195.709 173.962 195.373 173.125 195.357 172.191C195.35 171.783 195.405 171.373 195.524 170.965L140.603 172.826C140.215 173.703 139.83 174.826 139.705 175.824C139.629 176.43 139.662 176.901 139.775 177.22C139.856 177.449 139.972 177.596 140.163 177.689H146.719Z" fill="black"/>
<path d="M146.759 178.658C161.228 177.472 186.643 175.937 200.031 176.743C198.093 175.767 194.8 173.041 197.125 169.941L152.57 171.452L139.979 171.878C139.01 173.815 137.654 177.883 139.979 178.658H146.759Z" fill="white"/>
<path d="M152.57 171.452L197.125 169.941C199.062 169.941 203.324 169.554 204.873 168.004C206.423 166.454 204.873 162.838 203.905 161.224C186.793 161.547 152.958 162.774 154.507 165.098C156.057 167.423 153.862 170.302 152.57 171.452Z" fill="white"/>
<path fill-rule="evenodd" clip-rule="evenodd" d="M203.887 160.256C204.233 160.249 204.557 160.428 204.735 160.726C205.254 161.59 205.931 162.99 206.275 164.41C206.599 165.747 206.726 167.521 205.558 168.689C205.039 169.208 204.345 169.583 203.635 169.862C202.915 170.145 202.116 170.352 201.328 170.505C200.003 170.761 198.65 170.873 197.648 170.902C197.378 171.37 197.288 171.788 197.294 172.158C197.302 172.637 197.475 173.124 197.791 173.61C198.399 174.544 199.442 175.329 200.295 175.789C202.641 175.936 204.647 176.157 206.169 176.476C206.951 176.64 207.64 176.836 208.193 177.079C208.718 177.308 209.266 177.64 209.578 178.16C210.902 180.365 211.121 183.611 210.95 186.583C210.776 189.608 210.181 192.581 209.682 194.41C209.567 194.831 209.184 195.124 208.748 195.124H146.759C146.414 195.124 146.094 194.94 145.921 194.641C145.748 194.343 145.747 193.974 145.918 193.675C147.337 191.19 147.657 188.259 147.44 185.539C147.251 183.171 146.661 181.036 146.112 179.627H139.979C139.875 179.627 139.771 179.61 139.672 179.577C138.775 179.278 138.221 178.635 137.949 177.868C137.693 177.146 137.689 176.333 137.783 175.584C137.971 174.078 138.601 172.467 139.113 171.445C139.271 171.128 139.591 170.922 139.946 170.91L152.173 170.496C152.706 169.968 153.335 169.18 153.72 168.32C154.164 167.328 154.22 166.413 153.702 165.636C153.527 165.373 153.425 165.017 153.529 164.63C153.622 164.288 153.841 164.061 154.005 163.926C154.323 163.665 154.767 163.489 155.191 163.354C156.084 163.071 157.414 162.823 159.033 162.598C162.293 162.146 166.942 161.763 172.149 161.444C182.572 160.805 195.324 160.417 203.887 160.256ZM154.756 170.408L197.092 168.973L197.125 168.973C198.044 168.973 199.53 168.88 200.96 168.603C201.674 168.465 202.352 168.285 202.927 168.059C203.513 167.829 203.933 167.574 204.188 167.319C204.57 166.937 204.698 166.128 204.392 164.866C204.162 163.915 203.737 162.939 203.346 162.203C194.809 162.371 182.421 162.755 172.267 163.377C167.07 163.696 162.482 164.075 159.299 164.517C157.696 164.739 156.503 164.971 155.776 165.201C155.742 165.212 155.71 165.222 155.679 165.232C156.262 166.584 155.993 167.983 155.488 169.111C155.282 169.572 155.029 170.008 154.756 170.408ZM148.137 179.518C148.677 181.058 149.191 183.126 149.371 185.385C149.568 187.857 149.37 190.624 148.309 193.187H207.997C208.422 191.451 208.872 188.973 209.016 186.472C209.184 183.552 208.918 180.825 207.917 179.156C207.917 179.157 207.918 179.157 207.917 179.156C207.907 179.144 207.8 179.021 207.417 178.853C207.034 178.686 206.489 178.522 205.772 178.372C204.343 178.073 202.372 177.854 199.972 177.71C187.053 176.932 162.788 178.349 148.137 179.518ZM146.719 177.689C160.124 176.592 182.95 175.191 196.934 175.635C196.653 175.336 196.393 175.012 196.168 174.667C195.709 173.962 195.373 173.125 195.357 172.191C195.35 171.783 195.405 171.373 195.524 170.965L140.603 172.826C140.215 173.703 139.83 174.826 139.705 175.824C139.629 176.43 139.662 176.901 139.775 177.22C139.856 177.449 139.972 177.596 140.163 177.689H146.719Z" fill="black"/>
<path d="M182.373 155.435C176.719 157.065 170.574 152.97 168.649 146.29C166.723 139.609 169.745 132.872 175.4 131.242C172.314 131.92 168.166 133.474 164.819 136.041C160.262 139.537 157.191 144.911 160.319 152.506C161.404 154.34 163.878 156.705 167.733 157.726C169.494 158.193 171.543 158.379 173.879 158.107C176.381 157.815 179.212 156.998 182.373 155.435Z" fill="black"/>
<path d="M167.733 157.726L165.162 162.193L170.005 162.193L173.879 158.107C171.543 158.379 169.494 158.193 167.733 157.726Z" fill="black"/>
<path d="M182.373 155.435C180.565 156.329 178.864 156.979 177.272 157.426L182.373 161.224L186.471 161.224L182.373 155.435Z" fill="black"/>
<path fill-rule="evenodd" clip-rule="evenodd" d="M163.246 136.076L157.803 132.019C157.374 131.7 157.286 131.093 157.605 130.664C157.925 130.235 158.532 130.146 158.961 130.466L164.821 134.834C167.85 132.667 171.38 131.264 174.247 130.523L172.934 124.629C172.818 124.107 173.147 123.589 173.669 123.473C174.191 123.356 174.708 123.685 174.825 124.208L176.132 130.077C182.122 128.985 188.132 133.449 190.055 140.12C191.945 146.678 189.356 153.533 183.898 155.913L187.261 160.665C187.471 160.961 187.497 161.348 187.331 161.67C187.165 161.991 186.833 162.193 186.471 162.193L182.373 162.193C182.165 162.193 181.962 162.126 181.795 162.002L177.071 158.484C176.128 158.73 175.219 158.908 174.344 159.025L170.708 162.86C170.525 163.053 170.271 163.162 170.005 163.162L165.162 163.162C164.817 163.162 164.497 162.978 164.324 162.678C164.151 162.379 164.15 162.01 164.323 161.71L166.29 158.293C162.851 157.07 160.574 154.839 159.486 153C159.462 152.96 159.441 152.918 159.423 152.876C157.781 148.887 157.739 145.4 158.772 142.419C159.654 139.876 161.293 137.775 163.246 136.076ZM168.212 158.837C169.232 159.055 170.331 159.185 171.508 159.2L169.589 161.225L166.837 161.225L168.212 158.837ZM177.087 156.472C175.914 156.806 174.807 157.024 173.767 157.145C171.548 157.403 169.622 157.225 167.982 156.79C164.423 155.848 162.167 153.689 161.188 152.072C159.73 148.494 159.748 145.518 160.603 143.054C161.469 140.554 163.231 138.48 165.409 136.81C166.698 135.821 168.117 134.986 169.547 134.298C167.214 137.53 166.437 142.112 167.718 146.558C169.162 151.566 172.908 155.33 177.22 156.434C177.176 156.447 177.131 156.46 177.087 156.472ZM182.055 156.662C181.131 157.093 180.233 157.462 179.361 157.774L182.694 160.256L184.599 160.256L182.055 156.662ZM169.579 146.022C171.401 152.34 177.104 155.946 182.105 154.505C187.105 153.063 190.014 146.975 188.193 140.656C186.372 134.338 180.668 130.732 175.668 132.173C170.667 133.615 167.758 139.703 169.579 146.022ZM176.946 151.482C176.442 151.302 176.18 150.748 176.359 150.244L178.67 143.769L176.347 136.33C176.188 135.819 176.472 135.276 176.983 135.116C177.494 134.957 178.037 135.242 178.196 135.752L180.615 143.501C180.678 143.702 180.673 143.917 180.603 144.115L178.184 150.895C178.004 151.399 177.45 151.662 176.946 151.482Z" fill="black"/>
<path d="M159.463 136.702C158.475 137.112 157.305 136.636 157.206 135.571C156.988 133.247 158.098 131.057 160.121 130.218C162.144 129.379 164.477 130.142 165.969 131.938C166.652 132.761 166.162 133.924 165.174 134.334L159.463 136.702Z" fill="black"/>
<path d="M171.849 130.977C170.815 131.251 169.718 130.623 169.778 129.554C169.909 127.211 171.403 125.16 173.64 124.566C175.878 123.972 178.192 125.013 179.467 126.984C180.049 127.882 179.408 128.972 178.374 129.246L171.849 130.977Z" fill="black"/>
</svg>
