<svg width="24" height="24" viewBox="0 0 24 24" fill="none" xmlns="http://www.w3.org/2000/svg">
<path d="M17.1704 17C16.0658 17 15.1704 17.8954 15.1704 19C15.1704 20.1046 16.0658 21 17.1704 21C18.275 21 19.1704 20.1046 19.1704 19C19.1704 17.8954 18.275 17 17.1704 17ZM17.1704 17H9.46436C9.00311 17 8.77239 17 8.58253 16.918C8.41508 16.8456 8.26976 16.7288 8.16391 16.5802C8.0439 16.4118 7.99651 16.1863 7.89986 15.7353L5.4419 4.26477C5.34526 3.81376 5.29629 3.58825 5.17628 3.4198C5.07043 3.27123 4.92567 3.15441 4.75821 3.08205C4.56835 3 4.33821 3 3.87695 3H3.17042M6.17042 6H19.0436C19.7654 6 20.1261 6 20.3684 6.15036C20.5806 6.28206 20.7356 6.48838 20.8033 6.72876C20.8806 7.00319 20.7814 7.34996 20.5814 8.04346L19.1968 12.8435C19.0772 13.2581 19.0173 13.4655 18.896 13.6193C18.7889 13.7551 18.6477 13.8608 18.4875 13.926C18.306 14 18.0903 14 17.6587 14H7.90089M8.17042 21C7.06585 21 6.17042 20.1046 6.17042 19C6.17042 17.8954 7.06585 17 8.17042 17C9.27499 17 10.1704 17.8954 10.1704 19C10.1704 20.1046 9.27499 21 8.17042 21Z" stroke="white" stroke-width="2" stroke-linecap="round" stroke-linejoin="round"/>
</svg>
