<svg width="24" height="17" viewBox="0 0 24 17" fill="none" xmlns="http://www.w3.org/2000/svg">
<path d="M17.876 10.4421C16.2309 10.4421 14.8926 11.7805 14.8926 13.4256C14.8926 15.0707 16.2309 16.4091 17.876 16.4091C19.5214 16.4091 20.8595 15.0707 20.8595 13.4256C20.8595 11.7805 19.5211 10.4421 17.876 10.4421ZM17.876 14.9173C17.0534 14.9173 16.3843 14.2483 16.3843 13.4256C16.3843 12.6029 17.0534 11.9339 17.876 11.9339C18.6987 11.9339 19.3678 12.6029 19.3678 13.4256C19.3678 14.2483 18.6987 14.9173 17.876 14.9173Z" fill="#6C68F0"/>
<path d="M7.68219 10.4421C6.03708 10.4421 4.69873 11.7805 4.69873 13.4256C4.69873 15.0707 6.03708 16.4091 7.68219 16.4091C9.3273 16.4091 10.6656 15.0707 10.6656 13.4256C10.6656 11.7805 9.3273 10.4421 7.68219 10.4421ZM7.68219 14.9173C6.85952 14.9173 6.19046 14.2483 6.19046 13.4256C6.19046 12.6029 6.85952 11.9339 7.68219 11.9339C8.50463 11.9339 9.17392 12.6029 9.17392 13.4256C9.17392 14.2483 8.50486 14.9173 7.68219 14.9173Z" fill="#6C68F0"/>
<path d="M19.8848 1.90243C19.758 1.65058 19.5002 1.4917 19.2183 1.4917H15.29V2.98343H18.7583L20.7893 7.02301L22.1224 6.3527L19.8848 1.90243Z" fill="#6C68F0"/>
<path d="M15.6383 12.7046H9.99463V14.1963H15.6383V12.7046Z" fill="#6C68F0"/>
<path d="M5.44474 12.7046H2.85912C2.44714 12.7046 2.11328 13.0385 2.11328 13.4504C2.11328 13.8624 2.44719 14.1963 2.85912 14.1963H5.44479C5.85677 14.1963 6.19063 13.8624 6.19063 13.4504C6.19063 13.0384 5.85673 12.7046 5.44474 12.7046Z" fill="#6C68F0"/>
<path d="M23.5121 8.14481L22.045 6.25529C21.904 6.07329 21.6865 5.96687 21.456 5.96687H16.036V0.745841C16.036 0.333858 15.7021 0 15.2902 0H2.85912C2.44714 0 2.11328 0.333904 2.11328 0.745841C2.11328 1.15778 2.44719 1.49168 2.85912 1.49168H14.5443V6.71271C14.5443 7.1247 14.8782 7.45855 15.2901 7.45855H21.0907L22.1769 8.85778V12.7045H20.1134C19.7014 12.7045 19.3675 13.0384 19.3675 13.4503C19.3675 13.8623 19.7014 14.1961 20.1134 14.1961H22.9228C23.3348 14.1961 23.6687 13.8622 23.6687 13.4503V8.60228C23.6687 8.43669 23.6135 8.27558 23.5121 8.14481Z" fill="#6C68F0"/>
<path d="M5.39509 8.92554H1.9641C1.55212 8.92554 1.21826 9.25944 1.21826 9.67138C1.21826 10.0834 1.55217 10.4172 1.9641 10.4172H5.39505C5.80703 10.4172 6.14089 10.0833 6.14089 9.67138C6.14089 9.25944 5.80703 8.92554 5.39509 8.92554Z" fill="#6C68F0"/>
<path d="M7.11055 5.9917H0.745841C0.333904 5.9917 0 6.3256 0 6.73759C0 7.14957 0.333904 7.48343 0.745841 7.48343H7.11055C7.52253 7.48343 7.85639 7.14952 7.85639 6.73759C7.85639 6.32565 7.52253 5.9917 7.11055 5.9917Z" fill="#6C68F0"/>
<path d="M8.32881 3.05811H1.9641C1.55212 3.05811 1.21826 3.39201 1.21826 3.80395C1.21826 4.21593 1.55217 4.54979 1.9641 4.54979H8.32881C8.74079 4.54979 9.07465 4.21588 9.07465 3.80395C9.07465 3.39201 8.74079 3.05811 8.32881 3.05811Z" fill="#6C68F0"/>
</svg>
