<svg width="33" height="21" viewBox="0 0 33 21" fill="none" xmlns="http://www.w3.org/2000/svg">
<path d="M20.9911 2.96021H11.3652V18.6821H20.9911V2.96021Z" fill="#FF5F00"/>
<path d="M12.3572 10.8226C12.356 9.3087 12.6992 7.81438 13.3608 6.45271C14.0224 5.09105 14.985 3.89771 16.1759 2.96301C14.7009 1.80386 12.9296 1.08305 11.0644 0.882964C9.19916 0.682881 7.31527 1.0116 5.62801 1.83155C3.94076 2.65149 2.51823 3.92959 1.523 5.51977C0.527775 7.10994 0 8.94803 0 10.824C0 12.6999 0.527775 14.538 1.523 16.1282C2.51823 17.7183 3.94076 18.9964 5.62801 19.8164C7.31527 20.6363 9.19916 20.965 11.0644 20.765C12.9296 20.5649 14.7009 19.8441 16.1759 18.6849C14.9847 17.7499 14.0218 16.5562 13.3602 15.194C12.6986 13.8318 12.3556 12.3369 12.3572 10.8226Z" fill="#F24E1E"/>
<path d="M31.3982 17.0185V16.6963H31.537V16.6296H31.2065V16.6963H31.3371V17.0185H31.3982ZM32.0397 17.0185V16.6296H31.9397L31.8231 16.9074L31.7064 16.6296H31.6065V17.0185H31.6787V16.7241L31.787 16.9768H31.862L31.9703 16.7241V17.0185H32.0397Z" fill="#F79E1B"/>
<path d="M32.3536 10.8226C32.3536 12.6987 31.8257 14.5369 30.8303 16.1271C29.8349 17.7173 28.4121 18.9954 26.7247 19.8153C25.0372 20.6351 23.1531 20.9636 21.2878 20.7632C19.4224 20.5628 17.6511 19.8417 16.1763 18.6822C17.3667 17.7466 18.3291 16.553 18.9908 15.1912C19.6526 13.8295 19.9964 12.3352 19.9964 10.8212C19.9964 9.30719 19.6526 7.81294 18.9908 6.4512C18.3291 5.08946 17.3667 3.89579 16.1763 2.96026C17.6511 1.80074 19.4224 1.07958 21.2878 0.879213C23.1531 0.678844 25.0372 1.00735 26.7247 1.82718C28.4121 2.64701 29.8349 3.92509 30.8303 5.51532C31.8257 7.10554 32.3536 8.94375 32.3536 10.8198V10.8226Z" fill="#FFD25F"/>
</svg>
