<svg width="21" height="20" viewBox="0 0 21 20" fill="none" xmlns="http://www.w3.org/2000/svg">
<path d="M6 10H6.01M10.5 10H10.51M15 10H15.01M10.5 19C15.4706 19 19.5 14.9706 19.5 10C19.5 5.02944 15.4706 1 10.5 1C5.52944 1 1.5 5.02944 1.5 10C1.5 11.1971 1.73374 12.3397 2.15806 13.3845C2.23927 13.5845 2.27988 13.6845 2.298 13.7653C2.31572 13.8443 2.3222 13.9028 2.32221 13.9839C2.32222 14.0667 2.30718 14.1569 2.27711 14.3374L1.68413 17.8952C1.62203 18.2678 1.59098 18.4541 1.64876 18.5888C1.69933 18.7067 1.79328 18.8007 1.91118 18.8512C2.04589 18.909 2.23218 18.878 2.60476 18.8159L6.16265 18.2229C6.34309 18.1928 6.4333 18.1778 6.51613 18.1778C6.59715 18.1778 6.65566 18.1843 6.73472 18.202C6.81554 18.2201 6.91552 18.2607 7.11549 18.3419C8.1603 18.7663 9.30286 19 10.5 19ZM6.5 10C6.5 10.2761 6.27614 10.5 6 10.5C5.72386 10.5 5.5 10.2761 5.5 10C5.5 9.72386 5.72386 9.5 6 9.5C6.27614 9.5 6.5 9.72386 6.5 10ZM11 10C11 10.2761 10.7761 10.5 10.5 10.5C10.2239 10.5 10 10.2761 10 10C10 9.72386 10.2239 9.5 10.5 9.5C10.7761 9.5 11 9.72386 11 10ZM15.5 10C15.5 10.2761 15.2761 10.5 15 10.5C14.7239 10.5 14.5 10.2761 14.5 10C14.5 9.72386 14.7239 9.5 15 9.5C15.2761 9.5 15.5 9.72386 15.5 10Z" stroke="#EEEEEE" stroke-width="2" stroke-linecap="round" stroke-linejoin="round"/>
</svg>
