<svg width="19" height="21" viewBox="0 0 19 21" fill="none" xmlns="http://www.w3.org/2000/svg">
<path d="M17.5 19.583C17.5 18.1874 17.5 17.4897 17.3278 16.9219C16.94 15.6435 15.9395 14.643 14.6611 14.2552C14.0933 14.083 13.3956 14.083 12 14.083H7C5.60444 14.083 4.90665 14.083 4.33886 14.2552C3.06045 14.643 2.06004 15.6435 1.67224 16.9219C1.5 17.4897 1.5 18.1874 1.5 19.583M14 6.08301C14 8.56829 11.9853 10.583 9.5 10.583C7.01472 10.583 5 8.56829 5 6.08301C5 3.59773 7.01472 1.58301 9.5 1.58301C11.9853 1.58301 14 3.59773 14 6.08301Z" stroke="#979797" stroke-width="2" stroke-linecap="round" stroke-linejoin="round"/>
</svg>
