<svg width="20" height="20" viewBox="0 0 20 20" fill="none" xmlns="http://www.w3.org/2000/svg">
<path d="M15.545 14.6626L17.9863 17.1026C18.1001 17.2205 18.1631 17.3784 18.1617 17.5422C18.1602 17.7061 18.0945 17.8629 17.9786 17.9787C17.8628 18.0946 17.706 18.1603 17.5421 18.1618C17.3783 18.1632 17.2204 18.1002 17.1025 17.9864L14.6613 15.5451C13.066 16.9119 11.0033 17.6077 8.90602 17.4865C6.80878 17.3652 4.84 16.4364 3.41281 14.8949C1.98563 13.3534 1.21098 11.319 1.25141 9.21863C1.29184 7.11827 2.14421 5.11521 3.62966 3.62976C5.11511 2.14431 7.11817 1.29194 9.21853 1.25151C11.3189 1.21108 13.3533 1.98573 14.8948 3.41291C16.4363 4.8401 17.3651 6.80887 17.4864 8.90612C17.6076 11.0034 16.9118 13.0661 15.545 14.6614V14.6626ZM9.375 16.2501C11.1984 16.2501 12.947 15.5258 14.2364 14.2365C15.5257 12.9471 16.25 11.1985 16.25 9.3751C16.25 7.55174 15.5257 5.80305 14.2364 4.51374C12.947 3.22443 11.1984 2.5001 9.375 2.5001C7.55164 2.5001 5.80296 3.22443 4.51364 4.51374C3.22433 5.80305 2.5 7.55174 2.5 9.3751C2.5 11.1985 3.22433 12.9471 4.51364 14.2365C5.80296 15.5258 7.55164 16.2501 9.375 16.2501Z" fill="#939393"/>
</svg>
